<?xml version="1.0" encoding="UTF-8" standalone="no"?>
<svg
   xmlns:dc="http://purl.org/dc/elements/1.1/"
   xmlns:cc="http://creativecommons.org/ns#"
   xmlns:rdf="http://www.w3.org/1999/02/22-rdf-syntax-ns#"
   xmlns:svg="http://www.w3.org/2000/svg"
   xmlns="http://www.w3.org/2000/svg"
   xmlns:sodipodi="http://sodipodi.sourceforge.net/DTD/sodipodi-0.dtd"
   xmlns:inkscape="http://www.inkscape.org/namespaces/inkscape"
   fill="#000000"
   height="24"
   viewBox="0 0 24 24"
   width="24"
   version="1.1"
   id="svg6"
   sodipodi:docname="cloud-ai-white.svg"
   inkscape:version="0.92.2 (5c3e80d, 2017-08-06)">
  <metadata
     id="metadata12">
    <rdf:RDF>
      <cc:Work
         rdf:about="">
        <dc:format>image/svg+xml</dc:format>
        <dc:type
           rdf:resource="http://purl.org/dc/dcmitype/StillImage" />
        <dc:title></dc:title>
      </cc:Work>
    </rdf:RDF>
  </metadata>
  <defs
     id="defs10" />
  <sodipodi:namedview
     pagecolor="#ffffff"
     bordercolor="#666666"
     borderopacity="1"
     objecttolerance="10"
     gridtolerance="10"
     guidetolerance="10"
     inkscape:pageopacity="0"
     inkscape:pageshadow="2"
     inkscape:window-width="1920"
     inkscape:window-height="1017"
     id="namedview8"
     showgrid="false"
     inkscape:zoom="27.812866"
     inkscape:cx="12.369008"
     inkscape:cy="7.6654846"
     inkscape:window-x="-8"
     inkscape:window-y="-8"
     inkscape:window-maximized="1"
     inkscape:current-layer="svg6"
     showguides="false" />
  <path
     inkscape:connector-curvature="0"
     style="fill:#ffffff;stroke-width:0.05972346"
     d="m 16.5475,8.4031784 c 0,-0.8370387 -0.64317,-1.5513529 -1.54,-1.8199109 0.01276,-0.073826 0.02049,-0.148738 0.02049,-0.2248425 0,-0.8408521 -0.816245,-1.5248269 -1.819413,-1.5248269 -0.491841,0 -0.938437,0.1646762 -1.266226,0.4314687 C 11.614568,4.998387 11.167906,4.8335981 10.67613,4.8335981 c -1.0031725,0 -1.8194242,0.6840893 -1.8194242,1.5248269 0,0.076047 0.00759,0.1510142 0.020483,0.2248425 -0.8968143,0.268558 -1.5399853,0.9829295 -1.5399853,1.8199109 0,0.4527008 0.1950069,0.8854789 0.535328,1.2270107 -0.3403211,0.3413044 -0.535328,0.7743109 -0.535328,1.2267269 0,0.64652 0.3922065,1.245681 1.0230322,1.601274 0.1026417,0.874208 0.9883174,1.559606 2.0626173,1.559606 0.599936,0 1.140779,-0.213914 1.519575,-0.554875 0.378794,0.340961 0.919636,0.554875 1.519569,0.554875 1.117091,0 2.029835,-0.74101 2.070753,-1.664914 0.633396,-0.400958 1.014825,-1.029035 1.014825,-1.70043 0,-0.42276 -0.148647,-0.8213277 -0.409124,-1.1573959 0.266002,-0.3182505 0.409061,-0.6944485 0.409061,-1.0918777 z m -6.124782,4.6097176 c -0.5326355,0 -0.9664575,-0.325084 -0.9664575,-0.724504 0,-0.298329 0.2517845,-0.570701 0.6261365,-0.677658 0.291694,-0.08317 0.453238,-0.365326 0.361878,-0.63007 -0.09181,-0.264516 -0.401419,-0.412002 -0.6936165,-0.328724 -0.4662817,0.133141 -0.8469602,0.396063 -1.0932867,0.730367 -0.1369242,-0.151584 -0.2139944,-0.333166 -0.2139944,-0.525278 0,-0.316258 0.216062,-0.608723 0.5780012,-0.78245 0.1815334,-0.08709 0.2949579,-0.2580839 0.2949579,-0.4443329 0,-0.186249 -0.1134668,-0.3572429 -0.2949579,-0.4443332 C 8.6595018,9.0121868 8.4433774,8.7197214 8.4433774,8.4032354 c 0,-0.5096233 0.5416572,-0.924243 1.2095231,-0.928512 0.008,1.137e-4 0.01605,3.981e-4 0.0242,1.708e-4 0.186103,0.00157 0.3645775,0.033869 0.5300715,0.097279 0.280916,0.1074678 0.606136,-0.011564 0.724944,-0.267932 C 11.050412,7.0486047 10.918726,6.7539195 10.637163,6.6461661 10.42881,6.5664191 10.210868,6.5140506 9.9861605,6.4882645 c -0.01412,-0.038934 -0.02319,-0.08231 -0.02319,-0.1298939 0,-0.2866025 0.3197685,-0.5198693 0.7131025,-0.5198693 0.393332,0 0.713099,0.2333237 0.713099,0.5198693 0,3.5470214 0,2.7206777 0,5.9299644 -6e-5,0.399478 -0.433812,0.724562 -0.966447,0.724562 z m 3.039145,0 c -0.532635,0 -0.966448,-0.325084 -0.966448,-0.724504 0,-2.206598 -6.3e-5,-5.92991 -6.3e-5,-5.92991 0,-0.2866025 0.319767,-0.519869 0.713101,-0.519869 0.393335,0 0.713104,0.2333236 0.713104,0.519869 0,0.1302941 -0.067,0.2293959 -0.123127,0.2895059 -5.63e-4,6.261e-4 -9.11e-4,0.00128 -0.0014,0.00181 -0.0074,0.00808 -0.01412,0.016615 -0.02112,0.025105 -0.0041,0.00526 -0.0087,0.010233 -0.01276,0.01554 -0.0021,0.00299 -0.0041,0.00625 -0.0063,0.00927 -0.149137,0.2089614 -0.108099,0.4910099 0.106538,0.6563112 0.10747,0.082539 0.23862,0.1210166 0.36833,0.1186258 0.667799,0.00422 1.20958,0.4188322 1.20958,0.9285121 0,0.1471997 -0.04737,0.290188 -0.136106,0.4191738 -0.214997,-0.1076976 -0.451799,-0.1906886 -0.705584,-0.2435124 -0.297644,-0.063812 -0.594793,0.1067274 -0.662847,0.3776203 -0.06805,0.2703797 0.117748,0.5400193 0.415456,0.6018365 0.641164,0.1334819 1.089015,0.5834508 1.089015,1.0942688 0,0.236056 -0.09913,0.464029 -0.27296,0.653237 -0.05533,-0.06683 -0.11655,-0.13075 -0.18354,-0.191257 -0.216622,-0.195756 -0.566656,-0.194844 -0.782218,0.002 -0.215621,0.196779 -0.214493,0.514974 0.0021,0.710557 0.102137,0.09227 0.223645,0.247099 0.223645,0.461295 6.2e-5,0.399481 -0.433687,0.724563 -0.966322,0.724563 z"
     id="path94"
     sodipodi:nodetypes="ccsscsscscscscscscccssccccscscsccccccssccsscccsscccccccsccccscccccsc" />
  <path
     d="M0 0h24v24H0z"
     id="path2"
     fill="none" />
  <path
     inkscape:connector-curvature="0"
     d="M 19.31817,7.4135582 C 18.640742,3.9844086 15.622234,1.4100616 11.996051,1.4100616 c -2.8790445,0 -5.3795088,1.630059 -6.6247651,4.0155642 -2.9985514,0.3181846 -5.32969165,2.8526845 -5.32969165,5.9240202 0,3.289992 2.67979305,5.963741 5.97722345,5.963741 H 18.969483 c 2.749524,0 4.981038,-2.22647 4.981038,-4.969804 0,-2.624056 -2.042245,-4.7510999 -4.632351,-4.9300248 z M 18.969517,15.325454 H 6.0188622 c -2.2016182,0 -3.9848084,-1.779168 -3.9848084,-3.975808 0,-2.1966725 1.7831902,-3.9758441 3.9848084,-3.9758441 H 6.7261519 C 7.383669,5.0777592 9.4856499,3.3979602 11.996086,3.3979602 c 3.028458,0 5.479146,2.4451503 5.479146,5.4667673 v 0.496979 h 1.494285 c 1.653702,0 2.988611,1.3319395 2.988611,2.9818765 0,1.649983 -1.334909,2.981871 -2.988611,2.981871 z"
     id="path4-2"
     style="fill:#ffffff;stroke-width:0.99508083" />
  <path
     style="fill:none;stroke:#ffffff;stroke-width:1px;stroke-linecap:butt;stroke-linejoin:miter;stroke-opacity:1"
     d="m 7.9495618,12.067903 -1.3681905,1.298529 v 5.984345 H 2.9859131"
     id="path3626"
     inkscape:connector-curvature="0"
     sodipodi:nodetypes="cccc" />
  <path
     style="fill:none;stroke:#ffffff;stroke-width:1px;stroke-linecap:butt;stroke-linejoin:miter;stroke-opacity:1"
     d="m 10.176829,13.860631 v 7.095268"
     id="path3626-2"
     inkscape:connector-curvature="0"
     sodipodi:nodetypes="cc" />
  <path
     style="fill:none;stroke:#ffffff;stroke-width:1px;stroke-linecap:butt;stroke-linejoin:miter;stroke-opacity:1"
     d="m 13.772287,13.835207 v 6.859008"
     id="path3626-28"
     inkscape:connector-curvature="0"
     sodipodi:nodetypes="cc" />
  <path
     style="fill:none;stroke:#ffffff;stroke-width:1px;stroke-linecap:butt;stroke-linejoin:miter;stroke-opacity:1"
     d="m 15.962389,11.689632 1.500576,1.28119 v 6.379955 h 3.595458"
     id="path3626-0"
     inkscape:connector-curvature="0"
     sodipodi:nodetypes="cccc" />
  <circle
     style="opacity:1;fill:#ffffff;fill-opacity:0;stroke:#ffffff;stroke-width:0.60636425;stroke-miterlimit:4;stroke-dasharray:none;stroke-opacity:1;paint-order:stroke fill markers"
     id="path3655-4-4"
     cx="1.9015113"
     cy="19.32954"
     r="0.9000873" />
  <circle
     style="opacity:1;fill:#ffffff;fill-opacity:0;stroke:#ffffff;stroke-width:0.60636425;stroke-miterlimit:4;stroke-dasharray:none;stroke-opacity:1;paint-order:stroke fill markers"
     id="path3655-4-0"
     cx="22.14747"
     cy="19.32954"
     r="0.9000873" />
  <circle
     style="opacity:1;fill:#ffffff;fill-opacity:0;stroke:#ffffff;stroke-width:0.60636425;stroke-miterlimit:4;stroke-dasharray:none;stroke-opacity:1;paint-order:stroke fill markers"
     id="path3655-4-48"
     cx="10.19475"
     cy="21.789055"
     r="0.9000873" />
  <circle
     style="opacity:1;fill:#ffffff;fill-opacity:0;stroke:#ffffff;stroke-width:0.60636425;stroke-miterlimit:4;stroke-dasharray:none;stroke-opacity:1;paint-order:stroke fill markers"
     id="path3655-4-1"
     cx="13.771735"
     cy="21.789055"
     r="0.9000873" />
</svg>
