<svg xmlns="http://www.w3.org/2000/svg" xmlns:xlink="http://www.w3.org/1999/xlink" width="903" height="204" viewBox="0 0 903 204"><defs><style>.a,.aq,.az,.bc,.k,.m,.o{isolation:isolate;}.b{fill:#333c4e;}.c{fill:#904040;}.d{fill:#00a8d6;}.e{fill:red;}.f{fill:url(#a);}.g{fill:#4a7899;}.h{fill:url(#b);}.i{fill:url(#c);}.j{fill:url(#d);}.bc,.k,.m,.o{opacity:0.75;}.k{fill:url(#e);}.l{fill:url(#f);}.m{fill:url(#g);}.n{fill:url(#h);}.o{fill:url(#i);}.p{fill:url(#j);}.q{fill:#2b8bd3;}.r{fill:#2bc3d3;}.s{fill:#46c596;}.t{fill:#dfe82d;}.u{fill:#d16666;}.v{fill:#5b6b69;}.aq,.az,.w{fill:#fff;}.x{fill:#ccc;}.y{fill:#8b8b8b;}.z{fill:#9c9c9c;}.aa{fill:#636363;}.ab{fill:#e0e0e0;}.ac{fill:#f9f9f9;}.ad{fill:#bababa;}.ae{fill:#858585;}.af{fill:#8c8c8c;}.ag{fill:#666;}.ah{fill:#878787;}.ai{fill:#4a4a4a;}.aj{fill:#a6a6a6;}.ak{fill:#dbab83;}.al{fill:#cf4040;}.am{fill:#99bd7a;}.an{fill:#0d2a4a;}.ao{fill:#3d3d3d;}.ap{fill:#2d343d;}.aq{opacity:0.05;}.ar{fill:#e6c536;}.as,.bm{fill:none;stroke-miterlimit:10;}.as{stroke:#878787;stroke-linecap:round;stroke-width:0.78px;}.at{fill:#383c48;}.au{fill:#ccced0;}.av{fill:#c0d7ed;}.aw{fill:#acb4b9;}.ax{fill:#29abe2;}.ay{fill:#1a222b;}.az{opacity:0.5;}.ba{fill:#44454a;}.bb{fill:#4a5561;}.bd{fill:#adadad;}.be{fill:#3a495e;}.bf{fill:#42536b;}.bg{fill:#e6e6e6;}.bh{fill:#b52d2d;}.bi{fill:#6dcf40;}.bj{fill:#57a633;}.bk{fill:#9e9e9e;}.bl{fill:#7e8890;}.bm{stroke:#d7e0e9;}.bn{fill:#d7e0e9;}.bo{fill:#cbd1c6;}.bp{fill:#ab9990;}.bq{fill:#4d4d4f;}</style><linearGradient id="a" x1="-226.48" y1="482.49" x2="-225.48" y2="482.49" gradientTransform="matrix(51.11, 0, 0, -70, 11792.82, 33881)" gradientUnits="userSpaceOnUse"><stop offset="0.05" stop-color="#eeeff4"/><stop offset="0.1" stop-color="#c4c3c9"/><stop offset="0.35" stop-color="#d3d4d9"/><stop offset="0.59" stop-color="#a9aaaf"/><stop offset="0.6" stop-color="#aaacb1"/><stop offset="0.67" stop-color="#babdc4"/><stop offset="0.76" stop-color="#c3c8d0"/><stop offset="0.84" stop-color="#c7ccd4"/><stop offset="0.9" stop-color="#c9ced6"/><stop offset="0.94" stop-color="#d3d6de"/><stop offset="0.98" stop-color="#e2e5ea"/><stop offset="1" stop-color="#eeeff4"/></linearGradient><linearGradient id="b" x1="-227.12" y1="470.31" x2="-226.12" y2="470.31" gradientTransform="matrix(59.5, 0, 0, -17.36, 13727.27, 8249.2)" gradientUnits="userSpaceOnUse"><stop offset="0" stop-color="#5f5b6a"/><stop offset="0.18" stop-color="#100b21"/><stop offset="0.58" stop-color="#1f1a2e"/><stop offset="0.75" stop-color="#aca9b1"/><stop offset="0.82" stop-color="#5f5b6a"/></linearGradient><linearGradient id="c" x1="-227.12" y1="470.31" x2="-226.12" y2="470.31" gradientTransform="matrix(59.5, 0, 0, -17.36, 13727.27, 8270.75)" xlink:href="#b"/><linearGradient id="d" x1="-227.12" y1="470.31" x2="-226.12" y2="470.31" gradientTransform="matrix(59.5, 0, 0, -17.36, 13727.27, 8292.3)" xlink:href="#b"/><linearGradient id="e" x1="-227.11" y1="279.58" x2="-226.11" y2="279.58" gradientTransform="matrix(59.39, 0, 0, -1.36, 13701.92, 456.22)" xlink:href="#b"/><linearGradient id="f" x1="-227.12" y1="330.22" x2="-226.12" y2="330.22" gradientTransform="matrix(59.5, 0, 0, -1.8, 13727.5, 686.07)" xlink:href="#b"/><linearGradient id="g" x1="-227.12" y1="325.65" x2="-226.12" y2="325.65" gradientTransform="matrix(59.49, 0, 0, -1.75, 13725.88, 667.22)" xlink:href="#b"/><linearGradient id="h" x1="-227.12" y1="329.43" x2="-226.12" y2="329.43" gradientTransform="matrix(59.5, 0, 0, -1.79, 13727.5, 703.24)" xlink:href="#b"/><linearGradient id="i" x1="-227.11" y1="299.17" x2="-226.11" y2="299.17" gradientTransform="matrix(59.44, 0, 0, -1.5, 13714.59, 568.48)" xlink:href="#b"/><linearGradient id="j" x1="-227.12" y1="339.07" x2="-226.12" y2="339.07" gradientTransform="matrix(59.5, 0, 0, -1.91, 13727.5, 781.65)" xlink:href="#b"/></defs><title>aoi_flow</title><g class="a"><g class="a"><path class="b" d="M8.93,197.41H3.33L2.23,200H.08l5-11.2h2L12.23,200H10.05Zm-.69-1.63-2.11-4.9L4,195.77Z"/><path class="b" d="M12.69,194.4a5.74,5.74,0,0,1,6-5.76,5.77,5.77,0,1,1,0,11.52A5.74,5.74,0,0,1,12.69,194.4Zm10,0a3.82,3.82,0,0,0-3.94-3.94,3.94,3.94,0,1,0,0,7.88A3.82,3.82,0,0,0,22.66,194.4Z"/><path class="b" d="M27,188.8H29V200H27Z"/><path class="b" d="M46.77,200l0-7.43-3.68,6.15h-.93l-3.68-6.05V200h-2V188.8h1.71l4.45,7.43L47,188.8h1.71l0,11.2Z"/><path class="b" d="M58.72,195v5H56.83v-1a3,3,0,0,1-2.69,1.15c-2,0-3.19-1.07-3.19-2.56s1-2.54,3.55-2.54h2.21v-.13c0-1.17-.7-1.86-2.13-1.86a4.24,4.24,0,0,0-2.59.85l-.78-1.46a6,6,0,0,1,3.62-1.06C57.3,191.36,58.72,192.53,58.72,195Zm-2,2.34v-1H54.66c-1.36,0-1.73.51-1.73,1.14s.61,1.18,1.63,1.18A2.18,2.18,0,0,0,56.72,197.33Z"/><path class="b" d="M60.66,195.73a4.32,4.32,0,0,1,4.63-4.37,3.85,3.85,0,0,1,3.65,2l-1.54.9a2.42,2.42,0,0,0-2.13-1.18,2.67,2.67,0,0,0,0,5.35,2.42,2.42,0,0,0,2.13-1.18l1.54.9a3.89,3.89,0,0,1-3.65,2A4.34,4.34,0,0,1,60.66,195.73Z"/><path class="b" d="M79,195.1V200H77v-4.64c0-1.52-.75-2.26-2-2.26a2.27,2.27,0,0,0-2.38,2.58V200h-2V188.12h2v4.32a3.81,3.81,0,0,1,2.85-1.09C77.47,191.36,79,192.53,79,195.1Z"/><path class="b" d="M81.26,188.84a1.22,1.22,0,0,1,1.28-1.2,1.19,1.19,0,0,1,1.28,1.15,1.28,1.28,0,0,1-2.56,0Zm.27,2.61h2V200h-2Z"/><path class="b" d="M94.58,195.1V200h-2v-4.64c0-1.52-.75-2.26-2-2.26a2.27,2.27,0,0,0-2.38,2.58V200h-2v-8.55h1.9v1.1a3.72,3.72,0,0,1,2.95-1.2C93.06,191.36,94.58,192.53,94.58,195.1Z"/><path class="b" d="M105.2,196.37H98.5a2.59,2.59,0,0,0,2.77,2,3.06,3.06,0,0,0,2.32-.93l1.07,1.23a4.33,4.33,0,0,1-3.44,1.39c-2.87,0-4.72-1.84-4.72-4.39a4.25,4.25,0,0,1,4.42-4.37,4.17,4.17,0,0,1,4.32,4.42C105.23,195.93,105.22,196.17,105.2,196.37ZM98.48,195h4.85a2.33,2.33,0,0,0-2.42-2.08A2.36,2.36,0,0,0,98.48,195Z"/></g></g><g class="a"><g class="a"><path class="b" d="M183.55,188.8h4.9c3.63,0,6.11,2.24,6.11,5.6s-2.48,5.6-6.11,5.6h-4.9Zm4.8,9.44c2.5,0,4.11-1.52,4.11-3.84s-1.62-3.84-4.11-3.84h-2.72v7.68Z"/><path class="b" d="M204.58,196.37h-6.71a2.59,2.59,0,0,0,2.77,2,3.06,3.06,0,0,0,2.32-.93l1.07,1.23a4.33,4.33,0,0,1-3.44,1.39c-2.87,0-4.72-1.84-4.72-4.39a4.25,4.25,0,0,1,4.42-4.37,4.17,4.17,0,0,1,4.32,4.42C204.61,195.93,204.6,196.17,204.58,196.37ZM197.86,195h4.85a2.33,2.33,0,0,0-2.42-2.08A2.36,2.36,0,0,0,197.86,195Z"/><path class="b" d="M208.74,191v.51h2.35v1.6H208.8V200h-2v-6.88h-1.41v-1.6h1.41V191a2.76,2.76,0,0,1,3.06-3,3.2,3.2,0,0,1,1.81.46l-.56,1.5a2,2,0,0,0-1.1-.35C209.17,189.63,208.74,190.09,208.74,191Z"/><path class="b" d="M220.31,196.37H213.6a2.59,2.59,0,0,0,2.77,2,3.06,3.06,0,0,0,2.32-.93l1.07,1.23a4.33,4.33,0,0,1-3.44,1.39c-2.87,0-4.72-1.84-4.72-4.39a4.25,4.25,0,0,1,4.42-4.37,4.17,4.17,0,0,1,4.32,4.42C220.34,195.93,220.32,196.17,220.31,196.37ZM213.58,195h4.85A2.33,2.33,0,0,0,216,193,2.36,2.36,0,0,0,213.58,195Z"/><path class="b" d="M221.55,195.73a4.32,4.32,0,0,1,4.63-4.37,3.85,3.85,0,0,1,3.65,2l-1.54.9a2.42,2.42,0,0,0-2.13-1.18,2.67,2.67,0,0,0,0,5.35,2.42,2.42,0,0,0,2.13-1.18l1.54.9a3.89,3.89,0,0,1-3.65,2A4.34,4.34,0,0,1,221.55,195.73Z"/><path class="b" d="M236.8,199.54a3.15,3.15,0,0,1-1.92.58,2.63,2.63,0,0,1-2.95-2.88v-4.11h-1.41v-1.6h1.41v-2h2v2h2.29v1.6h-2.29v4.07c0,.83.42,1.28,1.18,1.28a1.8,1.8,0,0,0,1.12-.35Z"/><path class="b" d="M243.06,188.8H248c3.63,0,6.11,2.24,6.11,5.6S251.59,200,248,200h-4.9Zm4.8,9.44c2.5,0,4.11-1.52,4.11-3.84s-1.62-3.84-4.11-3.84h-2.72v7.68Z"/><path class="b" d="M263.23,195v5h-1.89v-1a3,3,0,0,1-2.69,1.15c-2,0-3.19-1.07-3.19-2.56s1-2.54,3.55-2.54h2.21v-.13c0-1.17-.7-1.86-2.13-1.86a4.24,4.24,0,0,0-2.59.85l-.78-1.46a6,6,0,0,1,3.62-1.06C261.81,191.36,263.23,192.53,263.23,195Zm-2,2.34v-1h-2.06c-1.36,0-1.73.51-1.73,1.14s.61,1.18,1.63,1.18A2.18,2.18,0,0,0,261.23,197.33Z"/><path class="b" d="M270.93,199.54a3.15,3.15,0,0,1-1.92.58,2.63,2.63,0,0,1-2.95-2.88v-4.11h-1.41v-1.6h1.41v-2h2v2h2.29v1.6h-2.29v4.07c0,.83.42,1.28,1.18,1.28a1.8,1.8,0,0,0,1.12-.35Z"/><path class="b" d="M279.73,195v5h-1.89v-1a3,3,0,0,1-2.69,1.15c-2,0-3.19-1.07-3.19-2.56s1-2.54,3.55-2.54h2.21v-.13c0-1.17-.7-1.86-2.13-1.86a4.24,4.24,0,0,0-2.59.85l-.78-1.46a6,6,0,0,1,3.62-1.06C278.31,191.36,279.73,192.53,279.73,195Zm-2,2.34v-1h-2.06c-1.36,0-1.73.51-1.73,1.14s.61,1.18,1.63,1.18A2.18,2.18,0,0,0,277.73,197.33Z"/><path class="b" d="M281.31,199.15l.77-1.52a5.75,5.75,0,0,0,3,.85c1.26,0,1.79-.35,1.79-.94,0-1.63-5.28-.1-5.28-3.51,0-1.62,1.46-2.67,3.76-2.67a6.81,6.81,0,0,1,3.2.74l-.77,1.52a4.67,4.67,0,0,0-2.45-.64c-1.22,0-1.79.4-1.79,1,0,1.73,5.28.19,5.28,3.54,0,1.6-1.47,2.64-3.87,2.64A6.79,6.79,0,0,1,281.31,199.15Z"/><path class="b" d="M298.53,196.37h-6.71a2.59,2.59,0,0,0,2.77,2,3.06,3.06,0,0,0,2.32-.93l1.07,1.23a4.33,4.33,0,0,1-3.44,1.39c-2.87,0-4.72-1.84-4.72-4.39a4.25,4.25,0,0,1,4.42-4.37,4.17,4.17,0,0,1,4.32,4.42C298.56,195.93,298.55,196.17,298.53,196.37ZM291.81,195h4.85a2.33,2.33,0,0,0-2.42-2.08A2.36,2.36,0,0,0,291.81,195Z"/><path class="b" d="M305.62,199.54a3.15,3.15,0,0,1-1.92.58,2.63,2.63,0,0,1-2.95-2.88v-4.11h-1.41v-1.6h1.41v-2h2v2H305v1.6h-2.29v4.07c0,.83.42,1.28,1.18,1.28a1.8,1.8,0,0,0,1.12-.35Z"/></g></g><g class="a"><g class="a"><path class="c" d="M384,188.8h4.9c3.63,0,6.11,2.24,6.11,5.6s-2.48,5.6-6.11,5.6H384Zm4.8,9.44c2.5,0,4.11-1.52,4.11-3.84s-1.62-3.84-4.11-3.84h-2.72v7.68Z"/><path class="c" d="M405,196.37H398.3a2.59,2.59,0,0,0,2.77,2,3.06,3.06,0,0,0,2.32-.93l1.07,1.23a4.33,4.33,0,0,1-3.44,1.39c-2.87,0-4.72-1.84-4.72-4.39a4.25,4.25,0,0,1,4.42-4.37,4.17,4.17,0,0,1,4.32,4.42C405,195.93,405,196.17,405,196.37ZM398.28,195h4.85a2.33,2.33,0,0,0-2.42-2.08A2.36,2.36,0,0,0,398.28,195Z"/><path class="c" d="M409.16,191v.51h2.35v1.6h-2.29V200h-2v-6.88h-1.41v-1.6h1.41V191a2.76,2.76,0,0,1,3.06-3,3.2,3.2,0,0,1,1.81.46l-.56,1.5a2,2,0,0,0-1.1-.35C409.59,189.63,409.16,190.09,409.16,191Z"/><path class="c" d="M420.73,196.37H414a2.59,2.59,0,0,0,2.77,2,3.06,3.06,0,0,0,2.32-.93l1.07,1.23a4.33,4.33,0,0,1-3.44,1.39c-2.87,0-4.72-1.84-4.72-4.39a4.25,4.25,0,0,1,4.42-4.37,4.17,4.17,0,0,1,4.32,4.42C420.76,195.93,420.75,196.17,420.73,196.37ZM414,195h4.85a2.33,2.33,0,0,0-2.42-2.08A2.36,2.36,0,0,0,414,195Z"/><path class="c" d="M422,195.73a4.32,4.32,0,0,1,4.63-4.37,3.85,3.85,0,0,1,3.65,2l-1.54.9a2.42,2.42,0,0,0-2.13-1.18,2.67,2.67,0,0,0,0,5.35,2.42,2.42,0,0,0,2.13-1.18l1.54.9a3.89,3.89,0,0,1-3.65,2A4.34,4.34,0,0,1,422,195.73Z"/><path class="c" d="M437.23,199.54a3.15,3.15,0,0,1-1.92.58,2.63,2.63,0,0,1-2.95-2.88v-4.11H431v-1.6h1.41v-2h2v2h2.29v1.6h-2.29v4.07c0,.83.42,1.28,1.18,1.28a1.8,1.8,0,0,0,1.12-.35Z"/><path class="c" d="M442.68,194.4a6.06,6.06,0,0,1,10.44-3.89l-1.34,1.26a3.94,3.94,0,0,0-3-1.31,3.94,3.94,0,1,0,0,7.88,3.89,3.89,0,0,0,3-1.33l1.34,1.28a6.06,6.06,0,0,1-10.44-3.89Z"/><path class="c" d="M454.92,188.12h2V200h-2Z"/><path class="c" d="M466.7,195v5h-1.89v-1a3,3,0,0,1-2.69,1.15c-2,0-3.19-1.07-3.19-2.56s1-2.54,3.55-2.54h2.21v-.13c0-1.17-.7-1.86-2.13-1.86a4.24,4.24,0,0,0-2.59.85l-.78-1.46a6,6,0,0,1,3.62-1.06C465.27,191.36,466.7,192.53,466.7,195Zm-2,2.34v-1h-2.06c-1.36,0-1.73.51-1.73,1.14s.61,1.18,1.63,1.18A2.18,2.18,0,0,0,464.7,197.33Z"/><path class="c" d="M468.28,199.15l.77-1.52a5.76,5.76,0,0,0,3,.85c1.26,0,1.79-.35,1.79-.94,0-1.63-5.28-.1-5.28-3.51,0-1.62,1.46-2.67,3.76-2.67a6.81,6.81,0,0,1,3.2.74l-.77,1.52a4.68,4.68,0,0,0-2.45-.64c-1.22,0-1.79.4-1.79,1,0,1.73,5.28.19,5.28,3.54,0,1.6-1.47,2.64-3.87,2.64A6.79,6.79,0,0,1,468.28,199.15Z"/><path class="c" d="M476.52,199.15l.77-1.52a5.75,5.75,0,0,0,3,.85c1.26,0,1.79-.35,1.79-.94,0-1.63-5.28-.1-5.28-3.51,0-1.62,1.46-2.67,3.76-2.67a6.81,6.81,0,0,1,3.2.74l-.77,1.52a4.67,4.67,0,0,0-2.45-.64c-1.22,0-1.79.4-1.79,1,0,1.73,5.28.19,5.28,3.54,0,1.6-1.47,2.64-3.87,2.64A6.78,6.78,0,0,1,476.52,199.15Z"/><path class="c" d="M485.46,188.84a1.22,1.22,0,0,1,1.28-1.2A1.19,1.19,0,0,1,488,188.8a1.28,1.28,0,0,1-2.56,0Zm.27,2.61h2V200h-2Z"/><path class="c" d="M493.69,188a3.2,3.2,0,0,1,1.81.46l-.56,1.5a2,2,0,0,0-1.1-.35c-.83,0-1.26.46-1.26,1.38v.51h2.35v1.6h-2.29V200h-2v-6.88h-1.41v-1.6h1.41V191A2.76,2.76,0,0,1,493.69,188Zm3.58.83a1.22,1.22,0,0,1,1.28-1.2,1.19,1.19,0,0,1,1.28,1.15,1.28,1.28,0,0,1-2.56,0Zm.27,2.61h2V200h-2Z"/><path class="c" d="M510.17,196.37h-6.71a2.59,2.59,0,0,0,2.77,2,3.06,3.06,0,0,0,2.32-.93l1.07,1.23a4.33,4.33,0,0,1-3.44,1.39c-2.87,0-4.72-1.84-4.72-4.39a4.25,4.25,0,0,1,4.42-4.37,4.17,4.17,0,0,1,4.32,4.42C510.2,195.93,510.19,196.17,510.17,196.37ZM503.45,195h4.85a2.33,2.33,0,0,0-2.42-2.08A2.36,2.36,0,0,0,503.45,195Z"/><path class="c" d="M517.06,191.36v1.91a2.53,2.53,0,0,0-.46,0,2.33,2.33,0,0,0-2.48,2.64V200h-2v-8.55H514v1.25A3.36,3.36,0,0,1,517.06,191.36Z"/></g></g><g class="a"><g class="a"><path class="c" d="M603.47,195.31l-1.78,1.82V200h-2.08V188.8h2.08v5.75l5.54-5.75h2.34l-4.71,5,5,6.19h-2.43Z"/><path class="c" d="M610.65,188.84a1.22,1.22,0,0,1,1.28-1.2,1.19,1.19,0,0,1,1.28,1.15,1.28,1.28,0,0,1-2.56,0Zm.27,2.61h2V200h-2Z"/><path class="c" d="M615.54,188.12h2V200h-2Z"/><path class="c" d="M620.17,188.12h2V200h-2Z"/><path class="c" d="M632.79,196.37h-6.71a2.59,2.59,0,0,0,2.77,2,3.06,3.06,0,0,0,2.32-.93l1.07,1.23a4.33,4.33,0,0,1-3.44,1.39c-2.87,0-4.72-1.84-4.72-4.39a4.25,4.25,0,0,1,4.42-4.37,4.17,4.17,0,0,1,4.32,4.42C632.83,195.93,632.81,196.17,632.79,196.37ZM626.07,195h4.85A2.33,2.33,0,0,0,628.5,193,2.36,2.36,0,0,0,626.07,195Z"/><path class="c" d="M639.69,191.36v1.91a2.53,2.53,0,0,0-.46,0,2.33,2.33,0,0,0-2.48,2.64V200h-2v-8.55h1.9v1.25A3.36,3.36,0,0,1,639.69,191.36Z"/><path class="c" d="M646.07,188.8H651c3.63,0,6.12,2.24,6.12,5.6S654.6,200,651,200h-4.9Zm4.8,9.44c2.5,0,4.11-1.52,4.11-3.84s-1.62-3.84-4.11-3.84h-2.72v7.68Z"/><path class="c" d="M667.1,196.37h-6.71a2.59,2.59,0,0,0,2.77,2,3.07,3.07,0,0,0,2.32-.93l1.07,1.23a4.33,4.33,0,0,1-3.44,1.39c-2.87,0-4.72-1.84-4.72-4.39a4.25,4.25,0,0,1,4.42-4.37,4.17,4.17,0,0,1,4.32,4.42C667.13,195.93,667.11,196.17,667.1,196.37ZM660.38,195h4.85a2.33,2.33,0,0,0-2.42-2.08A2.36,2.36,0,0,0,660.38,195Z"/><path class="c" d="M671.26,191v.51h2.35v1.6h-2.29V200h-2v-6.88h-1.41v-1.6h1.41V191a2.76,2.76,0,0,1,3.06-3,3.2,3.2,0,0,1,1.81.46l-.56,1.5a2,2,0,0,0-1.1-.35C671.69,189.63,671.26,190.09,671.26,191Z"/><path class="c" d="M682.83,196.37h-6.71a2.59,2.59,0,0,0,2.77,2,3.06,3.06,0,0,0,2.32-.93l1.07,1.23a4.33,4.33,0,0,1-3.44,1.39c-2.87,0-4.72-1.84-4.72-4.39a4.25,4.25,0,0,1,4.42-4.37,4.17,4.17,0,0,1,4.32,4.42C682.86,195.93,682.84,196.17,682.83,196.37ZM676.1,195H681a2.33,2.33,0,0,0-2.42-2.08A2.36,2.36,0,0,0,676.1,195Z"/><path class="c" d="M684.07,195.73a4.33,4.33,0,0,1,4.63-4.37,3.85,3.85,0,0,1,3.65,2l-1.54.9a2.42,2.42,0,0,0-2.13-1.18,2.67,2.67,0,0,0,0,5.35,2.42,2.42,0,0,0,2.13-1.18l1.54.9a3.89,3.89,0,0,1-3.65,2A4.34,4.34,0,0,1,684.07,195.73Z"/><path class="c" d="M699.32,199.54a3.15,3.15,0,0,1-1.92.58,2.63,2.63,0,0,1-2.95-2.88v-4.11H693v-1.6h1.41v-2h2v2h2.29v1.6h-2.29v4.07c0,.83.42,1.28,1.19,1.28a1.79,1.79,0,0,0,1.12-.35Z"/><path class="c" d="M700,199.15l.77-1.52a5.76,5.76,0,0,0,3,.85c1.26,0,1.79-.35,1.79-.94,0-1.63-5.28-.1-5.28-3.51,0-1.62,1.46-2.67,3.76-2.67a6.81,6.81,0,0,1,3.2.74l-.77,1.52A4.67,4.67,0,0,0,704,193c-1.22,0-1.79.4-1.79,1,0,1.73,5.28.19,5.28,3.54,0,1.6-1.47,2.64-3.87,2.64A6.78,6.78,0,0,1,700,199.15Z"/></g></g><g class="a"><g class="a"><path class="c" d="M794.22,200l-2.29-3.28a4,4,0,0,1-.43,0H789V200h-2.08V188.8h4.61c2.95,0,4.77,1.5,4.77,4a3.58,3.58,0,0,1-2.38,3.54l2.58,3.68Zm-2.82-9.44H789V195h2.43c1.83,0,2.77-.83,2.77-2.24S793.23,190.56,791.4,190.56Z"/><path class="c" d="M806.4,196.37h-6.71a2.59,2.59,0,0,0,2.77,2,3.07,3.07,0,0,0,2.32-.93l1.07,1.23a4.33,4.33,0,0,1-3.44,1.39c-2.87,0-4.72-1.84-4.72-4.39a4.25,4.25,0,0,1,4.42-4.37,4.17,4.17,0,0,1,4.32,4.42C806.43,195.93,806.41,196.17,806.4,196.37ZM799.67,195h4.85a2.33,2.33,0,0,0-2.42-2.08A2.36,2.36,0,0,0,799.67,195Z"/><path class="c" d="M817.42,195.73a4.16,4.16,0,0,1-4.34,4.39,3.51,3.51,0,0,1-2.74-1.15v4.15h-2V191.45h1.91v1.12a3.52,3.52,0,0,1,2.83-1.22A4.16,4.16,0,0,1,817.42,195.73Zm-2,0a2.54,2.54,0,1,0-2.53,2.67A2.49,2.49,0,0,0,815.39,195.73Z"/><path class="c" d="M826.36,195v5h-1.89v-1a3,3,0,0,1-2.69,1.15c-2,0-3.19-1.07-3.19-2.56s1-2.54,3.55-2.54h2.21v-.13c0-1.17-.7-1.86-2.13-1.86a4.24,4.24,0,0,0-2.59.85l-.78-1.46a6,6,0,0,1,3.62-1.06C824.94,191.36,826.36,192.53,826.36,195Zm-2,2.34v-1H822.3c-1.36,0-1.73.51-1.73,1.14s.61,1.18,1.63,1.18A2.18,2.18,0,0,0,824.36,197.33Z"/><path class="c" d="M828.65,188.84a1.22,1.22,0,0,1,1.28-1.2,1.19,1.19,0,0,1,1.28,1.15,1.28,1.28,0,0,1-2.56,0Zm.27,2.61h2V200h-2Z"/><path class="c" d="M838.49,191.36v1.91a2.53,2.53,0,0,0-.46,0,2.33,2.33,0,0,0-2.48,2.64V200h-2v-8.55h1.91v1.25A3.36,3.36,0,0,1,838.49,191.36Z"/><path class="c" d="M843.93,198.82l.72-1.62a6.21,6.21,0,0,0,3.7,1.23c1.74,0,2.48-.62,2.48-1.46,0-2.42-6.66-.83-6.66-5,0-1.81,1.44-3.34,4.51-3.34a7.08,7.08,0,0,1,3.73,1l-.66,1.62a6.23,6.23,0,0,0-3.09-.88c-1.73,0-2.43.67-2.43,1.52,0,2.38,6.64.83,6.64,4.95,0,1.79-1.46,3.33-4.53,3.33A7.22,7.22,0,0,1,843.93,198.82Z"/><path class="c" d="M859.88,199.54a3.15,3.15,0,0,1-1.92.58,2.63,2.63,0,0,1-2.95-2.88v-4.11h-1.41v-1.6H855v-2h2v2h2.29v1.6H857v4.07c0,.83.42,1.28,1.18,1.28a1.8,1.8,0,0,0,1.12-.35Z"/><path class="c" d="M868.68,195v5h-1.89v-1a3,3,0,0,1-2.69,1.15c-2,0-3.19-1.07-3.19-2.56s1-2.54,3.55-2.54h2.21v-.13c0-1.17-.7-1.86-2.13-1.86a4.24,4.24,0,0,0-2.59.85l-.78-1.46a6,6,0,0,1,3.62-1.06C867.26,191.36,868.68,192.53,868.68,195Zm-2,2.34v-1h-2.06c-1.36,0-1.73.51-1.73,1.14s.61,1.18,1.63,1.18A2.18,2.18,0,0,0,866.68,197.33Z"/><path class="c" d="M876.38,199.54a3.15,3.15,0,0,1-1.92.58,2.63,2.63,0,0,1-2.95-2.88v-4.11H870.1v-1.6h1.41v-2h2v2h2.29v1.6h-2.29v4.07c0,.83.42,1.28,1.18,1.28a1.8,1.8,0,0,0,1.12-.35Z"/><path class="c" d="M877.75,188.84a1.22,1.22,0,0,1,1.28-1.2,1.19,1.19,0,0,1,1.28,1.15,1.28,1.28,0,0,1-2.56,0Zm.27,2.61h2V200h-2Z"/><path class="c" d="M881.94,195.73a4.56,4.56,0,1,1,4.55,4.39A4.3,4.3,0,0,1,881.94,195.73Zm7.09,0a2.54,2.54,0,1,0-2.54,2.67A2.49,2.49,0,0,0,889,195.73Z"/><path class="c" d="M901.39,195.1V200h-2v-4.64c0-1.52-.75-2.26-2-2.26a2.27,2.27,0,0,0-2.38,2.58V200h-2v-8.55h1.91v1.1a3.72,3.72,0,0,1,2.95-1.2C899.87,191.36,901.39,192.53,901.39,195.1Z"/></g></g><g class="a"><g class="a"><path class="b" d="M609.74,3.8h4.9c3.63,0,6.11,2.24,6.11,5.6s-2.48,5.6-6.11,5.6h-4.9Zm4.8,9.44c2.5,0,4.11-1.52,4.11-3.84S617,5.56,614.54,5.56h-2.72v7.68Z"/><path class="b" d="M622.06,10.73a4.56,4.56,0,0,1,9.11,0,4.56,4.56,0,0,1-9.11,0Zm7.09,0a2.54,2.54,0,1,0-5.07,0,2.54,2.54,0,1,0,5.07,0Z"/><path class="b" d="M641.5,10.1V15h-2V10.36c0-1.52-.75-2.26-2-2.26a2.27,2.27,0,0,0-2.38,2.58V15h-2V6.45H635v1.1a3.72,3.72,0,0,1,2.95-1.2C640,6.36,641.5,7.53,641.5,10.1Z"/><path class="b" d="M645.91,4.32a3.44,3.44,0,0,1-.35,1.38L644.73,8h-1.3l.64-2.47a1.2,1.2,0,0,1-.75-1.18,1.3,1.3,0,1,1,2.59,0Z"/><path class="b" d="M653.08,14.54a3.15,3.15,0,0,1-1.92.58,2.63,2.63,0,0,1-2.95-2.88V8.12h-1.41V6.52h1.41v-2h2v2h2.29v1.6h-2.29v4.07c0,.83.42,1.28,1.18,1.28a1.8,1.8,0,0,0,1.12-.35Z"/><path class="b" d="M667.56,10.1V15h-2V10.36c0-1.52-.75-2.26-2-2.26a2.27,2.27,0,0,0-2.38,2.58V15h-2V6.45H661v1.1A3.72,3.72,0,0,1,664,6.36C666,6.36,667.56,7.53,667.56,10.1Z"/><path class="b" d="M678.19,11.37h-6.71a2.59,2.59,0,0,0,2.77,2,3.07,3.07,0,0,0,2.32-.93l1.07,1.23a4.33,4.33,0,0,1-3.44,1.39c-2.87,0-4.72-1.84-4.72-4.39a4.25,4.25,0,0,1,4.42-4.37,4.17,4.17,0,0,1,4.32,4.42C678.22,10.93,678.2,11.17,678.19,11.37ZM671.46,10h4.85A2.33,2.33,0,0,0,673.9,8,2.36,2.36,0,0,0,671.46,10Z"/><path class="b" d="M688.14,11.37h-6.71a2.59,2.59,0,0,0,2.77,2,3.07,3.07,0,0,0,2.32-.93l1.07,1.23a4.33,4.33,0,0,1-3.44,1.39c-2.87,0-4.72-1.84-4.72-4.39a4.25,4.25,0,0,1,4.42-4.37,4.17,4.17,0,0,1,4.32,4.42C688.17,10.93,688.15,11.17,688.14,11.37ZM681.42,10h4.85A2.33,2.33,0,0,0,683.85,8,2.36,2.36,0,0,0,681.42,10Z"/><path class="b" d="M698.46,3.12V15h-1.92V13.9a3.52,3.52,0,0,1-2.83,1.22,4.16,4.16,0,0,1-4.32-4.39,4.15,4.15,0,0,1,4.32-4.37,3.5,3.5,0,0,1,2.75,1.15V3.12Zm-2,7.6a2.55,2.55,0,1,0-5.09,0,2.55,2.55,0,1,0,5.09,0Z"/></g><g class="a"><path class="b" d="M625.62,30.54a3.15,3.15,0,0,1-1.92.58,2.63,2.63,0,0,1-2.95-2.88V24.12h-1.41v-1.6h1.41v-2h2v2H625v1.6h-2.29v4.07c0,.83.42,1.28,1.18,1.28a1.8,1.8,0,0,0,1.12-.35Z"/><path class="b" d="M626.27,26.73a4.56,4.56,0,1,1,4.55,4.39A4.3,4.3,0,0,1,626.27,26.73Zm7.09,0a2.54,2.54,0,1,0-5.07,0,2.54,2.54,0,1,0,5.07,0Z"/><path class="b" d="M646.66,22.36v1.91a2.53,2.53,0,0,0-.46,0,2.33,2.33,0,0,0-2.48,2.64V31h-2V22.45h1.91V23.7A3.36,3.36,0,0,1,646.66,22.36Z"/><path class="b" d="M656.28,27.37h-6.71a2.59,2.59,0,0,0,2.77,2,3.06,3.06,0,0,0,2.32-.93l1.07,1.23a4.33,4.33,0,0,1-3.44,1.39c-2.87,0-4.72-1.84-4.72-4.39A4.25,4.25,0,0,1,652,22.36a4.17,4.17,0,0,1,4.32,4.42C656.31,26.93,656.29,27.17,656.28,27.37ZM649.55,26h4.85A2.33,2.33,0,0,0,652,24,2.36,2.36,0,0,0,649.55,26Z"/><path class="b" d="M667.3,26.73A4.16,4.16,0,0,1,663,31.11,3.51,3.51,0,0,1,660.22,30v4.15h-2V22.45h1.9v1.12A3.52,3.52,0,0,1,663,22.36,4.16,4.16,0,0,1,667.3,26.73Zm-2,0a2.54,2.54,0,1,0-5.07,0,2.54,2.54,0,1,0,5.07,0Z"/><path class="b" d="M676.24,26v5h-1.89V30a3,3,0,0,1-2.69,1.15c-2,0-3.19-1.07-3.19-2.56S669.44,26,672,26h2.21v-.13c0-1.17-.71-1.86-2.13-1.86a4.24,4.24,0,0,0-2.59.85l-.78-1.46a6,6,0,0,1,3.62-1.06C674.82,22.36,676.24,23.53,676.24,26Zm-2,2.34v-1h-2.06c-1.36,0-1.73.51-1.73,1.14s.61,1.18,1.63,1.18A2.18,2.18,0,0,0,674.24,28.33Z"/><path class="b" d="M678.53,19.84a1.22,1.22,0,0,1,1.28-1.2,1.19,1.19,0,0,1,1.28,1.15,1.28,1.28,0,0,1-2.56,0Zm.27,2.61h2V31h-2Z"/><path class="b" d="M688.37,22.36v1.91a2.52,2.52,0,0,0-.46,0,2.33,2.33,0,0,0-2.48,2.64V31h-2V22.45h1.9V23.7A3.36,3.36,0,0,1,688.37,22.36Z"/></g></g><path class="d" d="M144,99l-1.45,1.45L148,106H136V108H148l-5.51,5.51L144,115l8-8Z"/><path class="d" d="M344,99l-1.45,1.45,5.51,5.51H336V108h12.05l-5.51,5.51L344,115l8-8Z"/><path class="d" d="M555.72,82.07l-1,1.78,6.75,3.9L549.8,90.87l.54,2L562,89.76l-3.9,6.75,1.78,1,5.66-9.8Z"/><path class="e" d="M559.86,126.87l-1.78,1,3.9,6.75-11.64-3.12-.54,2,11.64,3.12-6.75,3.9,1,1.78,9.8-5.66Z"/><path class="e" d="M743.92,127.07l-1,1.78,6.75,3.9L738,135.87l.54,2,11.64-3.12-3.9,6.75,1.78,1,5.66-9.8Z"/><rect class="f" x="218.11" y="72" width="51.11" height="70"/><rect class="g" x="218.11" y="82.48" width="51.11" height="59.52"/><rect class="h" x="214" y="75.88" width="59.5" height="17.36" rx="1.57" ry="1.57"/><rect class="i" x="214" y="97.43" width="59.5" height="17.36" rx="1.57" ry="1.57"/><rect class="j" x="214" y="118.98" width="59.5" height="17.36" rx="1.57" ry="1.57"/><path class="k" d="M273.45,77.24a1.77,1.77,0,0,0-1.72-1.36H215.78a1.77,1.77,0,0,0-1.72,1.36Z"/><path class="l" d="M214,91.44v0a1.78,1.78,0,0,0,1.78,1.78h55.95a1.78,1.78,0,0,0,1.78-1.77v0Z"/><path class="m" d="M273.5,99.17a1.77,1.77,0,0,0-1.77-1.75H215.78A1.77,1.77,0,0,0,214,99.17Z"/><path class="n" d="M214,113h0a1.78,1.78,0,0,0,1.78,1.78h55.95A1.78,1.78,0,0,0,273.5,113H214Z"/><path class="o" d="M273.47,120.48a1.77,1.77,0,0,0-1.75-1.5H215.78a1.77,1.77,0,0,0-1.75,1.5Z"/><path class="p" d="M214,134.43v.13a1.78,1.78,0,0,0,1.78,1.78h55.95a1.78,1.78,0,0,0,1.78-1.78v-.13Z"/><path class="q" d="M259.37,82.91a2.15,2.15,0,1,1-2.15-2.15A2.15,2.15,0,0,1,259.37,82.91Z"/><path class="r" d="M265.72,82.91a2.15,2.15,0,1,1-2.15-2.15h0A2.15,2.15,0,0,1,265.72,82.91Z"/><path class="q" d="M259.37,104a2.15,2.15,0,1,1-2.15-2.15A2.15,2.15,0,0,1,259.37,104Z"/><path class="r" d="M265.72,104a2.15,2.15,0,1,1-2.15-2.15,2.15,2.15,0,0,1,2.15,2.15Z"/><path class="q" d="M259.37,125.08a2.15,2.15,0,1,1-2.15-2.15,2.15,2.15,0,0,1,2.15,2.15Z"/><path class="r" d="M265.72,125.08a2.15,2.15,0,1,1-2.15-2.15,2.15,2.15,0,0,1,2.15,2.15Z"/><rect class="s" x="614" y="45" width="80" height="50" rx="0.63" ry="0.63"/><rect class="t" x="626.91" y="53.94" width="54.39" height="11.34"/><rect class="u" x="629.03" y="56.05" width="6.61" height="7.12"/><rect class="u" x="639.86" y="56.05" width="6.61" height="7.12"/><rect class="u" x="650.7" y="56.05" width="6.61" height="7.12"/><rect class="u" x="661.53" y="56.05" width="6.61" height="7.12"/><rect class="u" x="672.37" y="56.05" width="6.61" height="7.12"/><rect class="v" x="659.19" y="71.94" width="20.01" height="10.85"/><rect class="w" x="660.86" y="69.07" width="1.78" height="2.87"/><rect class="w" x="664.58" y="69.07" width="1.78" height="2.87"/><rect class="w" x="672.03" y="69.07" width="1.78" height="2.87"/><rect class="w" x="668.3" y="69.07" width="1.78" height="2.87"/><rect class="w" x="675.75" y="69.07" width="1.78" height="2.87"/><rect class="w" x="660.86" y="82.78" width="1.78" height="2.87"/><rect class="w" x="664.58" y="82.78" width="1.78" height="2.87"/><rect class="w" x="672.03" y="82.78" width="1.78" height="2.87"/><rect class="w" x="668.3" y="82.78" width="1.78" height="2.87"/><rect class="w" x="675.75" y="82.78" width="1.78" height="2.87"/><rect class="w" x="655.9" y="73.29" width="3.25" height="1.57"/><rect class="w" x="655.9" y="79.86" width="3.25" height="1.57"/><rect class="w" x="655.9" y="76.57" width="3.25" height="1.57"/><rect class="w" x="679.2" y="73.29" width="3.25" height="1.57"/><rect class="w" x="679.2" y="79.86" width="3.25" height="1.57"/><rect class="w" x="679.2" y="76.57" width="3.25" height="1.57"/><rect class="v" x="628.83" y="71.94" width="20.01" height="10.85"/><rect class="w" x="630.5" y="69.07" width="1.78" height="2.87"/><rect class="w" x="634.23" y="69.07" width="1.78" height="2.87"/><rect class="w" x="641.67" y="69.07" width="1.78" height="2.87"/><rect class="w" x="637.95" y="69.07" width="1.78" height="2.87"/><rect class="w" x="645.39" y="69.07" width="1.78" height="2.87"/><rect class="w" x="630.5" y="82.78" width="1.78" height="2.87"/><rect class="w" x="634.23" y="82.78" width="1.78" height="2.87"/><rect class="w" x="641.67" y="82.78" width="1.78" height="2.87"/><rect class="w" x="637.95" y="82.78" width="1.78" height="2.87"/><rect class="w" x="645.39" y="82.78" width="1.78" height="2.87"/><rect class="w" x="625.55" y="73.29" width="3.25" height="1.57"/><rect class="w" x="625.55" y="79.86" width="3.25" height="1.57"/><rect class="w" x="625.55" y="76.57" width="3.25" height="1.57"/><rect class="w" x="648.84" y="73.29" width="3.25" height="1.57"/><rect class="w" x="648.84" y="79.86" width="3.25" height="1.57"/><rect class="w" x="648.84" y="76.57" width="3.25" height="1.57"/><rect class="x" x="614" y="125" width="80" height="50" rx="0.63" ry="0.63"/><rect class="y" x="626.91" y="134.39" width="54.39" height="11.17"/><rect class="z" x="629.02" y="136.47" width="6.61" height="7.01"/><rect class="z" x="639.86" y="136.47" width="6.61" height="7.01"/><rect class="z" x="650.7" y="136.47" width="6.61" height="7.01"/><rect class="z" x="661.53" y="136.47" width="6.61" height="7.01"/><rect class="z" x="672.37" y="136.47" width="6.61" height="7.01"/><rect class="aa" x="659.19" y="152.11" width="20.01" height="10.68"/><rect class="w" x="660.86" y="149.29" width="1.78" height="2.82"/><rect class="w" x="664.58" y="149.29" width="1.78" height="2.82"/><rect class="w" x="672.03" y="149.29" width="1.78" height="2.82"/><rect class="w" x="668.3" y="149.29" width="1.78" height="2.82"/><rect class="w" x="675.75" y="149.29" width="1.78" height="2.82"/><rect class="w" x="660.86" y="162.79" width="1.78" height="2.82"/><rect class="w" x="664.58" y="162.79" width="1.78" height="2.82"/><rect class="w" x="672.03" y="162.79" width="1.78" height="2.82"/><rect class="w" x="668.3" y="162.79" width="1.78" height="2.82"/><rect class="w" x="675.75" y="162.79" width="1.78" height="2.82"/><rect class="w" x="655.9" y="153.44" width="3.25" height="1.55"/><rect class="w" x="655.9" y="159.9" width="3.25" height="1.55"/><rect class="w" x="655.9" y="156.67" width="3.25" height="1.55"/><rect class="w" x="679.2" y="153.44" width="3.25" height="1.55"/><rect class="w" x="679.2" y="159.9" width="3.25" height="1.55"/><rect class="w" x="679.2" y="156.67" width="3.25" height="1.55"/><rect class="aa" x="628.83" y="152.11" width="20.01" height="10.68"/><rect class="w" x="630.5" y="149.29" width="1.78" height="2.82"/><rect class="w" x="634.22" y="149.29" width="1.78" height="2.82"/><rect class="w" x="641.67" y="149.29" width="1.78" height="2.82"/><rect class="w" x="637.95" y="149.29" width="1.78" height="2.82"/><rect class="w" x="645.39" y="149.29" width="1.78" height="2.82"/><rect class="w" x="630.5" y="162.79" width="1.78" height="2.82"/><rect class="w" x="634.22" y="162.79" width="1.78" height="2.82"/><rect class="w" x="641.67" y="162.79" width="1.78" height="2.82"/><rect class="w" x="637.95" y="162.79" width="1.78" height="2.82"/><rect class="w" x="645.39" y="162.79" width="1.78" height="2.82"/><rect class="w" x="625.55" y="153.44" width="3.25" height="1.55"/><rect class="w" x="625.55" y="159.9" width="3.25" height="1.55"/><rect class="w" x="625.55" y="156.67" width="3.25" height="1.55"/><rect class="w" x="648.84" y="153.44" width="3.25" height="1.55"/><rect class="w" x="648.84" y="159.9" width="3.25" height="1.55"/><rect class="w" x="648.84" y="156.67" width="3.25" height="1.55"/><circle class="e" cx="680" cy="131" r="4"/><circle class="e" cx="648" cy="147" r="8"/><rect class="ab" x="86.83" y="61" width="1.55" height="7.77" rx="0.32" ry="0.32"/><rect class="ac" x="87.22" y="68.77" width="0.77" height="3.89"/><rect class="ab" x="32.2" y="72.66" width="60.8" height="75.43"/><rect class="ad" x="32.2" y="148.09" width="60.8" height="3.32"/><path class="ae" d="M40.17,153H36.59A1.56,1.56,0,0,1,35,151.43h0v0h6.69v0A1.56,1.56,0,0,1,40.17,153Z"/><path class="ae" d="M88.61,153H85a1.56,1.56,0,0,1-1.56-1.57h0v0h6.69v0A1.56,1.56,0,0,1,88.61,153Z"/><path class="af" d="M32.2,148.84v-.74H93v.19Z"/><rect class="ag" x="38.38" y="106.21" width="48.44" height="0.33"/><rect class="ah" x="38.38" y="105.83" width="48.44" height="0.38"/><path class="ai" d="M91.34,102A1.64,1.64,0,0,1,89,102h0a1.67,1.67,0,0,1,0-2.35,1.64,1.64,0,0,1,2.32,0h0A1.67,1.67,0,0,1,91.34,102Z"/><path class="aj" d="M91.25,101.88a1.52,1.52,0,0,1-2.15,0h0a1.54,1.54,0,0,1,0-2.17,1.52,1.52,0,0,1,2.15,0h0A1.54,1.54,0,0,1,91.25,101.88Z"/><ellipse class="ak" cx="90.17" cy="100.8" rx="1.22" ry="1.23"/><path class="al" d="M90.35,100.27a.3.3,0,0,1-.42-.42.29.29,0,0,1,.42,0h0A.3.3,0,0,1,90.35,100.27Z"/><ellipse class="al" cx="90.17" cy="92.15" rx="1.86" ry="1.87"/><ellipse class="am" cx="90.17" cy="96.28" rx="0.85" ry="0.85"/><rect class="ag" x="37.67" y="72.66" width="0.33" height="75.43"/><rect class="ah" x="38.01" y="72.66" width="0.37" height="75.43"/><rect class="ag" x="87.2" y="72.66" width="0.33" height="75.43"/><rect class="ah" x="86.83" y="72.66" width="0.37" height="75.43"/><rect class="an" x="38.38" y="72.66" width="48.45" height="33.17"/><rect class="ao" x="44.99" y="75.18" width="35.23" height="28.13" rx="0.58" ry="0.58"/><rect class="ap" x="44.99" y="75.18" width="35.23" height="28.13" rx="0.58" ry="0.58"/><path class="aq" d="M79.19,102.85,45.57,76.12a.56.56,0,0,1,.56-.56H79.19a.56.56,0,0,1,.56.56h0v26.17A.56.56,0,0,1,79.19,102.85Z"/><rect class="al" x="86.83" y="62.55" width="1.55" height="1.55"/><rect class="ar" x="86.83" y="64.11" width="1.55" height="1.55"/><rect class="am" x="86.83" y="65.66" width="1.55" height="1.55"/><rect class="ap" x="33.06" y="110.1" width="3.86" height="3.89"/><line class="as" x1="24.84" y1="98.64" x2="34.88" y2="111.85"/><path class="at" d="M34.28,81.16l0,0a1.9,1.9,0,0,0,.14-.32.76.76,0,0,0-.13-.72L34.16,80c.2-.15.3-.46,0-.61a.71.71,0,0,0-1,.17c-.27.43,0,.8.44,1,.15.06-.22.32-.29.34l-.26,0a.52.52,0,0,0-.42.44.6.6,0,0,0,.24.52,1.73,1.73,0,0,0,.28.15l.18.05v0a.48.48,0,0,0,.43.53h.1a.73.73,0,0,0,.62-.6C34.64,81.64,34.45,81.47,34.28,81.16Z"/><path class="at" d="M32.74,82.27c-.27,0-.32.42,0,.42S33,82.27,32.74,82.27Z"/><path class="at" d="M33.57,87.91a.62.62,0,0,0-.67.53.61.61,0,0,0,.53.67.62.62,0,0,0,.67-.53A.61.61,0,0,0,33.57,87.91Z"/><path class="au" d="M24.5,86.61H20.21V99h8.58V86.61Z"/><path class="at" d="M8.75,69.63h31.5a.75.75,0,0,1,.75.74h0V91.76a.74.74,0,0,1-.74.75H8.75A.75.75,0,0,1,8,91.76V70.37A.75.75,0,0,1,8.75,69.63Z"/><path class="av" d="M9.94,70.77H39.06a.74.74,0,0,1,.74.74h0V90.63a.74.74,0,0,1-.73.74H9.94a.73.73,0,0,1-.74-.73h0V71.5A.74.74,0,0,1,9.94,70.77Z"/><rect class="aw" x="12.86" y="97.47" width="23.18" height="1.55" rx="0.78" ry="0.78"/><path class="ax" d="M14.74,89.77h-.18V87.46l.67-.68V85.42h.18v1.42l-.68.68Z"/><path class="w" d="M14.41,89.77a.23.23,0,0,0,.23.23h0a.23.23,0,0,0,.23-.23h0a.23.23,0,0,0-.23-.23h0A.23.23,0,0,0,14.41,89.77Z"/><path class="ax" d="M15.52,88.86h-.19V87.45l.67-.68V85.42h.18v1.42l-.67.68Z"/><path class="w" d="M15.2,88.87a.23.23,0,0,0,.23.23h0a.23.23,0,0,0,.23-.23h0a.23.23,0,0,0-.23-.23h0a.23.23,0,0,0-.23.23Z"/><path class="ax" d="M17.19,89.63H17V88.22l.68-.68c0-.37,0-2.31,0-2.39h.18v2.45l-.68.68Z"/><path class="w" d="M16.87,89.63a.23.23,0,0,0,.23.23h0a.23.23,0,0,0,.23-.23h0a.23.23,0,0,0-.23-.23h0A.23.23,0,0,0,16.87,89.63Z"/><path class="ax" d="M18.54,90.24h-.19V88.7l.45-.45v-.85L18.43,87V85.57h.18V87l.37.37v1l-.45.45Z"/><path class="w" d="M18.22,90.14a.23.23,0,0,0,.23.23h0a.23.23,0,0,0,.23-.23h0a.23.23,0,0,0-.23-.23h0A.23.23,0,0,0,18.22,90.14Z"/><rect class="ax" x="19.24" y="80.89" width="0.19" height="6.25"/><path class="w" d="M19.12,87.14a.23.23,0,0,0,.23.23h0a.23.23,0,0,0,.23-.23h0a.23.23,0,0,0-.23-.23h0A.23.23,0,0,0,19.12,87.14Z"/><path class="ax" d="M16.09,88.47h-.18v-.85l.9-.9.13.13-.84.85Z"/><path class="w" d="M15.77,88.4a.23.23,0,0,0,.23.23h0a.23.23,0,0,0,.23-.23h0a.23.23,0,0,0-.23-.23h0A.23.23,0,0,0,15.77,88.4Z"/><rect class="ax" x="16.81" y="82.22" width="0.19" height="5.52"/><path class="w" d="M16.67,87.74a.23.23,0,0,0,.23.23h0a.23.23,0,0,0,.23-.23h0a.23.23,0,0,0-.23-.23h0a.23.23,0,0,0-.23.23Z"/><path class="ax" d="M22.43,87.2h-.18v-.61l.23-.23v-1.6h.18v1.67l-.23.23Z"/><path class="w" d="M22.58,87.2a.23.23,0,0,1-.23.23h0a.23.23,0,0,1-.23-.23h0a.23.23,0,0,1,.23-.23h0A.23.23,0,0,1,22.58,87.2Z"/><rect class="ax" x="21.67" y="81.76" width="0.19" height="6.25"/><path class="w" d="M21.53,88a.23.23,0,0,0,.23.23h0A.23.23,0,0,0,22,88h0a.23.23,0,0,0-.23-.23h0A.23.23,0,0,0,21.53,88Z"/><path class="ax" d="M21.15,90.3H21V89l-.56-.57V87.17l.46-.47v-.81h.19v.89l-.46.47v1.08l.56.57Z"/><path class="w" d="M20.83,90.3a.23.23,0,0,0,.23.23h0a.23.23,0,0,0,.23-.23h0a.23.23,0,0,0-.23-.23h0A.23.23,0,0,0,20.83,90.3Z"/><rect class="ax" x="20.05" y="81.13" width="0.19" height="8.47"/><path class="w" d="M19.91,89.54a.23.23,0,0,0,.23.23h0a.23.23,0,0,0,.23-.23h0a.23.23,0,0,0-.23-.23h0A.23.23,0,0,0,19.91,89.54Z"/><path class="ax" d="M22.83,89.31h-.18v-1.5l.63-.63v-2h.18v2l-.63.64Z"/><path class="w" d="M22.51,89.31a.23.23,0,0,0,.23.23h0a.23.23,0,0,0,.23-.23h0a.23.23,0,0,0-.23-.23h0A.23.23,0,0,0,22.51,89.31Z"/><rect class="w" x="23.16" y="85.31" width="0.43" height="0.61"/><rect class="w" x="19.93" y="85.31" width="0.43" height="0.61"/><rect class="w" x="22.35" y="85.31" width="0.43" height="0.61"/><rect class="w" x="21.54" y="85.31" width="0.43" height="0.61"/><rect class="w" x="20.74" y="85.31" width="0.43" height="0.61"/><rect class="w" x="17.52" y="85.31" width="0.43" height="0.61"/><rect class="w" x="19.13" y="85.31" width="0.43" height="0.61"/><rect class="w" x="18.32" y="85.31" width="0.43" height="0.61"/><rect class="w" x="16.71" y="85.31" width="0.43" height="0.61"/><rect class="w" x="15.91" y="85.31" width="0.43" height="0.61"/><rect class="w" x="15.1" y="85.31" width="0.43" height="0.61"/><path class="ax" d="M13.71,77.34,13,76.66H10.8v-.19h2.3l.68.68h1.35v.19H13.71Z"/><path class="w" d="M10.8,76.34a.23.23,0,0,0-.23.23h0a.23.23,0,0,0,.23.23h0a.23.23,0,0,0,.23-.23h0A.23.23,0,0,0,10.8,76.34Z"/><path class="ax" d="M13.71,78.14,13,77.46H11.7v-.19h1.4l.68.68h1.35v.19H13.71Z"/><path class="w" d="M11.7,77.13a.23.23,0,0,0-.23.23h0a.23.23,0,0,0,.23.23h0a.23.23,0,0,0,.23-.23h0A.23.23,0,0,0,11.7,77.13Z"/><path class="ax" d="M12.95,79.81l-.67-.68H10.95v-.19h1.4l.68.68H15.4v.19H12.95Z"/><path class="w" d="M10.95,78.81a.23.23,0,0,0-.23.23h0a.23.23,0,0,0,.23.23h0a.23.23,0,0,0,.23-.23h0a.23.23,0,0,0-.23-.23Z"/><path class="ax" d="M13.23,80.93h-1l-.45-.45H10.34V80.3h1.53l.45.45h.84l.37-.37H15v.19H13.6Z"/><path class="w" d="M10.44,80.16a.23.23,0,0,0-.23.23h0a.23.23,0,0,0,.23.23h0a.23.23,0,0,0,.23-.23h0A.23.23,0,0,0,10.44,80.16Z"/><rect class="ax" x="13.42" y="81.19" width="6.21" height="0.19"/><path class="w" d="M13.42,81.07a.23.23,0,0,0-.23.23h0a.23.23,0,0,0,.23.23h0a.23.23,0,0,0,.23-.23h0a.23.23,0,0,0-.23-.23Z"/><path class="ax" d="M13.71,78.87,12.87,78H12.1v-.19h.85l.9.9Z"/><path class="w" d="M12.17,77.7a.23.23,0,0,0-.23.23h0a.23.23,0,0,0,.23.23h0a.23.23,0,0,0,.23-.23h0A.23.23,0,0,0,12.17,77.7Z"/><rect class="ax" x="12.83" y="78.75" width="5.49" height="0.19"/><path class="w" d="M12.82,78.61a.23.23,0,0,0-.23.23h0a.23.23,0,0,0,.23.23h0a.23.23,0,0,0,.23-.23h0a.23.23,0,0,0-.23-.23Z"/><path class="ax" d="M15.79,84.63H14.13l-.23-.23h-.54v-.19H14l.23.23h1.59Z"/><path class="w" d="M13.36,84.55a.23.23,0,0,1-.23-.23h0a.23.23,0,0,1,.23-.23h0a.23.23,0,0,1,.23.23h0A.23.23,0,0,1,13.36,84.55Z"/><rect class="ax" x="12.56" y="83.63" width="6.21" height="0.19"/><path class="w" d="M12.56,83.5a.23.23,0,0,0-.23.23h0a.23.23,0,0,0,.23.23h0a.23.23,0,0,0,.23-.23h0a.23.23,0,0,0-.23-.23Z"/><path class="ax" d="M11.68,83.11h-1.4v-.19H11.6l.56-.57H13.4l.46.47h.81V83h-.89l-.46-.47H12.24Z"/><path class="w" d="M10.28,82.79a.23.23,0,0,0-.23.23h0a.23.23,0,0,0,.23.23h0a.23.23,0,0,0,.23-.23h0A.23.23,0,0,0,10.28,82.79Z"/><rect class="ax" x="10.98" y="82" width="8.42" height="0.19"/><path class="w" d="M11,81.87a.23.23,0,0,0-.23.23h0a.23.23,0,0,0,.23.23h0a.23.23,0,0,0,.23-.23h0A.23.23,0,0,0,11,81.87Z"/><path class="ax" d="M15.34,85.44h-2l-.63-.64H11.26v-.19h1.5l.63.63h2Z"/><path class="w" d="M11.26,84.48a.23.23,0,0,0-.23.23h0a.23.23,0,0,0,.23.23h0a.23.23,0,0,0,.23-.23h0A.23.23,0,0,0,11.26,84.48Z"/><rect class="w" x="14.63" y="85.13" width="0.61" height="0.44"/><rect class="w" x="14.63" y="81.89" width="0.61" height="0.44"/><rect class="w" x="14.63" y="84.32" width="0.61" height="0.44"/><rect class="w" x="14.63" y="83.51" width="0.61" height="0.44"/><rect class="w" x="14.63" y="82.7" width="0.61" height="0.44"/><rect class="w" x="14.63" y="79.46" width="0.61" height="0.44"/><rect class="w" x="14.63" y="81.08" width="0.61" height="0.44"/><rect class="w" x="14.63" y="80.27" width="0.61" height="0.44"/><rect class="w" x="14.63" y="78.65" width="0.61" height="0.44"/><rect class="w" x="14.63" y="77.84" width="0.61" height="0.44"/><rect class="w" x="14.63" y="77.03" width="0.61" height="0.44"/><path class="ax" d="M23.46,77.17h-.18V75.73l.68-.68V72.81h.18v2.32l-.68.68C23.46,76.05,23.47,77.09,23.46,77.17Z"/><path class="w" d="M24.28,72.81a.23.23,0,0,0-.23-.23h0a.23.23,0,0,0-.23.23h0A.23.23,0,0,0,24,73h0A.23.23,0,0,0,24.28,72.81Z"/><path class="ax" d="M22.68,77.16h-.18V75.73l.67-.68V73.72h.18v1.41l-.67.68C22.68,76.05,22.68,77.09,22.68,77.16Z"/><path class="w" d="M23.49,73.72a.23.23,0,0,0-.23-.23h0a.23.23,0,0,0-.23.23h0a.23.23,0,0,0,.23.23h0A.23.23,0,0,0,23.49,73.72Z"/><path class="ax" d="M21.85,77.22h-.18c0-.07,0-1.08,0-1.74v0l.85-.86V72.88h.18v1.77l-.85.86C21.85,75.79,21.86,77.13,21.85,77.22Z"/><path class="w" d="M22.84,72.88a.23.23,0,0,0-.23-.23h0a.23.23,0,0,0-.23.23h0a.23.23,0,0,0,.23.23h0A.23.23,0,0,0,22.84,72.88Z"/><path class="ax" d="M21,77.21h-.18v-.89l.46-.47V74.78l-.56-.57V72.29h.18v1.85l.56.57v1.24L21,76.4Z"/><path class="w" d="M20.61,72.29a.23.23,0,0,1,.23-.23h0a.23.23,0,0,1,.23.23h0a.23.23,0,0,1-.23.23h0A.23.23,0,0,1,20.61,72.29Z"/><path class="ax" d="M19.44,75l-.13-.13.84-.85V73.2h.18v.85Z"/><path class="w" d="M20.47,73.27a.23.23,0,0,0-.23-.23h0a.23.23,0,0,0-.23.23h0a.23.23,0,0,0,.23.23h0a.23.23,0,0,0,.23-.23Z"/><rect class="ax" x="20.07" y="75.26" width="0.19" height="6.25"/><path class="w" d="M20.38,75.26a.23.23,0,0,0-.23-.23h0a.23.23,0,0,0-.23.23h0a.23.23,0,0,0,.23.23h0A.23.23,0,0,0,20.38,75.26Z"/><rect class="ax" x="19.25" y="73.94" width="0.19" height="5.52"/><path class="w" d="M19.57,73.94a.23.23,0,0,0-.23-.23h0a.23.23,0,0,0-.23.23h0a.23.23,0,0,0,.23.23h0a.23.23,0,0,0,.23-.23Z"/><path class="ax" d="M16.22,77.83H16V76.15l.23-.23v-.54h.18V76l-.23.23Z"/><path class="w" d="M16.11,75.38a.23.23,0,0,1,.23-.23h0a.23.23,0,0,1,.23.23h0a.23.23,0,0,1-.23.23h0A.23.23,0,0,1,16.11,75.38Z"/><rect class="ax" x="16.84" y="74.58" width="0.19" height="6.25"/><path class="w" d="M17.16,74.58a.23.23,0,0,0-.23-.23h0a.23.23,0,0,0-.23.23h0a.23.23,0,0,0,.23.23h0a.23.23,0,0,0,.23-.23Z"/><path class="ax" d="M17.82,76.7h-.18v-.89l.46-.47V74.26l-.56-.57V72.29h.18v1.33l.56.57v1.24l-.46.47Z"/><path class="w" d="M17.86,72.29a.23.23,0,0,0-.23-.23h0a.23.23,0,0,0-.23.23h0a.23.23,0,0,0,.23.23h0a.23.23,0,0,0,.23-.23Z"/><rect class="ax" x="18.46" y="72.99" width="0.19" height="8.47"/><path class="w" d="M18.78,73a.23.23,0,0,0-.23-.23h0a.23.23,0,0,0-.23.23h0a.23.23,0,0,0,.23.23h0a.23.23,0,0,0,.23-.23Z"/><path class="ax" d="M15.41,77.38h-.18v-2l.63-.64V73.27H16v1.5l-.63.64Z"/><path class="w" d="M16.18,73.27A.23.23,0,0,0,16,73h0a.23.23,0,0,0-.23.23h0a.23.23,0,0,0,.23.23h0a.23.23,0,0,0,.23-.23Z"/><rect class="w" x="15.1" y="76.66" width="0.43" height="0.61"/><rect class="w" x="18.32" y="76.66" width="0.43" height="0.61"/><rect class="w" x="15.91" y="76.66" width="0.43" height="0.61"/><rect class="w" x="16.71" y="76.66" width="0.43" height="0.61"/><rect class="w" x="17.52" y="76.66" width="0.43" height="0.61"/><rect class="w" x="20.74" y="76.66" width="0.43" height="0.61"/><rect class="w" x="19.13" y="76.66" width="0.43" height="0.61"/><rect class="w" x="19.93" y="76.66" width="0.43" height="0.61"/><rect class="w" x="21.54" y="76.66" width="0.43" height="0.61"/><rect class="w" x="22.35" y="76.66" width="0.43" height="0.61"/><rect class="w" x="23.15" y="76.66" width="0.43" height="0.61"/><path class="ax" d="M28,86.12h-2.3l-.67-.68H23.71v-.19h1.41l.68.68H28Z"/><path class="w" d="M28,86.25a.23.23,0,0,0,.23-.23h0a.23.23,0,0,0-.23-.23h0a.23.23,0,0,0-.23.23h0A.23.23,0,0,0,28,86.25Z"/><path class="ax" d="M27.13,85.32h-1.4l-.67-.68H23.71v-.19h1.41l.68.68h1.33Z"/><path class="w" d="M27.13,85.46a.23.23,0,0,0,.23-.23h0a.23.23,0,0,0-.23-.23h0a.23.23,0,0,0-.23.23h0a.23.23,0,0,0,.23.23Z"/><path class="ax" d="M28,84.67H26.21l-.85-.86H23.65v-.19h1.77l.85.86H28Z"/><path class="w" d="M28,84.81a.23.23,0,0,0,.23-.23h0a.23.23,0,0,0-.23-.23h0a.23.23,0,0,0-.23.23h0A.23.23,0,0,0,28,84.81Z"/><path class="ax" d="M26.16,83.46H24.93L24.47,83h-.81v-.19h.88l.46.47h1.08l.56-.57h1.91v.19H26.72Z"/><path class="w" d="M28.56,82.57a.23.23,0,0,1,.23.23h0a.23.23,0,0,1-.23.23h0a.23.23,0,0,1-.23-.23h0a.23.23,0,0,1,.23-.23Z"/><path class="ax" d="M27.65,82.29H26.8l-.9-.9.13-.13.84.85h.77Z"/><path class="w" d="M27.58,82.43a.23.23,0,0,0,.23-.23h0a.23.23,0,0,0-.23-.23h0a.23.23,0,0,0-.23.23h0A.23.23,0,0,0,27.58,82.43Z"/><rect class="ax" x="19.39" y="82.02" width="6.21" height="0.19"/><path class="w" d="M25.6,82.33a.23.23,0,0,0,.23-.23h0a.23.23,0,0,0-.23-.23h0a.23.23,0,0,0-.23.23h0A.23.23,0,0,0,25.6,82.33Z"/><rect class="ax" x="21.43" y="81.2" width="5.49" height="0.19"/><path class="w" d="M26.92,81.52a.23.23,0,0,0,.23-.23h0a.23.23,0,0,0-.23-.23h0a.23.23,0,0,0-.23.23h0a.23.23,0,0,0,.23.23Z"/><path class="ax" d="M25.48,78.38h-.61l-.23-.23H23V78h1.66l.23.23h.53Z"/><path class="w" d="M25.48,78a.23.23,0,0,1,.23.23h0a.23.23,0,0,1-.23.23h0a.23.23,0,0,1-.23-.23h0A.23.23,0,0,1,25.48,78Z"/><rect class="ax" x="20.06" y="78.77" width="6.21" height="0.19"/><path class="w" d="M26.27,79.09a.23.23,0,0,0,.23-.23h0a.23.23,0,0,0-.23-.23h0a.23.23,0,0,0-.23.23h0A.23.23,0,0,0,26.27,79.09Z"/><path class="ax" d="M26.67,80.23H25.44L25,79.76h-.81v-.18h.88l.46.47H26.6l.56-.57h1.4v.19H27.24Z"/><path class="w" d="M28.56,79.8a.23.23,0,0,0,.23-.23h0a.23.23,0,0,0-.23-.23h0a.23.23,0,0,0-.23.23h0A.23.23,0,0,0,28.56,79.8Z"/><rect class="ax" x="19.44" y="80.4" width="8.42" height="0.19"/><path class="w" d="M27.81,80.72a.23.23,0,0,0,.23-.23h0a.23.23,0,0,0-.23-.23h0a.23.23,0,0,0-.23.23h0A.23.23,0,0,0,27.81,80.72Z"/><path class="ax" d="M27.58,78h-1.5l-.63-.63h-2v-.19h2l.63.64h1.42Z"/><path class="w" d="M27.58,78.11a.23.23,0,0,0,.23-.23h0a.23.23,0,0,0-.23-.23h0a.23.23,0,0,0-.23.23h0A.23.23,0,0,0,27.58,78.11Z"/><rect class="w" x="23.64" y="77.03" width="0.61" height="0.44"/><rect class="w" x="23.64" y="80.26" width="0.61" height="0.44"/><rect class="w" x="23.64" y="77.84" width="0.61" height="0.44"/><rect class="w" x="23.64" y="78.65" width="0.61" height="0.44"/><rect class="w" x="23.64" y="79.45" width="0.61" height="0.44"/><rect class="w" x="23.64" y="82.69" width="0.61" height="0.44"/><rect class="w" x="23.64" y="81.07" width="0.61" height="0.44"/><rect class="w" x="23.64" y="81.88" width="0.61" height="0.44"/><rect class="w" x="23.64" y="83.5" width="0.61" height="0.44"/><rect class="w" x="23.64" y="84.31" width="0.61" height="0.44"/><rect class="w" x="23.64" y="85.12" width="0.61" height="0.44"/><rect class="s" x="13.49" y="75.71" width="10.79" height="10.85" rx="0.32" ry="0.32"/><rect class="v" x="16.36" y="79.57" width="5.06" height="3.13"/><rect class="w" x="16.78" y="78.74" width="0.45" height="0.83"/><rect class="w" x="17.73" y="78.74" width="0.45" height="0.83"/><rect class="w" x="19.61" y="78.74" width="0.45" height="0.83"/><rect class="w" x="18.67" y="78.74" width="0.45" height="0.83"/><rect class="w" x="20.55" y="78.74" width="0.45" height="0.83"/><rect class="w" x="16.78" y="82.7" width="0.45" height="0.83"/><rect class="w" x="17.73" y="82.7" width="0.45" height="0.83"/><rect class="w" x="19.61" y="82.7" width="0.45" height="0.83"/><rect class="w" x="18.67" y="82.7" width="0.45" height="0.83"/><rect class="w" x="20.55" y="82.7" width="0.45" height="0.83"/><rect class="w" x="15.53" y="79.96" width="0.82" height="0.45"/><rect class="w" x="15.53" y="81.85" width="0.82" height="0.45"/><rect class="w" x="15.53" y="80.91" width="0.82" height="0.45"/><rect class="w" x="21.42" y="79.96" width="0.82" height="0.45"/><rect class="w" x="21.42" y="81.85" width="0.82" height="0.45"/><rect class="w" x="21.42" y="80.91" width="0.82" height="0.45"/><path class="w" d="M21.38,78.43l-.12-.3,8.37-3.47H32.8V75H29.69Z"/><path class="w" d="M32.08,87.86H22.75l-8.28-2.3.09-.31,8.26,2.3h9.26Z"/><rect class="w" x="21.77" y="81.23" width="10.82" height="0.32"/><rect class="at" x="30.51" y="72.52" width="4.57" height="4.6"/><rect class="ay" x="31.14" y="73.15" width="3.31" height="3.33"/><rect class="at" x="30.51" y="79.09" width="4.57" height="4.6"/><rect class="at" x="30.51" y="85.39" width="4.57" height="4.6"/><rect class="ay" x="31.14" y="79.72" width="3.31" height="3.33"/><path class="w" d="M22.1,78.28a.78.78,0,1,0-.78.78A.78.78,0,0,0,22.1,78.28Z"/><path class="w" d="M22.56,81.39a.78.78,0,1,0-.78.78A.78.78,0,0,0,22.56,81.39Z"/><path class="w" d="M15.34,85.39a.78.78,0,1,0-.78.78A.78.78,0,0,0,15.34,85.39Z"/><path class="at" d="M33.08,75.26a1.08,1.08,0,0,0-1.23-.87.91.91,0,0,0-.71.56.88.88,0,0,0,0,.71l0,.09a1,1,0,0,0,.35.62.88.88,0,0,0,.84.12.81.81,0,0,0,.37-.28l.07-.09.09-.1A1,1,0,0,0,33.08,75.26Z"/><path class="at" d="M32,80.62a.39.39,0,1,0,.34.44A.39.39,0,0,0,32,80.62Z"/><rect class="ay" x="31.14" y="86.12" width="3.31" height="3.33"/><path class="at" d="M32.56,86.64a.75.75,0,0,0-1-.4,1,1,0,0,0-.41.31l-.06.07,0,0a.76.76,0,0,0,0,1.07l0,0a.65.65,0,0,0,1,0,1.09,1.09,0,0,0,.1-.18l.09-.07A.77.77,0,0,0,32.56,86.64Z"/><path class="at" d="M32.52,88.61a.7.7,0,0,0-1-.13h0a.7.7,0,0,0,.85,1.1h0A.71.71,0,0,0,32.52,88.61Z"/><path class="az" d="M39.8,90.65V71.51a.73.73,0,0,0-.73-.73H9.93Z"/><line class="as" x1="821.66" y1="90.69" x2="832.99" y2="105.5"/><rect class="ba" x="826.17" y="104.29" width="54.66" height="6.99"/><rect class="ba" x="807.17" y="98.73" width="16.76" height="12.55"/><rect class="bb" x="807.64" y="111.28" width="72.71" height="29.09"/><rect class="bc" x="807.64" y="111.28" width="72.71" height="1.81"/><rect class="ad" x="807.17" y="103.54" width="73.65" height="2.1"/><path class="ad" d="M892.93,107.93h-12.1V96.25h12.1A1.07,1.07,0,0,1,894,97.32v9.55A1.07,1.07,0,0,1,892.93,107.93Z"/><path class="ad" d="M795.06,96.25h12.11v11.68H795.06a1.07,1.07,0,0,1-1.06-1.07V97.32A1.07,1.07,0,0,1,795.06,96.25Z"/><rect class="bd" x="829.02" y="118.04" width="29.95" height="11.31" rx="1.68" ry="1.68"/><rect class="be" x="831.46" y="118.95" width="25.09" height="9.48"/><path class="bf" d="M856.07,127.9l-23.69-8.42h23.69Z"/><rect class="ad" x="807.17" y="137.86" width="73.65" height="2.52"/><rect class="ad" x="842.93" y="102.09" width="11.18" height="8.94"/><rect class="ad" x="835.11" y="102.09" width="2.24" height="3.35"/><rect class="ad" x="860.82" y="102.09" width="2.24" height="3.35"/><rect class="ag" x="891.95" y="96.25" width="0.37" height="11.68"/><rect class="ah" x="891.53" y="96.25" width="0.42" height="11.68"/><rect class="ag" x="796.24" y="96.25" width="0.37" height="11.68"/><rect class="ah" x="796.61" y="96.25" width="0.42" height="11.68"/><path class="at" d="M807.72,74h26.83a.56.56,0,0,1,.56.56h0V92.71a.56.56,0,0,1-.56.56H807.72a.56.56,0,0,1-.56-.56V74.56A.56.56,0,0,1,807.72,74Z"/><path class="av" d="M808.73,75h24.81a.55.55,0,0,1,.55.55h0V91.76a.55.55,0,0,1-.55.55H808.73a.55.55,0,0,1-.55-.55V75.51a.55.55,0,0,1,.55-.55Z"/><rect class="s" x="814.8" y="77.3" width="12.67" height="12.67" rx="0.34" ry="0.34"/><rect class="v" x="818.17" y="81.81" width="5.94" height="3.65"/><rect class="w" x="818.67" y="80.84" width="0.53" height="0.96"/><rect class="w" x="819.77" y="80.84" width="0.53" height="0.96"/><rect class="w" x="821.98" y="80.84" width="0.53" height="0.96"/><rect class="w" x="820.88" y="80.84" width="0.53" height="0.96"/><rect class="w" x="823.09" y="80.84" width="0.53" height="0.96"/><rect class="w" x="818.67" y="85.46" width="0.53" height="0.96"/><rect class="w" x="819.77" y="85.46" width="0.53" height="0.96"/><rect class="w" x="821.98" y="85.46" width="0.53" height="0.96"/><rect class="w" x="820.88" y="85.46" width="0.53" height="0.96"/><rect class="w" x="823.09" y="85.46" width="0.53" height="0.96"/><rect class="w" x="817.19" y="82.27" width="0.96" height="0.53"/><rect class="w" x="817.19" y="84.48" width="0.96" height="0.53"/><rect class="w" x="817.19" y="83.37" width="0.96" height="0.53"/><rect class="w" x="824.11" y="82.27" width="0.96" height="0.53"/><rect class="w" x="824.11" y="84.48" width="0.96" height="0.53"/><rect class="w" x="824.11" y="83.37" width="0.96" height="0.53"/><path class="az" d="M834.09,91.7V75.59a.62.62,0,0,0-.62-.62H808.79Z"/><rect class="bg" x="847.4" y="79.78" width="2.24" height="22.31"/><rect class="ba" x="845.46" y="79.78" width="6.12" height="16.69"/><path class="w" d="M847.52,82.57a20.17,20.17,0,0,0,.37,3.73A4.14,4.14,0,0,0,850,89.41a2.83,2.83,0,0,0,.76.22V80.33h-3.18A15.81,15.81,0,0,0,847.52,82.57Z"/><rect class="ad" x="846.49" y="74.95" width="4.07" height="4.82"/><rect x="845.94" y="74" width="5.16" height="0.95" rx="0.21" ry="0.21"/><rect class="ad" x="846.32" y="96.47" width="4.41" height="1.3"/><circle cx="866.46" cy="119.46" r="1.2"/><circle class="al" cx="866.46" cy="119.46" r="1.1"/><path class="bh" d="M867.17,120.12a1,1,0,1,1-1.37-1.37,1.67,1.67,0,0,0,.52.91C866.78,120.12,867.54,119.75,867.17,120.12Z"/><path class="w" d="M867.12,118.88a.21.21,0,1,1-.21-.23.22.22,0,0,1,.21.22Z"/><circle cx="870.29" cy="119.46" r="1.2"/><circle class="bi" cx="870.29" cy="119.46" r="1.1"/><path class="bj" d="M871,120.12a1,1,0,0,1-1.37-1.37h0a1.68,1.68,0,0,0,.52.91C870.6,120.12,871.37,119.75,871,120.12Z"/><path class="w" d="M870.94,118.88a.21.21,0,1,1-.21-.23.22.22,0,0,1,.21.22Z"/><rect class="bd" x="817.84" y="125.83" width="3.29" height="2.73" rx="0.63" ry="0.63"/><path class="bk" d="M818.48,126.07h1.71a.64.64,0,0,1,.65.64h0v1.1A3.37,3.37,0,0,0,818.48,126.07Z"/><rect class="bd" x="822.64" y="125.83" width="3.29" height="2.73" rx="0.63" ry="0.63"/><path class="bk" d="M823.28,126.07H825a.64.64,0,0,1,.65.64h0v1.1A3.37,3.37,0,0,0,823.28,126.07Z"/><circle class="al" cx="868.38" cy="125.83" r="2.69"/><g class="a"><g class="a"><path class="bl" d="M405.16,142.33h-3V140.9h7.72v1.43h-3V150h-1.69Z"/><path class="bl" d="M414.83,143v1.55a2.1,2.1,0,0,0-.38,0,1.89,1.89,0,0,0-2,2.14V150h-1.62v-6.94h1.55v1A2.73,2.73,0,0,1,414.83,143Z"/><path class="bl" d="M422,145.93V150h-1.53v-.84a2.46,2.46,0,0,1-2.18.94c-1.59,0-2.59-.87-2.59-2.08s.78-2.07,2.89-2.07h1.79v-.1c0-.95-.57-1.51-1.73-1.51a3.44,3.44,0,0,0-2.11.69l-.64-1.18a4.88,4.88,0,0,1,2.94-.86C420.83,143,422,143.93,422,145.93Zm-1.62,1.9V147h-1.68c-1.11,0-1.4.42-1.4.92s.49,1,1.33,1A1.77,1.77,0,0,0,420.36,147.83Z"/><path class="bl" d="M423.84,140.94a1,1,0,0,1,1-1,1,1,0,0,1,1,.94,1,1,0,0,1-2.08,0Zm.22,2.12h1.63V150h-1.62Z"/><path class="bl" d="M434.66,146v4H433v-3.77c0-1.23-.61-1.83-1.65-1.83a1.84,1.84,0,0,0-1.94,2.09V150h-1.62v-6.94h1.55v.9a3,3,0,0,1,2.39-1A2.71,2.71,0,0,1,434.66,146Z"/><path class="bl" d="M443.29,147h-5.45a2.1,2.1,0,0,0,2.25,1.66A2.49,2.49,0,0,0,442,148l.87,1a3.9,3.9,0,0,1-6.63-2.43,3.45,3.45,0,0,1,3.59-3.55,3.39,3.39,0,0,1,3.51,3.59C443.32,146.7,443.3,146.89,443.29,147ZM437.83,146h3.94a1.89,1.89,0,0,0-2-1.69A1.92,1.92,0,0,0,437.83,146Z"/><path class="bl" d="M451.68,140.35V150h-1.56v-.9a2.86,2.86,0,0,1-2.3,1,3.56,3.56,0,0,1,0-7.11,2.84,2.84,0,0,1,2.24.94v-3.56Zm-1.6,6.18A2.07,2.07,0,1,0,448,148.7,2,2,0,0,0,450.08,146.53Z"/><path class="bl" d="M465.91,150v-6l-3,5h-.75l-3-4.91v6h-1.61v-9.1h1.39l3.61,6,3.55-6h1.39V150Z"/><path class="bl" d="M469.24,146.53a3.7,3.7,0,1,1,3.69,3.56A3.5,3.5,0,0,1,469.24,146.53Zm5.76,0a2.06,2.06,0,1,0-2.07,2.17A2,2,0,0,0,475,146.53Z"/><path class="bl" d="M485,140.35V150h-1.56v-.9a2.86,2.86,0,0,1-2.3,1,3.56,3.56,0,0,1,0-7.11,2.84,2.84,0,0,1,2.24.94v-3.56Zm-1.6,6.18a2.07,2.07,0,1,0-2.07,2.17A2,2,0,0,0,483.4,146.53Z"/><path class="bl" d="M493.63,147h-5.45a2.1,2.1,0,0,0,2.25,1.66,2.49,2.49,0,0,0,1.89-.75l.87,1a3.9,3.9,0,0,1-6.63-2.43,3.45,3.45,0,0,1,3.59-3.55,3.39,3.39,0,0,1,3.51,3.59C493.65,146.7,493.64,146.89,493.63,147ZM488.17,146h3.94a1.89,1.89,0,0,0-2-1.69A1.92,1.92,0,0,0,488.17,146Z"/><path class="bl" d="M495.21,140.35h1.63V150h-1.62Z"/></g></g><line class="bm" x1="445.07" y1="121.29" x2="477.72" y2="96.17"/><line class="bm" x1="445.07" y1="87.67" x2="477.72" y2="96.47"/><line class="bm" x1="445.07" y1="87.67" x2="477.72" y2="112.86"/><line class="bm" x1="445.07" y1="104.67" x2="477.72" y2="96.47"/><line class="bm" x1="445.07" y1="104.67" x2="477.72" y2="112.86"/><line class="bm" x1="445.07" y1="121.29" x2="477.72" y2="112.86"/><line class="bm" x1="409.83" y1="87.67" x2="445.07" y2="87.67"/><line class="bm" x1="409.83" y1="104.67" x2="445.07" y2="104.67"/><line class="bm" x1="477.73" y1="96.49" x2="489.62" y2="96.49"/><path class="bn" d="M488,98.59l.89-2.1-.89-2.1,5,2.1Z"/><line class="bm" x1="477.73" y1="112.86" x2="489.62" y2="112.86"/><path class="bn" d="M488,115l.89-2.1-.89-2.1,5,2.1Z"/><line class="bm" x1="409.83" y1="121.29" x2="445.07" y2="121.29"/><line class="bm" x1="409.83" y1="87.67" x2="445.07" y2="105.27"/><line class="bm" x1="409.83" y1="87.67" x2="445.07" y2="122.09"/><line class="bm" x1="409.83" y1="104.67" x2="445.07" y2="87.67"/><line class="bm" x1="409.83" y1="104.67" x2="445.07" y2="122.09"/><line class="bm" x1="409.83" y1="121.29" x2="445.07" y2="105.27"/><line class="bm" x1="409.83" y1="121.29" x2="445.07" y2="87.67"/><path class="bo" d="M412.67,87.67a2.83,2.83,0,0,0-2.83-2.83h0A2.83,2.83,0,0,0,407,87.67h0a2.83,2.83,0,0,0,2.83,2.83h0A2.83,2.83,0,0,0,412.67,87.67Z"/><path class="bo" d="M412.67,104.67a2.83,2.83,0,0,0-2.83-2.83h0a2.83,2.83,0,0,0-2.83,2.83h0a2.83,2.83,0,0,0,2.83,2.83h0A2.83,2.83,0,0,0,412.67,104.67Z"/><path class="bo" d="M412.67,121.29a2.83,2.83,0,0,0-2.83-2.83h0a2.83,2.83,0,0,0-2.83,2.83h0a2.83,2.83,0,0,0,2.83,2.83h0A2.83,2.83,0,0,0,412.67,121.29Z"/><path class="bp" d="M450.74,87.67A5.67,5.67,0,0,0,445.07,82h0a5.67,5.67,0,0,0-5.67,5.66h0a5.67,5.67,0,0,0,5.67,5.67h0a5.67,5.67,0,0,0,5.67-5.67Z"/><path class="bp" d="M450.74,104.67A5.67,5.67,0,0,0,445.07,99h0a5.67,5.67,0,0,0-5.67,5.67h0a5.67,5.67,0,0,0,5.67,5.67h0A5.67,5.67,0,0,0,450.74,104.67Z"/><path class="bp" d="M450.74,121.29a5.67,5.67,0,0,0-5.67-5.66h0a5.67,5.67,0,0,0-5.67,5.66h0a5.67,5.67,0,0,0,5.67,5.67h0a5.67,5.67,0,0,0,5.67-5.67Z"/><path class="bq" d="M483.39,96.17a5.67,5.67,0,0,0-5.66-5.67h0a5.67,5.67,0,0,0-5.67,5.67h0a5.67,5.67,0,0,0,5.67,5.67h0A5.67,5.67,0,0,0,483.39,96.17Z"/><path class="bq" d="M483.39,112.86a5.67,5.67,0,0,0-5.66-5.67h0a5.67,5.67,0,0,0-5.67,5.67h0a5.67,5.67,0,0,0,5.67,5.67h0A5.67,5.67,0,0,0,483.39,112.86Z"/></svg>