<?xml version="1.0" standalone="no"?>
<!DOCTYPE svg PUBLIC "-//W3C//DTD SVG 20010904//EN"
 "http://www.w3.org/TR/2001/REC-SVG-20010904/DTD/svg10.dtd">
<svg id="touchcloud-logo" version="1.0" xmlns="http://www.w3.org/2000/svg"
 width="553" height="553" viewBox="0 0 553 553"
 preserveAspectRatio="xMidYMid meet">
 
<g transform="translate(0.000000,553.000000) scale(0.100000,-0.100000)"
fill="#000000" stroke="none">
<path fill="#00afdf" d="M4404 4988 c-333 -208 -618 -465 -823 -741 -172 -232 -285 -461 -346
-702 -33 -130 -36 -155 -40 -310 -4 -159 8 -239 55 -390 55 -175 69 -227 94
-350 24 -119 29 -149 45 -295 8 -71 6 -417 -3 -470 -2 -14 -7 -46 -10 -70 -38
-275 -156 -579 -307 -789 l-60 -83 58 32 c78 43 180 112 223 150 166 146 263
267 344 428 63 125 124 310 141 428 4 21 8 46 10 54 2 8 7 42 10 75 3 33 8 76
11 95 6 41 6 389 0 440 -2 19 -7 71 -11 115 -3 44 -10 107 -15 140 -5 33 -11
80 -14 105 -4 25 -8 56 -10 70 -3 14 -7 43 -11 65 -3 22 -17 105 -32 185 -41
232 -39 466 8 675 59 262 220 577 426 834 77 95 256 281 328 339 22 18 37 32
34 32 -3 0 -50 -28 -105 -62z"/>
<path fill="#00afdf" d="M2954 4359 c-108 -81 -273 -253 -343 -358 -100 -150 -175 -330 -196
-467 -3 -22 -9 -61 -13 -89 -9 -60 -8 -207 3 -290 4 -33 8 -69 10 -80 11 -109
98 -414 155 -550 7 -16 18 -43 25 -60 48 -119 163 -351 222 -448 l35 -57 22
32 c12 18 93 133 179 255 86 122 157 225 157 229 0 6 -86 112 -101 124 -20 16
-172 227 -206 286 -109 186 -157 380 -157 624 1 87 5 133 19 200 2 14 7 39 11
55 27 134 115 371 199 533 30 59 53 108 51 109 -2 2 -34 -20 -72 -48z"/>
<path fill="#1b4c8f" d="M365 2817 c-40 -13 -84 -54 -101 -94 -18 -41 -20 -125 -4 -182 20
-76 180 -320 344 -525 111 -139 373 -401 466 -466 19 -13 37 -27 40 -31 12
-16 184 -121 265 -162 94 -46 225 -97 252 -97 9 0 -4 18 -33 43 -67 58 -215
208 -272 276 -26 30 -55 65 -66 76 -10 11 -62 79 -116 150 -174 231 -324 476
-460 751 -74 148 -122 209 -193 246 -47 24 -83 28 -122 15z"/>
<path fill="#1b4c8f" d="M3872 2802 c-12 -2 -20 -7 -18 -11 3 -4 10 -39 16 -77 6 -38 13 -80
15 -93 31 -176 21 -533 -19 -753 l-13 -67 38 39 c40 42 101 74 167 88 41 10
196 8 229 -2 10 -3 33 -8 51 -11 18 -3 74 -19 123 -35 l91 -30 29 24 c26 23
85 46 115 46 20 0 5 204 -22 310 -23 89 -46 152 -72 200 -109 198 -274 314
-512 359 -61 12 -182 19 -218 13z"/>
<path fill="#1b4c8f" d="M3249 2390 c-9 -14 -45 -74 -80 -135 -35 -60 -67 -114 -71 -120 -5
-5 -25 -35 -45 -65 -120 -181 -325 -403 -478 -517 -313 -234 -679 -392 -1000
-431 -76 -9 -314 -9 -381 1 -309 43 -620 178 -859 372 -30 25 -55 42 -55 39 0
-14 68 -135 119 -209 253 -374 587 -654 953 -799 73 -29 233 -73 288 -80 19
-2 51 -7 70 -11 86 -16 337 -11 448 10 15 3 41 7 57 10 171 32 372 115 513
212 147 100 308 294 394 473 36 75 94 231 102 273 2 12 9 40 15 62 18 68 40
210 48 307 14 178 7 478 -15 593 l-8 40 -15 -25z"/>
<path fill="#00afdf" d="M89 2210 c-30 -30 -31 -34 -25 -88 18 -152 251 -452 489 -628 220
-163 464 -253 752 -279 l70 -6 -121 69 c-227 131 -471 316 -629 478 -142 147
-190 202 -287 331 -87 114 -119 141 -177 149 -36 5 -44 2 -72 -26z"/>
<path fill="#1b4c8f" d="M5372 2203 c-43 -21 -64 -53 -69 -106 -2 -23 -18 -71 -35 -107 l-30
-65 -12 45 c-7 25 -19 58 -28 74 l-15 29 -36 -37 c-20 -20 -41 -53 -46 -72
-11 -38 2 -99 26 -125 13 -15 11 -19 -14 -37 -30 -21 -88 -52 -98 -52 -3 0 1
13 10 30 24 46 16 152 -14 200 -8 12 -16 9 -48 -16 -71 -58 -94 -135 -60 -203
17 -33 18 -32 -43 -35 -52 -2 -62 5 -105 87 -31 60 -42 74 -54 68 -9 -5 -38
-19 -65 -31 l-49 -22 49 -27 c79 -43 144 -91 144 -106 0 -8 5 -17 11 -21 19
-11 144 -4 195 11 47 14 49 14 74 -9 14 -13 36 -29 49 -36 35 -18 115 -14 166
9 40 18 45 23 36 40 -14 26 -62 65 -99 80 l-31 13 39 39 39 39 45 -12 c39 -10
51 -10 80 5 38 18 86 56 86 69 0 15 -63 40 -105 40 -42 1 -43 2 -34 26 5 14
28 41 51 62 40 35 42 40 46 103 5 75 1 78 -56 50z"/>
</g>
</svg>
