<svg xmlns="http://www.w3.org/2000/svg" width="25" height="25.036" viewBox="0 0 25 25.036">
    <defs>
        <style>
            .cls-1{fill:#fff}
        </style>
    </defs>
    <g id="phone-call" transform="translate(-.344)">
        <g id="Group_132" data-name="Group 132" transform="translate(.344)">
            <path id="Path_177" d="M20.113 41.467a2.462 2.462 0 0 0-1.786-.819 2.546 2.546 0 0 0-1.807.814l-1.67 1.664c-.137-.074-.275-.143-.407-.211-.19-.1-.37-.185-.523-.28a18.148 18.148 0 0 1-4.349-3.963 10.707 10.707 0 0 1-1.427-2.251c.433-.4.835-.808 1.226-1.2.148-.148.3-.3.444-.449a2.424 2.424 0 0 0 0-3.657l-1.442-1.447c-.164-.164-.333-.333-.491-.5a24.93 24.93 0 0 0-.993-.983 2.5 2.5 0 0 0-1.77-.777 2.588 2.588 0 0 0-1.8.777l-.011.011-1.8 1.812a3.866 3.866 0 0 0-1.141 2.455 9.263 9.263 0 0 0 .676 3.921 22.752 22.752 0 0 0 4.042 6.743 24.866 24.866 0 0 0 8.28 6.484 12.9 12.9 0 0 0 4.65 1.374c.111.005.227.011.333.011a3.982 3.982 0 0 0 3.049-1.31c.005-.011.016-.016.021-.026a12.015 12.015 0 0 1 .925-.956c.227-.217.46-.444.687-.682a2.636 2.636 0 0 0 .8-1.828 2.54 2.54 0 0 0-.814-1.812zM22 47.031c-.005 0-.005.005 0 0-.206.222-.417.423-.645.645a13.9 13.9 0 0 0-1.02 1.057 2.547 2.547 0 0 1-1.987.84c-.079 0-.164 0-.243-.005a11.461 11.461 0 0 1-4.122-1.236 23.472 23.472 0 0 1-7.8-6.108 21.452 21.452 0 0 1-3.8-6.336 7.545 7.545 0 0 1-.592-3.308 2.426 2.426 0 0 1 .729-1.569l1.8-1.8a1.2 1.2 0 0 1 .8-.375 1.13 1.13 0 0 1 .771.37l.016.016c.322.3.629.613.951.946.164.169.333.338.5.513l1.452 1.438a1.008 1.008 0 0 1 0 1.638c-.153.153-.3.306-.454.454-.444.454-.867.877-1.326 1.289-.011.011-.021.016-.026.026a1.078 1.078 0 0 0-.275 1.2l.016.048a11.581 11.581 0 0 0 1.707 2.785l.005.005a19.394 19.394 0 0 0 4.692 4.27 7.213 7.213 0 0 0 .65.354c.19.1.37.185.523.28.021.011.042.026.063.037a1.145 1.145 0 0 0 .523.132 1.13 1.13 0 0 0 .8-.365l1.807-1.807a1.2 1.2 0 0 1 .8-.4 1.076 1.076 0 0 1 .761.386l.011.011L22 45.377a1.045 1.045 0 0 1 0 1.654z" class="cls-1" data-name="Path 177" transform="translate(-.344 -25.958)"/>
            <path id="Path_178" d="M245.531 87.34a6.8 6.8 0 0 1 5.538 5.538.709.709 0 0 0 .7.592.943.943 0 0 0 .122-.011.714.714 0 0 0 .587-.824 8.223 8.223 0 0 0-6.7-6.7.717.717 0 0 0-.824.581.706.706 0 0 0 .577.824z" class="cls-1" data-name="Path 178" transform="translate(-232.019 -81.385)"/>
            <path id="Path_179" d="M260.637 11.044A13.54 13.54 0 0 0 249.6.011a.712.712 0 1 0-.233 1.406 12.094 12.094 0 0 1 9.86 9.86.709.709 0 0 0 .7.592.945.945 0 0 0 .122-.011.7.7 0 0 0 .588-.814z" class="cls-1" data-name="Path 179" transform="translate(-235.648)"/>
        </g>
    </g>
</svg>
