<svg xmlns="http://www.w3.org/2000/svg" xmlns:xlink="http://www.w3.org/1999/xlink" width="195" height="807" viewBox="0 0 195 807"><defs><style>.a,.ad,.ak,.am,.ao,.bc,.r{isolation:isolate;}.b{fill:#333c4e;}.c{fill:#e0e0e0;}.d{fill:#f9f9f9;}.e{fill:#bababa;}.f{fill:#858585;}.g{fill:#8c8c8c;}.h{fill:#666;}.i{fill:#878787;}.j{fill:#4a4a4a;}.k{fill:#a6a6a6;}.l{fill:#dbab83;}.m{fill:#cf4040;}.n{fill:#99bd7a;}.o{fill:#0d2a4a;}.p{fill:#3d3d3d;}.q{fill:#2d343d;}.ad,.r,.z{fill:#fff;}.r{opacity:0.05;}.s{fill:#e6c536;}.au,.t{fill:none;stroke-miterlimit:10;}.t{stroke:#878787;stroke-linecap:round;stroke-width:0.78px;}.u{fill:#383c48;}.v{fill:#ccced0;}.w{fill:#c0d7ed;}.x{fill:#acb4b9;}.y{fill:#29abe2;}.aa{fill:#46c596;}.ab{fill:#5b6b69;}.ac{fill:#1a222b;}.ad{opacity:0.5;}.ae{fill:#00a8d6;}.af{fill:url(#a);}.ag{fill:#4a7899;}.ah{fill:url(#b);}.ai{fill:url(#c);}.aj{fill:url(#d);}.ak,.am,.ao,.bc{opacity:0.75;}.ak{fill:url(#e);}.al{fill:url(#f);}.am{fill:url(#g);}.an{fill:url(#h);}.ao{fill:url(#i);}.ap{fill:url(#j);}.aq{fill:#2b8bd3;}.ar{fill:#2bc3d3;}.as{fill:#904040;}.at{fill:#7e8890;}.au{stroke:#d7e0e9;}.av{fill:#d7e0e9;}.aw{fill:#cbd1c6;}.ax{fill:#ab9990;}.ay{fill:#4d4d4f;}.az{fill:red;}.ba{fill:#44454a;}.bb{fill:#4a5561;}.bd{fill:#adadad;}.be{fill:#3a495e;}.bf{fill:#42536b;}.bg{fill:#e6e6e6;}.bh{fill:#b52d2d;}.bi{fill:#6dcf40;}.bj{fill:#57a633;}.bk{fill:#9e9e9e;}.bl{fill:#ccc;}.bm{fill:#8b8b8b;}.bn{fill:#9c9c9c;}.bo{fill:#636363;}.bp{fill:#dfe82d;}.bq{fill:#d16666;}</style><linearGradient id="a" x1="-573.55" y1="787.79" x2="-572.55" y2="787.79" gradientTransform="matrix(51.11, 0, 0, -70, 29384.7, 55379)" gradientUnits="userSpaceOnUse"><stop offset="0.05" stop-color="#eeeff4"/><stop offset="0.1" stop-color="#c4c3c9"/><stop offset="0.35" stop-color="#d3d4d9"/><stop offset="0.59" stop-color="#a9aaaf"/><stop offset="0.6" stop-color="#aaacb1"/><stop offset="0.67" stop-color="#babdc4"/><stop offset="0.76" stop-color="#c3c8d0"/><stop offset="0.84" stop-color="#c7ccd4"/><stop offset="0.9" stop-color="#c9ced6"/><stop offset="0.94" stop-color="#d3d6de"/><stop offset="0.98" stop-color="#e2e5ea"/><stop offset="1" stop-color="#eeeff4"/></linearGradient><linearGradient id="b" x1="-575.17" y1="788.65" x2="-574.17" y2="788.65" gradientTransform="matrix(59.5, 0, 0, -17.36, 34289.92, 13902.56)" gradientUnits="userSpaceOnUse"><stop offset="0" stop-color="#5f5b6a"/><stop offset="0.18" stop-color="#100b21"/><stop offset="0.58" stop-color="#1f1a2e"/><stop offset="0.75" stop-color="#aca9b1"/><stop offset="0.82" stop-color="#5f5b6a"/></linearGradient><linearGradient id="c" x1="-575.17" y1="788.65" x2="-574.17" y2="788.65" gradientTransform="matrix(59.5, 0, 0, -17.36, 34289.92, 13924.11)" xlink:href="#b"/><linearGradient id="d" x1="-575.17" y1="788.65" x2="-574.17" y2="788.65" gradientTransform="matrix(59.5, 0, 0, -17.36, 34289.92, 13945.66)" xlink:href="#b"/><linearGradient id="e" x1="-575.15" y1="802.23" x2="-574.15" y2="802.23" gradientTransform="matrix(59.39, 0, 0, -1.36, 34225.63, 1292.98)" xlink:href="#b"/><linearGradient id="f" x1="-575.17" y1="798.62" x2="-574.17" y2="798.62" gradientTransform="matrix(59.5, 0, 0, -1.8, 34290.5, 1655.26)" xlink:href="#b"/><linearGradient id="g" x1="-575.17" y1="798.95" x2="-574.17" y2="798.95" gradientTransform="matrix(59.49, 0, 0, -1.75, 34286.4, 1621.06)" xlink:href="#b"/><linearGradient id="h" x1="-575.17" y1="798.68" x2="-574.17" y2="798.68" gradientTransform="matrix(59.5, 0, 0, -1.79, 34290.5, 1669.73)" xlink:href="#b"/><linearGradient id="i" x1="-575.16" y1="800.83" x2="-574.16" y2="800.83" gradientTransform="matrix(59.44, 0, 0, -1.5, 34257.77, 1447.98)" xlink:href="#b"/><linearGradient id="j" x1="-575.17" y1="797.99" x2="-574.17" y2="797.99" gradientTransform="matrix(59.5, 0, 0, -1.91, 34290.5, 1783.36)" xlink:href="#b"/></defs><title>aoi_flow_m</title><g class="a"><g class="a"><path class="b" d="M62.19,117.89H57.64l-.9,2.11H55l4.1-9.1h1.66l4.11,9.1H63.1Zm-.56-1.33-1.72-4-1.7,4Z"/><path class="b" d="M65.25,115.45a4.91,4.91,0,1,1,4.9,4.68A4.66,4.66,0,0,1,65.25,115.45Zm8.1,0a3.2,3.2,0,1,0-3.2,3.2A3.1,3.1,0,0,0,73.35,115.45Z"/><path class="b" d="M76.84,110.9h1.69V120H76.84Z"/><path class="b" d="M92.94,120v-6l-3,5h-.75l-3-4.91v6H84.58v-9.1H86l3.61,6,3.55-6h1.39V120Z"/><path class="b" d="M102.65,115.93V120h-1.53v-.84a2.46,2.46,0,0,1-2.18.94c-1.59,0-2.59-.87-2.59-2.08s.78-2.07,2.89-2.07H101v-.1c0-.95-.57-1.51-1.73-1.51a3.44,3.44,0,0,0-2.11.69l-.64-1.18a4.88,4.88,0,0,1,2.94-.86C101.49,113,102.65,113.93,102.65,115.93Zm-1.62,1.9V117H99.35c-1.11,0-1.4.42-1.4.92s.49,1,1.33,1A1.77,1.77,0,0,0,101,117.83Z"/><path class="b" d="M104.22,116.53A3.51,3.51,0,0,1,108,113a3.13,3.13,0,0,1,3,1.61l-1.25.73a2,2,0,0,0-1.73-1,2.17,2.17,0,0,0,0,4.34,2,2,0,0,0,1.73-1l1.25.73a3.16,3.16,0,0,1-3,1.63A3.52,3.52,0,0,1,104.22,116.53Z"/><path class="b" d="M119.12,116v4h-1.62v-3.77c0-1.23-.61-1.83-1.65-1.83a1.84,1.84,0,0,0-1.94,2.09V120h-1.62v-9.65h1.63v3.51a3.1,3.1,0,0,1,2.31-.88A2.71,2.71,0,0,1,119.12,116Z"/><path class="b" d="M121,110.94a1,1,0,0,1,1-1,1,1,0,0,1,1,.94,1,1,0,0,1-2.08,0Zm.22,2.12h1.63V120h-1.62Z"/><path class="b" d="M131.78,116v4h-1.62v-3.77c0-1.23-.61-1.83-1.65-1.83a1.84,1.84,0,0,0-1.94,2.09V120h-1.62v-6.94h1.55v.9a3,3,0,0,1,2.39-1A2.71,2.71,0,0,1,131.78,116Z"/><path class="b" d="M140.41,117H135a2.1,2.1,0,0,0,2.25,1.66,2.49,2.49,0,0,0,1.89-.75l.87,1a3.9,3.9,0,0,1-6.63-2.43,3.45,3.45,0,0,1,3.59-3.55,3.39,3.39,0,0,1,3.51,3.59C140.44,116.7,140.42,116.89,140.41,117ZM135,116h3.94a1.89,1.89,0,0,0-2-1.69A1.92,1.92,0,0,0,135,116Z"/></g></g><rect class="c" x="133.83" width="1.55" height="7.77" rx="0.32" ry="0.32"/><rect class="d" x="134.22" y="7.77" width="0.77" height="3.89"/><rect class="c" x="79.2" y="11.66" width="60.8" height="75.43"/><rect class="e" x="79.2" y="87.09" width="60.8" height="3.32"/><path class="f" d="M87.17,92H83.59A1.56,1.56,0,0,1,82,90.43h0v0h6.69v0A1.56,1.56,0,0,1,87.17,92Z"/><path class="f" d="M135.61,92H132a1.56,1.56,0,0,1-1.56-1.57h0v0h6.69v0A1.56,1.56,0,0,1,135.61,92Z"/><path class="g" d="M79.2,87.84v-.74H140v.19Z"/><rect class="h" x="85.38" y="45.21" width="48.44" height="0.33"/><rect class="i" x="85.38" y="44.83" width="48.44" height="0.38"/><path class="j" d="M138.34,41A1.64,1.64,0,0,1,136,41h0a1.67,1.67,0,0,1,0-2.35,1.64,1.64,0,0,1,2.32,0h0A1.67,1.67,0,0,1,138.34,41Z"/><path class="k" d="M138.25,40.88a1.52,1.52,0,0,1-2.15,0h0a1.54,1.54,0,0,1,0-2.17,1.52,1.52,0,0,1,2.15,0h0A1.54,1.54,0,0,1,138.25,40.88Z"/><ellipse class="l" cx="137.17" cy="39.8" rx="1.22" ry="1.23"/><path class="m" d="M137.35,39.27a.3.3,0,0,1-.42-.42.29.29,0,0,1,.42,0h0A.3.3,0,0,1,137.35,39.27Z"/><ellipse class="m" cx="137.17" cy="31.15" rx="1.86" ry="1.87"/><ellipse class="n" cx="137.17" cy="35.28" rx="0.85" ry="0.85"/><rect class="h" x="84.67" y="11.66" width="0.33" height="75.43"/><rect class="i" x="85.01" y="11.66" width="0.37" height="75.43"/><rect class="h" x="134.2" y="11.66" width="0.33" height="75.43"/><rect class="i" x="133.83" y="11.66" width="0.37" height="75.43"/><rect class="o" x="85.38" y="11.66" width="48.45" height="33.17"/><rect class="p" x="91.99" y="14.18" width="35.23" height="28.13" rx="0.58" ry="0.58"/><rect class="q" x="91.99" y="14.18" width="35.23" height="28.13" rx="0.58" ry="0.58"/><path class="r" d="M126.19,41.85,92.57,15.12a.56.56,0,0,1,.56-.56h33.07a.56.56,0,0,1,.56.56h0V41.29A.56.56,0,0,1,126.19,41.85Z"/><rect class="m" x="133.83" y="1.55" width="1.55" height="1.55"/><rect class="s" x="133.83" y="3.11" width="1.55" height="1.55"/><rect class="n" x="133.83" y="4.66" width="1.55" height="1.55"/><rect class="q" x="80.06" y="49.1" width="3.86" height="3.89"/><line class="t" x1="71.84" y1="37.64" x2="81.88" y2="50.85"/><path class="u" d="M81.28,20.16l0,0a1.9,1.9,0,0,0,.14-.32.76.76,0,0,0-.13-.72L81.16,19c.2-.15.3-.46,0-.61a.71.71,0,0,0-1,.17c-.27.43,0,.8.44,1,.15.06-.22.32-.29.34l-.26,0a.52.52,0,0,0-.42.44.6.6,0,0,0,.24.52,1.73,1.73,0,0,0,.28.15l.18.05v0a.48.48,0,0,0,.43.53h.1a.73.73,0,0,0,.62-.6C81.64,20.64,81.45,20.47,81.28,20.16Z"/><path class="u" d="M79.74,21.27c-.27,0-.32.42,0,.42S80,21.27,79.74,21.27Z"/><path class="u" d="M80.57,26.91a.62.62,0,0,0-.67.53.61.61,0,0,0,.53.67.62.62,0,0,0,.67-.53A.61.61,0,0,0,80.57,26.91Z"/><path class="v" d="M71.5,25.61H67.21V38h8.58V25.61Z"/><path class="u" d="M55.75,8.63h31.5a.75.75,0,0,1,.75.74h0V30.76a.74.74,0,0,1-.74.75H55.75a.75.75,0,0,1-.75-.75V9.37A.75.75,0,0,1,55.75,8.63Z"/><path class="w" d="M56.94,9.77H86.06a.74.74,0,0,1,.74.74h0V29.63a.74.74,0,0,1-.73.74H56.94a.73.73,0,0,1-.74-.73h0V10.5A.74.74,0,0,1,56.94,9.77Z"/><rect class="x" x="59.86" y="36.47" width="23.18" height="1.55" rx="0.78" ry="0.78"/><path class="y" d="M61.74,28.77h-.18V26.46l.67-.68V24.42h.18v1.42l-.68.68Z"/><path class="z" d="M61.41,28.77a.23.23,0,0,0,.23.23h0a.23.23,0,0,0,.23-.23h0a.23.23,0,0,0-.23-.23h0A.23.23,0,0,0,61.41,28.77Z"/><path class="y" d="M62.52,27.86h-.19V26.45l.67-.68V24.42h.18v1.42l-.67.68Z"/><path class="z" d="M62.2,27.87a.23.23,0,0,0,.23.23h0a.23.23,0,0,0,.23-.23h0a.23.23,0,0,0-.23-.23h0a.23.23,0,0,0-.23.23Z"/><path class="y" d="M64.19,28.63H64V27.22l.68-.68c0-.37,0-2.31,0-2.39h.18v2.45l-.68.68Z"/><path class="z" d="M63.87,28.63a.23.23,0,0,0,.23.23h0a.23.23,0,0,0,.23-.23h0a.23.23,0,0,0-.23-.23h0A.23.23,0,0,0,63.87,28.63Z"/><path class="y" d="M65.54,29.24h-.19V27.7l.45-.45v-.85L65.43,26V24.57h.18V26l.37.37v1l-.45.45Z"/><path class="z" d="M65.22,29.14a.23.23,0,0,0,.23.23h0a.23.23,0,0,0,.23-.23h0a.23.23,0,0,0-.23-.23h0A.23.23,0,0,0,65.22,29.14Z"/><rect class="y" x="66.24" y="19.89" width="0.19" height="6.25"/><path class="z" d="M66.12,26.14a.23.23,0,0,0,.23.23h0a.23.23,0,0,0,.23-.23h0a.23.23,0,0,0-.23-.23h0A.23.23,0,0,0,66.12,26.14Z"/><path class="y" d="M63.09,27.47h-.18v-.85l.9-.9.13.13-.84.85Z"/><path class="z" d="M62.77,27.4a.23.23,0,0,0,.23.23h0a.23.23,0,0,0,.23-.23h0a.23.23,0,0,0-.23-.23h0A.23.23,0,0,0,62.77,27.4Z"/><rect class="y" x="63.81" y="21.22" width="0.19" height="5.52"/><path class="z" d="M63.67,26.74a.23.23,0,0,0,.23.23h0a.23.23,0,0,0,.23-.23h0a.23.23,0,0,0-.23-.23h0a.23.23,0,0,0-.23.23Z"/><path class="y" d="M69.43,26.2h-.18v-.61l.23-.23v-1.6h.18v1.67l-.23.23Z"/><path class="z" d="M69.58,26.2a.23.23,0,0,1-.23.23h0a.23.23,0,0,1-.23-.23h0a.23.23,0,0,1,.23-.23h0A.23.23,0,0,1,69.58,26.2Z"/><rect class="y" x="68.67" y="20.76" width="0.19" height="6.25"/><path class="z" d="M68.53,27a.23.23,0,0,0,.23.23h0A.23.23,0,0,0,69,27h0a.23.23,0,0,0-.23-.23h0A.23.23,0,0,0,68.53,27Z"/><path class="y" d="M68.15,29.3H68V28l-.56-.57V26.17l.46-.47v-.81h.19v.89l-.46.47v1.08l.56.57Z"/><path class="z" d="M67.83,29.3a.23.23,0,0,0,.23.23h0a.23.23,0,0,0,.23-.23h0a.23.23,0,0,0-.23-.23h0A.23.23,0,0,0,67.83,29.3Z"/><rect class="y" x="67.05" y="20.13" width="0.19" height="8.47"/><path class="z" d="M66.91,28.54a.23.23,0,0,0,.23.23h0a.23.23,0,0,0,.23-.23h0a.23.23,0,0,0-.23-.23h0A.23.23,0,0,0,66.91,28.54Z"/><path class="y" d="M69.83,28.31h-.18v-1.5l.63-.63v-2h.18v2l-.63.64Z"/><path class="z" d="M69.51,28.31a.23.23,0,0,0,.23.23h0a.23.23,0,0,0,.23-.23h0a.23.23,0,0,0-.23-.23h0A.23.23,0,0,0,69.51,28.31Z"/><rect class="z" x="70.16" y="24.31" width="0.43" height="0.61"/><rect class="z" x="66.93" y="24.31" width="0.43" height="0.61"/><rect class="z" x="69.35" y="24.31" width="0.43" height="0.61"/><rect class="z" x="68.54" y="24.31" width="0.43" height="0.61"/><rect class="z" x="67.74" y="24.31" width="0.43" height="0.61"/><rect class="z" x="64.52" y="24.31" width="0.43" height="0.61"/><rect class="z" x="66.13" y="24.31" width="0.43" height="0.61"/><rect class="z" x="65.32" y="24.31" width="0.43" height="0.61"/><rect class="z" x="63.71" y="24.31" width="0.43" height="0.61"/><rect class="z" x="62.91" y="24.31" width="0.43" height="0.61"/><rect class="z" x="62.1" y="24.31" width="0.43" height="0.61"/><path class="y" d="M60.71,16.34,60,15.66H57.8v-.19h2.3l.68.68h1.35v.19H60.71Z"/><path class="z" d="M57.8,15.34a.23.23,0,0,0-.23.23h0a.23.23,0,0,0,.23.23h0a.23.23,0,0,0,.23-.23h0A.23.23,0,0,0,57.8,15.34Z"/><path class="y" d="M60.71,17.14,60,16.46H58.7v-.19h1.4l.68.68h1.35v.19H60.71Z"/><path class="z" d="M58.7,16.13a.23.23,0,0,0-.23.23h0a.23.23,0,0,0,.23.23h0a.23.23,0,0,0,.23-.23h0A.23.23,0,0,0,58.7,16.13Z"/><path class="y" d="M59.95,18.81l-.67-.68H57.95v-.19h1.4l.68.68H62.4v.19H59.95Z"/><path class="z" d="M57.95,17.81a.23.23,0,0,0-.23.23h0a.23.23,0,0,0,.23.23h0a.23.23,0,0,0,.23-.23h0a.23.23,0,0,0-.23-.23Z"/><path class="y" d="M60.23,19.93h-1l-.45-.45H57.34V19.3h1.53l.45.45h.84l.37-.37H62v.19H60.6Z"/><path class="z" d="M57.44,19.16a.23.23,0,0,0-.23.23h0a.23.23,0,0,0,.23.23h0a.23.23,0,0,0,.23-.23h0A.23.23,0,0,0,57.44,19.16Z"/><rect class="y" x="60.42" y="20.19" width="6.21" height="0.19"/><path class="z" d="M60.42,20.07a.23.23,0,0,0-.23.23h0a.23.23,0,0,0,.23.23h0a.23.23,0,0,0,.23-.23h0a.23.23,0,0,0-.23-.23Z"/><path class="y" d="M60.71,17.87,59.87,17H59.1v-.19h.85l.9.9Z"/><path class="z" d="M59.17,16.7a.23.23,0,0,0-.23.23h0a.23.23,0,0,0,.23.23h0a.23.23,0,0,0,.23-.23h0A.23.23,0,0,0,59.17,16.7Z"/><rect class="y" x="59.83" y="17.75" width="5.49" height="0.19"/><path class="z" d="M59.82,17.61a.23.23,0,0,0-.23.23h0a.23.23,0,0,0,.23.23h0a.23.23,0,0,0,.23-.23h0a.23.23,0,0,0-.23-.23Z"/><path class="y" d="M62.79,23.63H61.13l-.23-.23h-.54v-.19H61l.23.23h1.59Z"/><path class="z" d="M60.36,23.55a.23.23,0,0,1-.23-.23h0a.23.23,0,0,1,.23-.23h0a.23.23,0,0,1,.23.23h0A.23.23,0,0,1,60.36,23.55Z"/><rect class="y" x="59.56" y="22.63" width="6.21" height="0.19"/><path class="z" d="M59.56,22.5a.23.23,0,0,0-.23.23h0a.23.23,0,0,0,.23.23h0a.23.23,0,0,0,.23-.23h0a.23.23,0,0,0-.23-.23Z"/><path class="y" d="M58.68,22.11h-1.4v-.19H58.6l.56-.57H60.4l.46.47h.81V22h-.89l-.46-.47H59.24Z"/><path class="z" d="M57.28,21.79a.23.23,0,0,0-.23.23h0a.23.23,0,0,0,.23.23h0a.23.23,0,0,0,.23-.23h0A.23.23,0,0,0,57.28,21.79Z"/><rect class="y" x="57.98" y="21" width="8.42" height="0.19"/><path class="z" d="M58,20.87a.23.23,0,0,0-.23.23h0a.23.23,0,0,0,.23.23h0a.23.23,0,0,0,.23-.23h0A.23.23,0,0,0,58,20.87Z"/><path class="y" d="M62.34,24.44h-2l-.63-.64H58.26v-.19h1.5l.63.63h2Z"/><path class="z" d="M58.26,23.48a.23.23,0,0,0-.23.23h0a.23.23,0,0,0,.23.23h0a.23.23,0,0,0,.23-.23h0A.23.23,0,0,0,58.26,23.48Z"/><rect class="z" x="61.63" y="24.13" width="0.61" height="0.44"/><rect class="z" x="61.63" y="20.89" width="0.61" height="0.44"/><rect class="z" x="61.63" y="23.32" width="0.61" height="0.44"/><rect class="z" x="61.63" y="22.51" width="0.61" height="0.44"/><rect class="z" x="61.63" y="21.7" width="0.61" height="0.44"/><rect class="z" x="61.63" y="18.46" width="0.61" height="0.44"/><rect class="z" x="61.63" y="20.08" width="0.61" height="0.44"/><rect class="z" x="61.63" y="19.27" width="0.61" height="0.44"/><rect class="z" x="61.63" y="17.65" width="0.61" height="0.44"/><rect class="z" x="61.63" y="16.84" width="0.61" height="0.44"/><rect class="z" x="61.63" y="16.03" width="0.61" height="0.44"/><path class="y" d="M70.46,16.17h-.18V14.73l.68-.68V11.81h.18v2.32l-.68.68C70.46,15.05,70.47,16.09,70.46,16.17Z"/><path class="z" d="M71.28,11.81a.23.23,0,0,0-.23-.23h0a.23.23,0,0,0-.23.23h0A.23.23,0,0,0,71,12h0A.23.23,0,0,0,71.28,11.81Z"/><path class="y" d="M69.68,16.16h-.18V14.73l.67-.68V12.72h.18v1.41l-.67.68C69.68,15.05,69.68,16.09,69.68,16.16Z"/><path class="z" d="M70.49,12.72a.23.23,0,0,0-.23-.23h0a.23.23,0,0,0-.23.23h0a.23.23,0,0,0,.23.23h0A.23.23,0,0,0,70.49,12.72Z"/><path class="y" d="M68.85,16.22h-.18c0-.07,0-1.08,0-1.74v0l.85-.86V11.88h.18v1.77l-.85.86C68.85,14.79,68.86,16.13,68.85,16.22Z"/><path class="z" d="M69.84,11.88a.23.23,0,0,0-.23-.23h0a.23.23,0,0,0-.23.23h0a.23.23,0,0,0,.23.23h0A.23.23,0,0,0,69.84,11.88Z"/><path class="y" d="M68,16.21h-.18v-.89l.46-.47V13.78l-.56-.57V11.29h.18v1.85l.56.57v1.24L68,15.4Z"/><path class="z" d="M67.61,11.29a.23.23,0,0,1,.23-.23h0a.23.23,0,0,1,.23.23h0a.23.23,0,0,1-.23.23h0A.23.23,0,0,1,67.61,11.29Z"/><path class="y" d="M66.44,14l-.13-.13.84-.85V12.2h.18v.85Z"/><path class="z" d="M67.47,12.27a.23.23,0,0,0-.23-.23h0a.23.23,0,0,0-.23.23h0a.23.23,0,0,0,.23.23h0a.23.23,0,0,0,.23-.23Z"/><rect class="y" x="67.07" y="14.26" width="0.19" height="6.25"/><path class="z" d="M67.38,14.26a.23.23,0,0,0-.23-.23h0a.23.23,0,0,0-.23.23h0a.23.23,0,0,0,.23.23h0A.23.23,0,0,0,67.38,14.26Z"/><rect class="y" x="66.25" y="12.94" width="0.19" height="5.52"/><path class="z" d="M66.57,12.94a.23.23,0,0,0-.23-.23h0a.23.23,0,0,0-.23.23h0a.23.23,0,0,0,.23.23h0a.23.23,0,0,0,.23-.23Z"/><path class="y" d="M63.22,16.83H63V15.15l.23-.23v-.54h.18V15l-.23.23Z"/><path class="z" d="M63.11,14.38a.23.23,0,0,1,.23-.23h0a.23.23,0,0,1,.23.23h0a.23.23,0,0,1-.23.23h0A.23.23,0,0,1,63.11,14.38Z"/><rect class="y" x="63.84" y="13.58" width="0.19" height="6.25"/><path class="z" d="M64.16,13.58a.23.23,0,0,0-.23-.23h0a.23.23,0,0,0-.23.23h0a.23.23,0,0,0,.23.23h0a.23.23,0,0,0,.23-.23Z"/><path class="y" d="M64.82,15.7h-.18v-.89l.46-.47V13.26l-.56-.57V11.29h.18v1.33l.56.57v1.24l-.46.47Z"/><path class="z" d="M64.86,11.29a.23.23,0,0,0-.23-.23h0a.23.23,0,0,0-.23.23h0a.23.23,0,0,0,.23.23h0a.23.23,0,0,0,.23-.23Z"/><rect class="y" x="65.46" y="11.99" width="0.19" height="8.47"/><path class="z" d="M65.78,12a.23.23,0,0,0-.23-.23h0a.23.23,0,0,0-.23.23h0a.23.23,0,0,0,.23.23h0a.23.23,0,0,0,.23-.23Z"/><path class="y" d="M62.41,16.38h-.18v-2l.63-.64V12.27H63v1.5l-.63.64Z"/><path class="z" d="M63.18,12.27A.23.23,0,0,0,63,12h0a.23.23,0,0,0-.23.23h0a.23.23,0,0,0,.23.23h0a.23.23,0,0,0,.23-.23Z"/><rect class="z" x="62.1" y="15.66" width="0.43" height="0.61"/><rect class="z" x="65.32" y="15.66" width="0.43" height="0.61"/><rect class="z" x="62.91" y="15.66" width="0.43" height="0.61"/><rect class="z" x="63.71" y="15.66" width="0.43" height="0.61"/><rect class="z" x="64.52" y="15.66" width="0.43" height="0.61"/><rect class="z" x="67.74" y="15.66" width="0.43" height="0.61"/><rect class="z" x="66.13" y="15.66" width="0.43" height="0.61"/><rect class="z" x="66.93" y="15.66" width="0.43" height="0.61"/><rect class="z" x="68.54" y="15.66" width="0.43" height="0.61"/><rect class="z" x="69.35" y="15.66" width="0.43" height="0.61"/><rect class="z" x="70.15" y="15.66" width="0.43" height="0.61"/><path class="y" d="M75,25.12h-2.3l-.67-.68H70.71v-.19h1.41l.68.68H75Z"/><path class="z" d="M75,25.25a.23.23,0,0,0,.23-.23h0a.23.23,0,0,0-.23-.23h0a.23.23,0,0,0-.23.23h0A.23.23,0,0,0,75,25.25Z"/><path class="y" d="M74.13,24.32h-1.4l-.67-.68H70.71v-.19h1.41l.68.68h1.33Z"/><path class="z" d="M74.13,24.46a.23.23,0,0,0,.23-.23h0a.23.23,0,0,0-.23-.23h0a.23.23,0,0,0-.23.23h0a.23.23,0,0,0,.23.23Z"/><path class="y" d="M75,23.67H73.21l-.85-.86H70.65v-.19h1.77l.85.86H75Z"/><path class="z" d="M75,23.81a.23.23,0,0,0,.23-.23h0a.23.23,0,0,0-.23-.23h0a.23.23,0,0,0-.23.23h0A.23.23,0,0,0,75,23.81Z"/><path class="y" d="M73.16,22.46H71.93L71.47,22h-.81v-.19h.88l.46.47h1.08l.56-.57h1.91v.19H73.72Z"/><path class="z" d="M75.56,21.57a.23.23,0,0,1,.23.23h0a.23.23,0,0,1-.23.23h0a.23.23,0,0,1-.23-.23h0a.23.23,0,0,1,.23-.23Z"/><path class="y" d="M74.65,21.29H73.8l-.9-.9.13-.13.84.85h.77Z"/><path class="z" d="M74.58,21.43a.23.23,0,0,0,.23-.23h0a.23.23,0,0,0-.23-.23h0a.23.23,0,0,0-.23.23h0A.23.23,0,0,0,74.58,21.43Z"/><rect class="y" x="66.39" y="21.02" width="6.21" height="0.19"/><path class="z" d="M72.6,21.33a.23.23,0,0,0,.23-.23h0a.23.23,0,0,0-.23-.23h0a.23.23,0,0,0-.23.23h0A.23.23,0,0,0,72.6,21.33Z"/><rect class="y" x="68.43" y="20.2" width="5.49" height="0.19"/><path class="z" d="M73.92,20.52a.23.23,0,0,0,.23-.23h0a.23.23,0,0,0-.23-.23h0a.23.23,0,0,0-.23.23h0a.23.23,0,0,0,.23.23Z"/><path class="y" d="M72.48,17.38h-.61l-.23-.23H70V17h1.66l.23.23h.53Z"/><path class="z" d="M72.48,17a.23.23,0,0,1,.23.23h0a.23.23,0,0,1-.23.23h0a.23.23,0,0,1-.23-.23h0A.23.23,0,0,1,72.48,17Z"/><rect class="y" x="67.06" y="17.77" width="6.21" height="0.19"/><path class="z" d="M73.27,18.09a.23.23,0,0,0,.23-.23h0a.23.23,0,0,0-.23-.23h0a.23.23,0,0,0-.23.23h0A.23.23,0,0,0,73.27,18.09Z"/><path class="y" d="M73.67,19.23H72.44L72,18.76h-.81v-.18h.88l.46.47H73.6l.56-.57h1.4v.19H74.24Z"/><path class="z" d="M75.56,18.8a.23.23,0,0,0,.23-.23h0a.23.23,0,0,0-.23-.23h0a.23.23,0,0,0-.23.23h0A.23.23,0,0,0,75.56,18.8Z"/><rect class="y" x="66.44" y="19.4" width="8.42" height="0.19"/><path class="z" d="M74.81,19.72a.23.23,0,0,0,.23-.23h0a.23.23,0,0,0-.23-.23h0a.23.23,0,0,0-.23.23h0A.23.23,0,0,0,74.81,19.72Z"/><path class="y" d="M74.58,17h-1.5l-.63-.63h-2v-.19h2l.63.64h1.42Z"/><path class="z" d="M74.58,17.11a.23.23,0,0,0,.23-.23h0a.23.23,0,0,0-.23-.23h0a.23.23,0,0,0-.23.23h0A.23.23,0,0,0,74.58,17.11Z"/><rect class="z" x="70.64" y="16.03" width="0.61" height="0.44"/><rect class="z" x="70.64" y="19.26" width="0.61" height="0.44"/><rect class="z" x="70.64" y="16.84" width="0.61" height="0.44"/><rect class="z" x="70.64" y="17.65" width="0.61" height="0.44"/><rect class="z" x="70.64" y="18.45" width="0.61" height="0.44"/><rect class="z" x="70.64" y="21.69" width="0.61" height="0.44"/><rect class="z" x="70.64" y="20.07" width="0.61" height="0.44"/><rect class="z" x="70.64" y="20.88" width="0.61" height="0.44"/><rect class="z" x="70.64" y="22.5" width="0.61" height="0.44"/><rect class="z" x="70.64" y="23.31" width="0.61" height="0.44"/><rect class="z" x="70.64" y="24.12" width="0.61" height="0.44"/><rect class="aa" x="60.49" y="14.71" width="10.79" height="10.85" rx="0.32" ry="0.32"/><rect class="ab" x="63.36" y="18.57" width="5.06" height="3.13"/><rect class="z" x="63.78" y="17.74" width="0.45" height="0.83"/><rect class="z" x="64.73" y="17.74" width="0.45" height="0.83"/><rect class="z" x="66.61" y="17.74" width="0.45" height="0.83"/><rect class="z" x="65.67" y="17.74" width="0.45" height="0.83"/><rect class="z" x="67.55" y="17.74" width="0.45" height="0.83"/><rect class="z" x="63.78" y="21.7" width="0.45" height="0.83"/><rect class="z" x="64.73" y="21.7" width="0.45" height="0.83"/><rect class="z" x="66.61" y="21.7" width="0.45" height="0.83"/><rect class="z" x="65.67" y="21.7" width="0.45" height="0.83"/><rect class="z" x="67.55" y="21.7" width="0.45" height="0.83"/><rect class="z" x="62.53" y="18.96" width="0.82" height="0.45"/><rect class="z" x="62.53" y="20.85" width="0.82" height="0.45"/><rect class="z" x="62.53" y="19.91" width="0.82" height="0.45"/><rect class="z" x="68.42" y="18.96" width="0.82" height="0.45"/><rect class="z" x="68.42" y="20.85" width="0.82" height="0.45"/><rect class="z" x="68.42" y="19.91" width="0.82" height="0.45"/><path class="z" d="M68.38,17.43l-.12-.3,8.37-3.47H79.8V14H76.69Z"/><path class="z" d="M79.08,26.86H69.75l-8.28-2.3.09-.31,8.26,2.3h9.26Z"/><rect class="z" x="68.77" y="20.23" width="10.82" height="0.32"/><rect class="u" x="77.51" y="11.52" width="4.57" height="4.6"/><rect class="ac" x="78.14" y="12.15" width="3.31" height="3.33"/><rect class="u" x="77.51" y="18.09" width="4.57" height="4.6"/><rect class="u" x="77.51" y="24.39" width="4.57" height="4.6"/><rect class="ac" x="78.14" y="18.72" width="3.31" height="3.33"/><path class="z" d="M69.1,17.28a.78.78,0,1,0-.78.78A.78.78,0,0,0,69.1,17.28Z"/><path class="z" d="M69.56,20.39a.78.78,0,1,0-.78.78A.78.78,0,0,0,69.56,20.39Z"/><path class="z" d="M62.34,24.39a.78.78,0,1,0-.78.78A.78.78,0,0,0,62.34,24.39Z"/><path class="u" d="M80.08,14.26a1.08,1.08,0,0,0-1.23-.87.91.91,0,0,0-.71.56.88.88,0,0,0,0,.71l0,.09a1,1,0,0,0,.35.62.88.88,0,0,0,.84.12.81.81,0,0,0,.37-.28l.07-.09.09-.1A1,1,0,0,0,80.08,14.26Z"/><path class="u" d="M79,19.62a.39.39,0,1,0,.34.44A.39.39,0,0,0,79,19.62Z"/><rect class="ac" x="78.14" y="25.12" width="3.31" height="3.33"/><path class="u" d="M79.56,25.64a.75.75,0,0,0-1-.4,1,1,0,0,0-.41.31l-.06.07,0,0a.76.76,0,0,0,0,1.07l0,0a.65.65,0,0,0,1,0,1.09,1.09,0,0,0,.1-.18l.09-.07A.77.77,0,0,0,79.56,25.64Z"/><path class="u" d="M79.52,27.61a.7.7,0,0,0-1-.13h0a.7.7,0,0,0,.85,1.1h0A.71.71,0,0,0,79.52,27.61Z"/><path class="ad" d="M86.8,29.65V10.51a.73.73,0,0,0-.73-.73H56.93Z"/><path class="ae" d="M107,161l-1.46-1.45L100,165.06V153H98v12.05l-5.51-5.51L91,161l8,8Z"/><path class="ae" d="M107,338l-1.46-1.45L100,342.06V330H98v12.05l-5.51-5.51L91,338l8,8Z"/><rect class="af" x="72.11" y="199" width="51.11" height="70"/><rect class="ag" x="72.11" y="209.48" width="51.11" height="59.52"/><rect class="ah" x="68" y="202.88" width="59.5" height="17.36" rx="1.57" ry="1.57"/><rect class="ai" x="68" y="224.43" width="59.5" height="17.36" rx="1.57" ry="1.57"/><rect class="aj" x="68" y="245.98" width="59.5" height="17.36" rx="1.57" ry="1.57"/><path class="ak" d="M127.45,204.24a1.77,1.77,0,0,0-1.72-1.36H69.78a1.77,1.77,0,0,0-1.72,1.36Z"/><path class="al" d="M68,218.44v0a1.78,1.78,0,0,0,1.78,1.78h55.95a1.78,1.78,0,0,0,1.78-1.77v0Z"/><path class="am" d="M127.5,226.17a1.77,1.77,0,0,0-1.77-1.75H69.78A1.77,1.77,0,0,0,68,226.17Z"/><path class="an" d="M68,240h0a1.78,1.78,0,0,0,1.78,1.78h55.95A1.78,1.78,0,0,0,127.5,240H68Z"/><path class="ao" d="M127.47,247.48a1.77,1.77,0,0,0-1.75-1.5H69.78a1.77,1.77,0,0,0-1.75,1.5Z"/><path class="ap" d="M68,261.43v.13a1.78,1.78,0,0,0,1.78,1.78h55.95a1.78,1.78,0,0,0,1.78-1.78v-.13Z"/><path class="aq" d="M113.37,209.91a2.15,2.15,0,1,1-2.15-2.15A2.15,2.15,0,0,1,113.37,209.91Z"/><path class="ar" d="M119.72,209.91a2.15,2.15,0,1,1-2.15-2.15h0A2.15,2.15,0,0,1,119.72,209.91Z"/><path class="aq" d="M113.37,231a2.15,2.15,0,1,1-2.15-2.15A2.15,2.15,0,0,1,113.37,231Z"/><path class="ar" d="M119.72,231a2.15,2.15,0,1,1-2.15-2.15,2.15,2.15,0,0,1,2.15,2.15Z"/><path class="aq" d="M113.37,252.08a2.15,2.15,0,1,1-2.15-2.15,2.15,2.15,0,0,1,2.15,2.15Z"/><path class="ar" d="M119.72,252.08a2.15,2.15,0,1,1-2.15-2.15,2.15,2.15,0,0,1,2.15,2.15Z"/><g class="a"><g class="a"><path class="b" d="M48.89,287.9h4c3,0,5,1.82,5,4.55s-2,4.55-5,4.55h-4Zm3.9,7.67a3.13,3.13,0,1,0,0-6.24H50.58v6.24Z"/><path class="b" d="M66,294H60.52a2.1,2.1,0,0,0,2.25,1.66,2.49,2.49,0,0,0,1.89-.75l.87,1a3.9,3.9,0,0,1-6.63-2.43A3.45,3.45,0,0,1,62.48,290,3.39,3.39,0,0,1,66,293.57C66,293.7,66,293.89,66,294ZM60.51,293h3.94a1.89,1.89,0,0,0-2-1.69A1.92,1.92,0,0,0,60.51,293Z"/><path class="b" d="M69.35,289.69v.42h1.91v1.3H69.4V297H67.77v-5.59H66.63v-1.3h1.14v-.44a2.24,2.24,0,0,1,2.48-2.41,2.6,2.6,0,0,1,1.47.38l-.46,1.22a1.6,1.6,0,0,0-.9-.29C69.7,288.58,69.35,289,69.35,289.69Z"/><path class="b" d="M78.75,294H73.3a2.1,2.1,0,0,0,2.25,1.66,2.49,2.49,0,0,0,1.89-.75l.87,1a3.9,3.9,0,0,1-6.63-2.43A3.45,3.45,0,0,1,75.26,290a3.39,3.39,0,0,1,3.51,3.59C78.77,293.7,78.76,293.89,78.75,294ZM73.29,293h3.94a1.89,1.89,0,0,0-2-1.69A1.92,1.92,0,0,0,73.29,293Z"/><path class="b" d="M79.76,293.53A3.51,3.51,0,0,1,83.52,290a3.13,3.13,0,0,1,3,1.61l-1.25.73a2,2,0,0,0-1.73-1,2.17,2.17,0,0,0,0,4.34,2,2,0,0,0,1.73-1l1.25.73a3.16,3.16,0,0,1-3,1.63A3.52,3.52,0,0,1,79.76,293.53Z"/><path class="b" d="M92.15,296.62a2.56,2.56,0,0,1-1.56.47,2.13,2.13,0,0,1-2.39-2.34v-3.34H87.05v-1.3H88.2v-1.59h1.63v1.59h1.86v1.3H89.82v3.3c0,.68.34,1,1,1a1.46,1.46,0,0,0,.91-.29Z"/><path class="b" d="M97.23,287.9h4c3,0,5,1.82,5,4.55s-2,4.55-5,4.55h-4Zm3.9,7.67a3.13,3.13,0,1,0,0-6.24H98.92v6.24Z"/><path class="b" d="M113.63,292.93V297h-1.53v-.84a2.46,2.46,0,0,1-2.18.94c-1.59,0-2.59-.87-2.59-2.08s.78-2.07,2.89-2.07H112v-.1c0-.95-.57-1.51-1.73-1.51a3.44,3.44,0,0,0-2.11.69l-.64-1.18a4.88,4.88,0,0,1,2.94-.86C112.47,290,113.63,290.93,113.63,292.93Zm-1.62,1.9V294h-1.68c-1.11,0-1.4.42-1.4.92s.49,1,1.33,1A1.77,1.77,0,0,0,112,294.83Z"/><path class="b" d="M119.88,296.62a2.55,2.55,0,0,1-1.56.47,2.13,2.13,0,0,1-2.39-2.34v-3.34h-1.14v-1.3h1.14v-1.59h1.63v1.59h1.86v1.3h-1.86v3.3c0,.68.34,1,1,1a1.46,1.46,0,0,0,.91-.29Z"/><path class="b" d="M127,292.93V297h-1.53v-.84a2.46,2.46,0,0,1-2.18.94c-1.59,0-2.59-.87-2.59-2.08s.78-2.07,2.89-2.07h1.79v-.1c0-.95-.57-1.51-1.73-1.51a3.44,3.44,0,0,0-2.11.69l-.64-1.18a4.88,4.88,0,0,1,2.94-.86C125.87,290,127,290.93,127,292.93Zm-1.62,1.9V294h-1.68c-1.1,0-1.4.42-1.4.92s.49,1,1.33,1A1.77,1.77,0,0,0,125.4,294.83Z"/><path class="b" d="M128.31,296.31l.62-1.23a4.68,4.68,0,0,0,2.42.69c1,0,1.46-.29,1.46-.77,0-1.33-4.29-.08-4.29-2.85,0-1.31,1.18-2.17,3.06-2.17a5.52,5.52,0,0,1,2.6.6l-.62,1.23a3.8,3.8,0,0,0-2-.52c-1,0-1.46.33-1.46.78,0,1.4,4.29.16,4.29,2.87,0,1.3-1.2,2.14-3.15,2.14A5.51,5.51,0,0,1,128.31,296.31Z"/><path class="b" d="M142.3,294h-5.45a2.1,2.1,0,0,0,2.25,1.66A2.49,2.49,0,0,0,141,295l.87,1a3.9,3.9,0,0,1-6.63-2.43,3.45,3.45,0,0,1,3.59-3.55,3.39,3.39,0,0,1,3.51,3.59C142.33,293.7,142.32,293.89,142.3,294ZM136.84,293h3.94a1.89,1.89,0,0,0-2-1.69A1.92,1.92,0,0,0,136.84,293Z"/><path class="b" d="M148.06,296.62a2.55,2.55,0,0,1-1.56.47,2.13,2.13,0,0,1-2.39-2.34v-3.34H143v-1.3h1.14v-1.59h1.63v1.59h1.86v1.3h-1.86v3.3c0,.68.34,1,1,1a1.46,1.46,0,0,0,.91-.29Z"/></g></g><g class="a"><g class="a"><path class="as" d="M44.35,464.9h4c3,0,5,1.82,5,4.55s-2,4.55-5,4.55h-4Zm3.9,7.67a3.13,3.13,0,1,0,0-6.24H46v6.24Z"/><path class="as" d="M61.44,471H56a2.1,2.1,0,0,0,2.25,1.66,2.49,2.49,0,0,0,1.89-.75l.87,1a3.9,3.9,0,0,1-6.63-2.43A3.45,3.45,0,0,1,58,467a3.39,3.39,0,0,1,3.51,3.59C61.46,470.7,61.45,470.89,61.44,471ZM56,470h3.94a1.89,1.89,0,0,0-2-1.69A1.92,1.92,0,0,0,56,470Z"/><path class="as" d="M64.82,466.69v.42h1.91v1.3H64.87V474H63.24v-5.59H62.1v-1.3h1.14v-.44a2.24,2.24,0,0,1,2.48-2.41,2.6,2.6,0,0,1,1.47.38l-.46,1.22a1.6,1.6,0,0,0-.9-.29C65.17,465.58,64.82,466,64.82,466.69Z"/><path class="as" d="M74.22,471H68.77A2.1,2.1,0,0,0,71,472.71,2.49,2.49,0,0,0,72.9,472l.87,1a3.9,3.9,0,0,1-6.63-2.43A3.45,3.45,0,0,1,70.73,467a3.39,3.39,0,0,1,3.51,3.59C74.24,470.7,74.23,470.89,74.22,471ZM68.76,470h3.94a1.89,1.89,0,0,0-2-1.69A1.92,1.92,0,0,0,68.76,470Z"/><path class="as" d="M75.23,470.53A3.51,3.51,0,0,1,79,467a3.13,3.13,0,0,1,3,1.61l-1.25.73a2,2,0,0,0-1.73-1,2.17,2.17,0,0,0,0,4.34,2,2,0,0,0,1.73-1l1.25.73a3.16,3.16,0,0,1-3,1.63A3.52,3.52,0,0,1,75.23,470.53Z"/><path class="as" d="M87.62,473.62a2.56,2.56,0,0,1-1.56.47,2.13,2.13,0,0,1-2.39-2.34v-3.34H82.52v-1.3h1.14v-1.59h1.63v1.59h1.86v1.3H85.29v3.3c0,.68.34,1,1,1a1.46,1.46,0,0,0,.91-.29Z"/><path class="as" d="M92.05,469.45a4.92,4.92,0,0,1,8.48-3.16l-1.09,1A3.2,3.2,0,0,0,97,466.25a3.2,3.2,0,1,0,0,6.4,3.17,3.17,0,0,0,2.43-1.08l1.09,1a4.92,4.92,0,0,1-8.48-3.16Z"/><path class="as" d="M102,464.35h1.63V474H102Z"/><path class="as" d="M111.56,469.93V474H110v-.84a2.46,2.46,0,0,1-2.18.94c-1.59,0-2.59-.87-2.59-2.08s.78-2.07,2.89-2.07h1.79v-.1c0-.95-.57-1.51-1.73-1.51a3.44,3.44,0,0,0-2.11.69l-.64-1.18a4.88,4.88,0,0,1,2.94-.86C110.41,467,111.56,467.93,111.56,469.93Zm-1.63,1.9V471h-1.68c-1.1,0-1.4.42-1.4.92s.49,1,1.33,1A1.77,1.77,0,0,0,109.94,471.83Z"/><path class="as" d="M112.85,473.31l.62-1.23a4.68,4.68,0,0,0,2.42.69c1,0,1.46-.29,1.46-.77,0-1.33-4.29-.08-4.29-2.85,0-1.31,1.18-2.17,3.06-2.17a5.52,5.52,0,0,1,2.6.6l-.62,1.23a3.8,3.8,0,0,0-2-.52c-1,0-1.46.33-1.46.78,0,1.4,4.29.16,4.29,2.87,0,1.3-1.2,2.14-3.15,2.14A5.51,5.51,0,0,1,112.85,473.31Z"/><path class="as" d="M119.55,473.31l.62-1.23a4.67,4.67,0,0,0,2.42.69c1,0,1.46-.29,1.46-.77,0-1.33-4.29-.08-4.29-2.85,0-1.31,1.18-2.17,3.05-2.17a5.53,5.53,0,0,1,2.6.6l-.62,1.23a3.8,3.8,0,0,0-2-.52c-1,0-1.46.33-1.46.78,0,1.4,4.29.16,4.29,2.87,0,1.3-1.2,2.14-3.15,2.14A5.51,5.51,0,0,1,119.55,473.31Z"/><path class="as" d="M126.81,464.94a1,1,0,0,1,1-1,1,1,0,0,1,1,.94,1,1,0,0,1-2.08,0Zm.22,2.12h1.63V474H127Z"/><path class="as" d="M133.5,464.26a2.6,2.6,0,0,1,1.47.38l-.46,1.22a1.6,1.6,0,0,0-.9-.29c-.68,0-1,.38-1,1.12v.42h1.91v1.3h-1.86V474H131v-5.59h-1.14v-1.3H131v-.44A2.24,2.24,0,0,1,133.5,464.26Zm2.91.68a1,1,0,0,1,1-1,1,1,0,0,1,1,.94,1,1,0,0,1-2.08,0Zm.22,2.12h1.63V474h-1.62Z"/><path class="as" d="M146.88,471h-5.45a2.1,2.1,0,0,0,2.25,1.66,2.49,2.49,0,0,0,1.89-.75l.87,1a3.9,3.9,0,0,1-6.63-2.43A3.45,3.45,0,0,1,143.4,467a3.39,3.39,0,0,1,3.51,3.59C146.91,470.7,146.9,470.89,146.88,471ZM141.42,470h3.94a1.89,1.89,0,0,0-2-1.69A1.92,1.92,0,0,0,141.42,470Z"/><path class="as" d="M152.49,467v1.55a2.1,2.1,0,0,0-.38,0,1.89,1.89,0,0,0-2,2.14V474h-1.62v-6.94H150v1A2.73,2.73,0,0,1,152.49,467Z"/></g></g><g class="a"><g class="a"><path class="at" d="M56.61,435.92H53.83V434.6H61v1.32H58.17V443H56.61Z"/><path class="at" d="M65.54,436.52V438a1.86,1.86,0,0,0-.35,0,1.75,1.75,0,0,0-1.86,2V443h-1.5v-6.4h1.43v.94A2.52,2.52,0,0,1,65.54,436.52Z"/><path class="at" d="M72.14,439.25V443H70.72v-.78a2.27,2.27,0,0,1-2,.86c-1.46,0-2.39-.8-2.39-1.92s.72-1.91,2.66-1.91h1.66v-.1c0-.88-.53-1.39-1.6-1.39a3.17,3.17,0,0,0-1.94.64l-.59-1.09a4.5,4.5,0,0,1,2.71-.79C71.07,436.52,72.14,437.4,72.14,439.25ZM70.64,441v-.74H69.09c-1,0-1.3.38-1.3.85s.46.89,1.22.89A1.63,1.63,0,0,0,70.64,441Z"/><path class="at" d="M73.86,434.64a.91.91,0,0,1,1-.9.89.89,0,0,1,1,.86,1,1,0,0,1-1.92,0Zm.2,2h1.5V443h-1.5Z"/><path class="at" d="M83.84,439.33V443h-1.5v-3.48c0-1.14-.56-1.69-1.52-1.69A1.7,1.7,0,0,0,79,439.76V443h-1.5v-6.4H79v.83a2.79,2.79,0,0,1,2.21-.9A2.5,2.5,0,0,1,83.84,439.33Z"/><path class="at" d="M91.8,440.28h-5a1.94,1.94,0,0,0,2.07,1.54,2.3,2.3,0,0,0,1.74-.7l.8.92a3.6,3.6,0,0,1-6.12-2.24,3.19,3.19,0,0,1,3.31-3.27,3.12,3.12,0,0,1,3.24,3.31C91.83,440,91.82,440.13,91.8,440.28Zm-5-1H90.4a1.74,1.74,0,0,0-1.81-1.56A1.77,1.77,0,0,0,86.77,439.28Z"/><path class="at" d="M99.54,434.1V443H98.1v-.83a2.64,2.64,0,0,1-2.12.91,3.28,3.28,0,0,1,0-6.56,2.63,2.63,0,0,1,2.06.86V434.1Zm-1.48,5.7a1.91,1.91,0,1,0-1.91,2A1.87,1.87,0,0,0,98.07,439.8Z"/><path class="at" d="M112.68,443v-5.56L109.91,442h-.7l-2.76-4.53V443H105v-8.4h1.28l3.33,5.57,3.27-5.57h1.28V443Z"/><path class="at" d="M115.76,439.8a3.41,3.41,0,1,1,3.41,3.29A3.22,3.22,0,0,1,115.76,439.8Zm5.31,0a1.9,1.9,0,1,0-1.91,2A1.87,1.87,0,0,0,121.07,439.8Z"/><path class="at" d="M130.3,434.1V443h-1.44v-.83a2.64,2.64,0,0,1-2.12.91,3.28,3.28,0,0,1,0-6.56,2.62,2.62,0,0,1,2.06.86V434.1Zm-1.47,5.7a1.91,1.91,0,1,0-1.91,2A1.87,1.87,0,0,0,128.82,439.8Z"/><path class="at" d="M138.27,440.28h-5a1.94,1.94,0,0,0,2.07,1.54,2.3,2.3,0,0,0,1.74-.7l.8.92a3.6,3.6,0,0,1-6.12-2.24,3.19,3.19,0,0,1,3.31-3.27,3.12,3.12,0,0,1,3.24,3.31C138.29,440,138.28,440.13,138.27,440.28Zm-5-1h3.63a1.74,1.74,0,0,0-1.81-1.56A1.77,1.77,0,0,0,133.23,439.28Z"/><path class="at" d="M139.73,434.1h1.5V443h-1.5Z"/></g></g><line class="au" x1="93.07" y1="415.29" x2="125.72" y2="390.17"/><line class="au" x1="93.07" y1="381.67" x2="125.72" y2="390.47"/><line class="au" x1="93.07" y1="381.67" x2="125.72" y2="406.86"/><line class="au" x1="93.07" y1="398.67" x2="125.72" y2="390.47"/><line class="au" x1="93.07" y1="398.67" x2="125.72" y2="406.86"/><line class="au" x1="93.07" y1="415.29" x2="125.72" y2="406.86"/><line class="au" x1="57.83" y1="381.67" x2="93.07" y2="381.67"/><line class="au" x1="57.83" y1="398.67" x2="93.07" y2="398.67"/><line class="au" x1="125.73" y1="390.49" x2="137.62" y2="390.49"/><path class="av" d="M136,392.59l.89-2.1-.89-2.1,5,2.1Z"/><line class="au" x1="125.73" y1="406.86" x2="137.62" y2="406.86"/><path class="av" d="M136,409l.89-2.1-.89-2.1,5,2.1Z"/><line class="au" x1="57.83" y1="415.29" x2="93.07" y2="415.29"/><line class="au" x1="57.83" y1="381.67" x2="93.07" y2="399.27"/><line class="au" x1="57.83" y1="381.67" x2="93.07" y2="416.09"/><line class="au" x1="57.83" y1="398.67" x2="93.07" y2="381.67"/><line class="au" x1="57.83" y1="398.67" x2="93.07" y2="416.09"/><line class="au" x1="57.83" y1="415.29" x2="93.07" y2="399.27"/><line class="au" x1="57.83" y1="415.29" x2="93.07" y2="381.67"/><path class="aw" d="M60.67,381.67a2.83,2.83,0,0,0-2.83-2.83h0A2.83,2.83,0,0,0,55,381.67h0a2.83,2.83,0,0,0,2.83,2.83h0A2.83,2.83,0,0,0,60.67,381.67Z"/><path class="aw" d="M60.67,398.67a2.83,2.83,0,0,0-2.83-2.83h0A2.83,2.83,0,0,0,55,398.67h0a2.83,2.83,0,0,0,2.83,2.83h0A2.83,2.83,0,0,0,60.67,398.67Z"/><path class="aw" d="M60.67,415.29a2.83,2.83,0,0,0-2.83-2.83h0A2.83,2.83,0,0,0,55,415.29h0a2.83,2.83,0,0,0,2.83,2.83h0A2.83,2.83,0,0,0,60.67,415.29Z"/><path class="ax" d="M98.74,381.67A5.67,5.67,0,0,0,93.07,376h0a5.67,5.67,0,0,0-5.67,5.66h0a5.67,5.67,0,0,0,5.67,5.67h0a5.67,5.67,0,0,0,5.67-5.67Z"/><path class="ax" d="M98.74,398.67A5.67,5.67,0,0,0,93.07,393h0a5.67,5.67,0,0,0-5.67,5.67h0a5.67,5.67,0,0,0,5.67,5.67h0A5.67,5.67,0,0,0,98.74,398.67Z"/><path class="ax" d="M98.74,415.29a5.67,5.67,0,0,0-5.67-5.66h0a5.67,5.67,0,0,0-5.67,5.66h0A5.67,5.67,0,0,0,93.07,421h0a5.67,5.67,0,0,0,5.67-5.67Z"/><path class="ay" d="M131.39,390.17a5.67,5.67,0,0,0-5.66-5.67h0a5.67,5.67,0,0,0-5.67,5.67h0a5.67,5.67,0,0,0,5.67,5.67h0A5.67,5.67,0,0,0,131.39,390.17Z"/><path class="ay" d="M131.39,406.86a5.67,5.67,0,0,0-5.66-5.67h0a5.67,5.67,0,0,0-5.67,5.67h0a5.67,5.67,0,0,0,5.67,5.67h0A5.67,5.67,0,0,0,131.39,406.86Z"/><path class="az" d="M82.73,517.06l-1-1.78-6.75,3.9,3.12-11.64-2-.54-3.12,11.64L69,511.89l-1.78,1,5.66,9.8Z"/><path class="az" d="M82.73,669.92l-1.78-1L77,675.65,73.93,664l-2,.54L75,676.18l-6.75-3.9-1,1.78,9.8,5.66Z"/><g class="a"><g class="a"><path class="b" d="M57.55,804l-1.86-2.67H53.29V804H51.6v-9.1h3.74c2.39,0,3.87,1.22,3.87,3.24A2.91,2.91,0,0,1,57.28,801l2.09,3Zm-2.29-7.67h-2V800h2c1.48,0,2.25-.68,2.25-1.82S56.75,796.33,55.26,796.33Z"/><path class="b" d="M67.44,801H62a2.1,2.1,0,0,0,2.25,1.66,2.49,2.49,0,0,0,1.89-.75l.87,1a3.9,3.9,0,0,1-6.63-2.43A3.45,3.45,0,0,1,64,797a3.39,3.39,0,0,1,3.51,3.59C67.47,800.7,67.46,800.89,67.44,801ZM62,800h3.94a1.89,1.89,0,0,0-2-1.69A1.92,1.92,0,0,0,62,800Z"/><path class="b" d="M76.4,800.53a3.38,3.38,0,0,1-3.52,3.56,2.85,2.85,0,0,1-2.22-.94v3.37H69v-9.46h1.55V798a2.86,2.86,0,0,1,2.3-1A3.38,3.38,0,0,1,76.4,800.53Zm-1.65,0a2.06,2.06,0,1,0-2.05,2.17A2,2,0,0,0,74.75,800.53Z"/><path class="b" d="M83.67,799.93V804H82.13v-.84a2.46,2.46,0,0,1-2.18.94c-1.59,0-2.59-.87-2.59-2.08s.78-2.07,2.89-2.07H82v-.1c0-.95-.57-1.51-1.73-1.51a3.44,3.44,0,0,0-2.11.69l-.64-1.18a4.88,4.88,0,0,1,2.94-.86C82.51,797,83.67,797.93,83.67,799.93ZM82,801.83V801H80.37c-1.1,0-1.4.42-1.4.92s.49,1,1.33,1A1.77,1.77,0,0,0,82,801.83Z"/><path class="b" d="M85.53,794.94a1,1,0,0,1,1-1,1,1,0,0,1,1,.94,1,1,0,0,1-2.08,0Zm.22,2.12h1.63V804H85.75Z"/><path class="b" d="M93.52,797v1.55a2.1,2.1,0,0,0-.38,0,1.89,1.89,0,0,0-2,2.14V804H89.5v-6.94h1.55v1A2.73,2.73,0,0,1,93.52,797Z"/><path class="b" d="M97.94,803l.58-1.31a5,5,0,0,0,3,1c1.42,0,2-.51,2-1.18,0-2-5.41-.68-5.41-4.06,0-1.47,1.17-2.72,3.67-2.72a5.75,5.75,0,0,1,3,.81l-.53,1.31a5.07,5.07,0,0,0-2.51-.71c-1.4,0-2,.55-2,1.24,0,1.94,5.4.68,5.4,4,0,1.46-1.18,2.7-3.68,2.7A5.87,5.87,0,0,1,97.94,803Z"/><path class="b" d="M110.9,803.62a2.56,2.56,0,0,1-1.56.47,2.13,2.13,0,0,1-2.39-2.34v-3.34h-1.14v-1.3H107v-1.59h1.63v1.59h1.86v1.3h-1.86v3.3c0,.68.34,1,1,1a1.46,1.46,0,0,0,.91-.29Z"/><path class="b" d="M118.05,799.93V804h-1.53v-.84a2.46,2.46,0,0,1-2.18.94c-1.59,0-2.59-.87-2.59-2.08s.78-2.07,2.89-2.07h1.79v-.1c0-.95-.57-1.51-1.73-1.51a3.44,3.44,0,0,0-2.11.69l-.64-1.18a4.88,4.88,0,0,1,2.94-.86C116.9,797,118.05,797.93,118.05,799.93Zm-1.62,1.9V801h-1.68c-1.1,0-1.4.42-1.4.92s.49,1,1.33,1A1.77,1.77,0,0,0,116.43,801.83Z"/><path class="b" d="M124.31,803.62a2.56,2.56,0,0,1-1.56.47,2.13,2.13,0,0,1-2.39-2.34v-3.34h-1.14v-1.3h1.14v-1.59H122v1.59h1.86v1.3H122v3.3c0,.68.34,1,1,1a1.46,1.46,0,0,0,.91-.29Z"/><path class="b" d="M125.42,794.94a1,1,0,0,1,1-1,1,1,0,0,1,1,.94,1,1,0,0,1-2.08,0Zm.22,2.12h1.63V804h-1.62Z"/><path class="b" d="M128.83,800.53a3.7,3.7,0,1,1,3.69,3.56A3.49,3.49,0,0,1,128.83,800.53Zm5.76,0a2.06,2.06,0,1,0-2.07,2.17A2,2,0,0,0,134.59,800.53Z"/><path class="b" d="M144.62,800v4H143v-3.77c0-1.23-.61-1.83-1.65-1.83a1.84,1.84,0,0,0-1.94,2.09V804h-1.62v-6.94h1.55v.9a3,3,0,0,1,2.39-1A2.71,2.71,0,0,1,144.62,800Z"/></g></g><line class="t" x1="75.66" y1="726.69" x2="86.99" y2="741.5"/><rect class="ba" x="80.17" y="740.29" width="54.66" height="6.99"/><rect class="ba" x="61.17" y="734.73" width="16.76" height="12.55"/><rect class="bb" x="61.64" y="747.28" width="72.71" height="29.09"/><rect class="bc" x="61.64" y="747.28" width="72.71" height="1.81"/><rect class="e" x="61.17" y="739.54" width="73.65" height="2.1"/><path class="e" d="M146.93,743.93h-12.1V732.25h12.1a1.07,1.07,0,0,1,1.06,1.07v9.55A1.07,1.07,0,0,1,146.93,743.93Z"/><path class="e" d="M49.06,732.25H61.17v11.68H49.06A1.07,1.07,0,0,1,48,742.87v-9.55A1.07,1.07,0,0,1,49.06,732.25Z"/><rect class="bd" x="83.02" y="754.04" width="29.95" height="11.31" rx="1.68" ry="1.68"/><rect class="be" x="85.46" y="754.95" width="25.09" height="9.48"/><path class="bf" d="M110.07,763.9l-23.69-8.42h23.69Z"/><rect class="e" x="61.17" y="773.86" width="73.65" height="2.52"/><rect class="e" x="96.93" y="738.09" width="11.18" height="8.94"/><rect class="e" x="89.11" y="738.09" width="2.24" height="3.35"/><rect class="e" x="114.82" y="738.09" width="2.24" height="3.35"/><rect class="h" x="145.95" y="732.25" width="0.37" height="11.68"/><rect class="i" x="145.53" y="732.25" width="0.42" height="11.68"/><rect class="h" x="50.24" y="732.25" width="0.37" height="11.68"/><rect class="i" x="50.61" y="732.25" width="0.42" height="11.68"/><path class="u" d="M61.72,710H88.55a.56.56,0,0,1,.56.56h0v18.15a.56.56,0,0,1-.56.56H61.72a.56.56,0,0,1-.56-.56V710.56A.56.56,0,0,1,61.72,710Z"/><path class="w" d="M62.73,711H87.54a.55.55,0,0,1,.55.55h0v16.25a.55.55,0,0,1-.55.55H62.73a.55.55,0,0,1-.55-.55V711.51a.55.55,0,0,1,.55-.55Z"/><rect class="aa" x="68.8" y="713.3" width="12.67" height="12.67" rx="0.34" ry="0.34"/><rect class="ab" x="72.17" y="717.81" width="5.94" height="3.65"/><rect class="z" x="72.66" y="716.84" width="0.53" height="0.96"/><rect class="z" x="73.77" y="716.84" width="0.53" height="0.96"/><rect class="z" x="75.98" y="716.84" width="0.53" height="0.96"/><rect class="z" x="74.87" y="716.84" width="0.53" height="0.96"/><rect class="z" x="77.08" y="716.84" width="0.53" height="0.96"/><rect class="z" x="72.66" y="721.46" width="0.53" height="0.96"/><rect class="z" x="73.77" y="721.46" width="0.53" height="0.96"/><rect class="z" x="75.98" y="721.46" width="0.53" height="0.96"/><rect class="z" x="74.87" y="721.46" width="0.53" height="0.96"/><rect class="z" x="77.08" y="721.46" width="0.53" height="0.96"/><rect class="z" x="71.19" y="718.27" width="0.96" height="0.53"/><rect class="z" x="71.19" y="720.48" width="0.96" height="0.53"/><rect class="z" x="71.19" y="719.37" width="0.96" height="0.53"/><rect class="z" x="78.11" y="718.27" width="0.96" height="0.53"/><rect class="z" x="78.11" y="720.48" width="0.96" height="0.53"/><rect class="z" x="78.11" y="719.37" width="0.96" height="0.53"/><path class="ad" d="M88.09,727.7V711.59a.62.62,0,0,0-.62-.62H62.79Z"/><rect class="bg" x="101.4" y="715.78" width="2.24" height="22.31"/><rect class="ba" x="99.46" y="715.78" width="6.12" height="16.69"/><path class="z" d="M101.52,718.57a20.17,20.17,0,0,0,.37,3.73,4.14,4.14,0,0,0,2.14,3.11,2.83,2.83,0,0,0,.76.22v-9.31h-3.18A15.81,15.81,0,0,0,101.52,718.57Z"/><rect class="e" x="100.49" y="710.95" width="4.07" height="4.82"/><rect x="99.94" y="710" width="5.16" height="0.95" rx="0.21" ry="0.21"/><rect class="e" x="100.32" y="732.47" width="4.41" height="1.3"/><circle cx="120.46" cy="755.46" r="1.2"/><circle class="m" cx="120.46" cy="755.46" r="1.1"/><path class="bh" d="M121.17,756.12a1,1,0,1,1-1.37-1.37,1.67,1.67,0,0,0,.52.91C120.78,756.12,121.54,755.75,121.17,756.12Z"/><path class="z" d="M121.12,754.88a.21.21,0,1,1-.21-.23.22.22,0,0,1,.21.22Z"/><circle cx="124.29" cy="755.46" r="1.2"/><circle class="bi" cx="124.29" cy="755.46" r="1.1"/><path class="bj" d="M125,756.12a1,1,0,0,1-1.37-1.37h0a1.68,1.68,0,0,0,.52.91C124.6,756.12,125.37,755.75,125,756.12Z"/><path class="z" d="M124.94,754.88a.21.21,0,1,1-.21-.23.22.22,0,0,1,.21.22Z"/><rect class="bd" x="71.84" y="761.83" width="3.29" height="2.73" rx="0.63" ry="0.63"/><path class="bk" d="M72.48,762.07h1.71a.64.64,0,0,1,.65.64h0v1.1A3.37,3.37,0,0,0,72.48,762.07Z"/><rect class="bd" x="76.64" y="761.83" width="3.29" height="2.73" rx="0.63" ry="0.63"/><path class="bk" d="M77.28,762.07H79a.64.64,0,0,1,.65.64h0v1.1A3.37,3.37,0,0,0,77.28,762.07Z"/><circle class="m" cx="122.38" cy="761.83" r="2.69"/><path class="ae" d="M128.73,512.92l-1.78-1-3.9,6.75L119.93,507l-2,.54L121,519.18l-6.75-3.9-1,1.78,9.8,5.66Z"/><g class="a"><g class="a"><path class="as" d="M4.75,627.19l-1.44,1.48V631H1.62v-9.1H3.31v4.67l4.5-4.67h1.9L5.88,626l4.06,5H8Z"/><path class="as" d="M10.59,621.94a1,1,0,0,1,1-1,1,1,0,0,1,1,.94,1,1,0,0,1-2.08,0Zm.22,2.12h1.63V631H10.81Z"/><path class="as" d="M14.57,621.35h1.63V631H14.57Z"/><path class="as" d="M18.32,621.35h1.63V631H18.32Z"/><path class="as" d="M28.58,628H23.13a2.1,2.1,0,0,0,2.25,1.66,2.49,2.49,0,0,0,1.89-.75l.87,1a3.52,3.52,0,0,1-2.79,1.13,3.52,3.52,0,0,1-3.83-3.56A3.45,3.45,0,0,1,25.1,624a3.39,3.39,0,0,1,3.51,3.59C28.61,627.7,28.59,627.89,28.58,628ZM23.12,627h3.94a1.89,1.89,0,0,0-2-1.69A1.92,1.92,0,0,0,23.12,627Z"/><path class="as" d="M34.18,624v1.55a2.1,2.1,0,0,0-.38,0,1.89,1.89,0,0,0-2,2.14V631H30.17v-6.94h1.55v1A2.73,2.73,0,0,1,34.18,624Z"/><path class="as" d="M39.37,621.9h4c3,0,5,1.82,5,4.55s-2,4.55-5,4.55h-4Zm3.9,7.67a3.13,3.13,0,1,0,0-6.24H41.06v6.24Z"/><path class="as" d="M56.45,628H51a2.1,2.1,0,0,0,2.25,1.66,2.49,2.49,0,0,0,1.89-.75l.87,1a3.9,3.9,0,0,1-6.63-2.43A3.45,3.45,0,0,1,53,624a3.39,3.39,0,0,1,3.51,3.59C56.48,627.7,56.46,627.89,56.45,628ZM51,627h3.94a1.89,1.89,0,0,0-2-1.69A1.92,1.92,0,0,0,51,627Z"/><path class="as" d="M59.83,623.69v.42h1.91v1.3H59.88V631H58.26v-5.59H57.11v-1.3h1.14v-.44a2.24,2.24,0,0,1,2.48-2.41,2.6,2.6,0,0,1,1.47.38l-.46,1.22a1.6,1.6,0,0,0-.9-.29C60.18,622.58,59.83,623,59.83,623.69Z"/><path class="as" d="M69.23,628H63.78A2.1,2.1,0,0,0,66,629.71a2.49,2.49,0,0,0,1.89-.75l.87,1a3.9,3.9,0,0,1-6.63-2.43A3.45,3.45,0,0,1,65.75,624a3.39,3.39,0,0,1,3.51,3.59C69.26,627.7,69.24,627.89,69.23,628ZM63.77,627h3.94a1.89,1.89,0,0,0-2-1.69A1.92,1.92,0,0,0,63.77,627Z"/><path class="as" d="M70.24,627.53A3.51,3.51,0,0,1,74,624a3.13,3.13,0,0,1,3,1.61l-1.25.73a2,2,0,0,0-1.73-1,2.17,2.17,0,0,0,0,4.34,2,2,0,0,0,1.73-1l1.25.73a3.16,3.16,0,0,1-3,1.63A3.52,3.52,0,0,1,70.24,627.53Z"/><path class="as" d="M82.63,630.62a2.56,2.56,0,0,1-1.56.47,2.13,2.13,0,0,1-2.39-2.34v-3.34H77.54v-1.3h1.14v-1.59h1.63v1.59h1.86v1.3H80.31v3.3c0,.68.34,1,1,1a1.46,1.46,0,0,0,.91-.29Z"/><path class="as" d="M83.18,630.31l.62-1.23a4.68,4.68,0,0,0,2.42.69c1,0,1.46-.29,1.46-.77,0-1.33-4.29-.08-4.29-2.85,0-1.31,1.18-2.17,3.06-2.17a5.53,5.53,0,0,1,2.6.6l-.62,1.23a3.8,3.8,0,0,0-2-.52c-1,0-1.46.33-1.46.78,0,1.4,4.29.16,4.29,2.87,0,1.3-1.2,2.14-3.15,2.14A5.51,5.51,0,0,1,83.18,630.31Z"/></g></g><rect class="bl" x="5" y="553" width="80" height="50" rx="0.63" ry="0.63"/><rect class="bm" x="17.91" y="562.39" width="54.39" height="11.17"/><rect class="bn" x="20.02" y="564.47" width="6.61" height="7.01"/><rect class="bn" x="30.86" y="564.47" width="6.61" height="7.01"/><rect class="bn" x="41.7" y="564.47" width="6.61" height="7.01"/><rect class="bn" x="52.53" y="564.47" width="6.61" height="7.01"/><rect class="bn" x="63.37" y="564.47" width="6.61" height="7.01"/><rect class="bo" x="50.19" y="580.11" width="20.01" height="10.68"/><rect class="z" x="51.86" y="577.29" width="1.78" height="2.82"/><rect class="z" x="55.58" y="577.29" width="1.78" height="2.82"/><rect class="z" x="63.03" y="577.29" width="1.78" height="2.82"/><rect class="z" x="59.3" y="577.29" width="1.78" height="2.82"/><rect class="z" x="66.75" y="577.29" width="1.78" height="2.82"/><rect class="z" x="51.86" y="590.79" width="1.78" height="2.82"/><rect class="z" x="55.58" y="590.79" width="1.78" height="2.82"/><rect class="z" x="63.03" y="590.79" width="1.78" height="2.82"/><rect class="z" x="59.3" y="590.79" width="1.78" height="2.82"/><rect class="z" x="66.75" y="590.79" width="1.78" height="2.82"/><rect class="z" x="46.9" y="581.44" width="3.25" height="1.55"/><rect class="z" x="46.9" y="587.9" width="3.25" height="1.55"/><rect class="z" x="46.9" y="584.67" width="3.25" height="1.55"/><rect class="z" x="70.2" y="581.44" width="3.25" height="1.55"/><rect class="z" x="70.2" y="587.9" width="3.25" height="1.55"/><rect class="z" x="70.2" y="584.67" width="3.25" height="1.55"/><rect class="bo" x="19.83" y="580.11" width="20.01" height="10.68"/><rect class="z" x="21.5" y="577.29" width="1.78" height="2.82"/><rect class="z" x="25.22" y="577.29" width="1.78" height="2.82"/><rect class="z" x="32.67" y="577.29" width="1.78" height="2.82"/><rect class="z" x="28.95" y="577.29" width="1.78" height="2.82"/><rect class="z" x="36.39" y="577.29" width="1.78" height="2.82"/><rect class="z" x="21.5" y="590.79" width="1.78" height="2.82"/><rect class="z" x="25.22" y="590.79" width="1.78" height="2.82"/><rect class="z" x="32.67" y="590.79" width="1.78" height="2.82"/><rect class="z" x="28.95" y="590.79" width="1.78" height="2.82"/><rect class="z" x="36.39" y="590.79" width="1.78" height="2.82"/><rect class="z" x="16.55" y="581.44" width="3.25" height="1.55"/><rect class="z" x="16.55" y="587.9" width="3.25" height="1.55"/><rect class="z" x="16.55" y="584.67" width="3.25" height="1.55"/><rect class="z" x="39.84" y="581.44" width="3.25" height="1.55"/><rect class="z" x="39.84" y="587.9" width="3.25" height="1.55"/><rect class="z" x="39.84" y="584.67" width="3.25" height="1.55"/><circle class="az" cx="71" cy="564" r="4"/><circle class="az" cx="39" cy="580" r="8"/><rect class="aa" x="115" y="553" width="80" height="50" rx="0.63" ry="0.63"/><rect class="bp" x="127.91" y="561.94" width="54.39" height="11.34"/><rect class="bq" x="130.03" y="564.05" width="6.61" height="7.12"/><rect class="bq" x="140.86" y="564.05" width="6.61" height="7.12"/><rect class="bq" x="151.7" y="564.05" width="6.61" height="7.12"/><rect class="bq" x="162.53" y="564.05" width="6.61" height="7.12"/><rect class="bq" x="173.37" y="564.05" width="6.61" height="7.12"/><rect class="ab" x="160.19" y="579.94" width="20.01" height="10.85"/><rect class="z" x="161.86" y="577.07" width="1.78" height="2.87"/><rect class="z" x="165.58" y="577.07" width="1.78" height="2.87"/><rect class="z" x="173.03" y="577.07" width="1.78" height="2.87"/><rect class="z" x="169.3" y="577.07" width="1.78" height="2.87"/><rect class="z" x="176.75" y="577.07" width="1.78" height="2.87"/><rect class="z" x="161.86" y="590.78" width="1.78" height="2.87"/><rect class="z" x="165.58" y="590.78" width="1.78" height="2.87"/><rect class="z" x="173.03" y="590.78" width="1.78" height="2.87"/><rect class="z" x="169.3" y="590.78" width="1.78" height="2.87"/><rect class="z" x="176.75" y="590.78" width="1.78" height="2.87"/><rect class="z" x="156.9" y="581.29" width="3.25" height="1.57"/><rect class="z" x="156.9" y="587.86" width="3.25" height="1.57"/><rect class="z" x="156.9" y="584.57" width="3.25" height="1.57"/><rect class="z" x="180.2" y="581.29" width="3.25" height="1.57"/><rect class="z" x="180.2" y="587.86" width="3.25" height="1.57"/><rect class="z" x="180.2" y="584.57" width="3.25" height="1.57"/><rect class="ab" x="129.83" y="579.94" width="20.01" height="10.85"/><rect class="z" x="131.5" y="577.07" width="1.78" height="2.87"/><rect class="z" x="135.23" y="577.07" width="1.78" height="2.87"/><rect class="z" x="142.67" y="577.07" width="1.78" height="2.87"/><rect class="z" x="138.95" y="577.07" width="1.78" height="2.87"/><rect class="z" x="146.39" y="577.07" width="1.78" height="2.87"/><rect class="z" x="131.5" y="590.78" width="1.78" height="2.87"/><rect class="z" x="135.23" y="590.78" width="1.78" height="2.87"/><rect class="z" x="142.67" y="590.78" width="1.78" height="2.87"/><rect class="z" x="138.95" y="590.78" width="1.78" height="2.87"/><rect class="z" x="146.39" y="590.78" width="1.78" height="2.87"/><rect class="z" x="126.55" y="581.29" width="3.25" height="1.57"/><rect class="z" x="126.55" y="587.86" width="3.25" height="1.57"/><rect class="z" x="126.55" y="584.57" width="3.25" height="1.57"/><rect class="z" x="149.84" y="581.29" width="3.25" height="1.57"/><rect class="z" x="149.84" y="587.86" width="3.25" height="1.57"/><rect class="z" x="149.84" y="584.57" width="3.25" height="1.57"/><g class="a"><g class="a"><path class="b" d="M121.8,614.6h3.67c2.72,0,4.58,1.68,4.58,4.2s-1.86,4.2-4.58,4.2H121.8Zm3.6,7.08a2.89,2.89,0,1,0,0-5.76h-2v5.76Z"/><path class="b" d="M131,619.8a3.41,3.41,0,1,1,3.41,3.29A3.22,3.22,0,0,1,131,619.8Zm5.31,0a1.9,1.9,0,1,0-1.91,2A1.87,1.87,0,0,0,136.36,619.8Z"/><path class="b" d="M145.62,619.33V623h-1.5v-3.48c0-1.14-.56-1.69-1.52-1.69a1.7,1.7,0,0,0-1.79,1.93V623h-1.5v-6.4h1.43v.83a2.79,2.79,0,0,1,2.21-.9A2.5,2.5,0,0,1,145.62,619.33Z"/><path class="b" d="M148.93,615a2.58,2.58,0,0,1-.26,1l-.62,1.7h-1l.48-1.85A.9.9,0,0,1,147,615a1,1,0,1,1,1.94,0Z"/><path class="b" d="M154.31,622.65a2.36,2.36,0,0,1-1.44.43,2,2,0,0,1-2.21-2.16v-3.08h-1.06v-1.2h1.06v-1.46h1.5v1.46h1.71v1.2h-1.71v3c0,.62.31,1,.89,1a1.35,1.35,0,0,0,.84-.26Z"/><path class="b" d="M165.17,619.33V623h-1.5v-3.48c0-1.14-.56-1.69-1.52-1.69a1.7,1.7,0,0,0-1.79,1.93V623h-1.5v-6.4h1.43v.83a2.78,2.78,0,0,1,2.21-.9A2.5,2.5,0,0,1,165.17,619.33Z"/><path class="b" d="M173.13,620.28h-5a1.94,1.94,0,0,0,2.07,1.54,2.3,2.3,0,0,0,1.74-.7l.8.92a3.6,3.6,0,0,1-6.12-2.24,3.19,3.19,0,0,1,3.31-3.27,3.12,3.12,0,0,1,3.24,3.31C173.16,620,173.15,620.13,173.13,620.28Zm-5-1h3.63a1.74,1.74,0,0,0-1.81-1.56A1.77,1.77,0,0,0,168.1,619.28Z"/><path class="b" d="M180.6,620.28h-5a1.94,1.94,0,0,0,2.08,1.54,2.3,2.3,0,0,0,1.74-.7l.8.92a3.6,3.6,0,0,1-6.12-2.24,3.19,3.19,0,0,1,3.31-3.27,3.12,3.12,0,0,1,3.24,3.31C180.62,620,180.61,620.13,180.6,620.28Zm-5-1h3.63a1.74,1.74,0,0,0-1.81-1.56A1.77,1.77,0,0,0,175.56,619.28Z"/><path class="b" d="M188.34,614.1V623H186.9v-.83a2.64,2.64,0,0,1-2.12.91,3.28,3.28,0,0,1,0-6.56,2.62,2.62,0,0,1,2.06.86V614.1Zm-1.47,5.7a1.91,1.91,0,1,0-1.91,2A1.87,1.87,0,0,0,186.86,619.8Z"/></g><g class="a"><path class="b" d="M133.71,637.65a2.35,2.35,0,0,1-1.44.43,2,2,0,0,1-2.21-2.16v-3.08H129v-1.2h1.06v-1.46h1.5v1.46h1.71v1.2h-1.71v3c0,.62.31,1,.89,1a1.35,1.35,0,0,0,.84-.26Z"/><path class="b" d="M134.2,634.8a3.41,3.41,0,1,1,3.41,3.29A3.22,3.22,0,0,1,134.2,634.8Zm5.31,0a1.9,1.9,0,1,0-1.91,2A1.87,1.87,0,0,0,139.52,634.8Z"/><path class="b" d="M149.49,631.52V633a1.86,1.86,0,0,0-.35,0,1.75,1.75,0,0,0-1.86,2V638h-1.5v-6.4h1.43v.94A2.52,2.52,0,0,1,149.49,631.52Z"/><path class="b" d="M156.7,635.28h-5a1.94,1.94,0,0,0,2.08,1.54,2.29,2.29,0,0,0,1.74-.7l.8.92a3.6,3.6,0,0,1-6.12-2.24,3.18,3.18,0,0,1,3.31-3.27,3.12,3.12,0,0,1,3.24,3.31C156.72,635,156.71,635.13,156.7,635.28Zm-5-1h3.63a1.74,1.74,0,0,0-1.81-1.56A1.77,1.77,0,0,0,151.66,634.28Z"/><path class="b" d="M165,634.8a3.12,3.12,0,0,1-3.25,3.29,2.63,2.63,0,0,1-2.05-.86v3.11h-1.5V631.6h1.43v.84a2.64,2.64,0,0,1,2.12-.91A3.12,3.12,0,0,1,165,634.8Zm-1.52,0a1.9,1.9,0,1,0-1.9,2A1.86,1.86,0,0,0,163.44,634.8Z"/><path class="b" d="M171.68,634.25V638h-1.42v-.78a2.27,2.27,0,0,1-2,.86c-1.46,0-2.39-.8-2.39-1.92s.72-1.91,2.66-1.91h1.66v-.1c0-.88-.53-1.39-1.59-1.39a3.18,3.18,0,0,0-1.94.64l-.59-1.09a4.5,4.5,0,0,1,2.71-.79C170.61,631.52,171.68,632.4,171.68,634.25Zm-1.5,1.75v-.74h-1.55c-1,0-1.3.38-1.3.85s.46.89,1.22.89A1.63,1.63,0,0,0,170.18,636Z"/><path class="b" d="M173.4,629.64a.91.91,0,0,1,1-.9.89.89,0,0,1,1,.86,1,1,0,0,1-1.92,0Zm.2,2h1.5V638h-1.5Z"/><path class="b" d="M180.77,631.52V633a1.88,1.88,0,0,0-.35,0,1.74,1.74,0,0,0-1.86,2V638h-1.5v-6.4h1.43v.94A2.52,2.52,0,0,1,180.77,631.52Z"/></g></g></svg>