<svg width="71" height="71" xmlns="http://www.w3.org/2000/svg" xmlns:xlink="http://www.w3.org/1999/xlink" overflow="hidden"><defs><clipPath id="clip0"><path d="M666 312 737 312 737 383 666 383Z" fill-rule="evenodd" clip-rule="evenodd"/></clipPath></defs><g clip-path="url(#clip0)" transform="translate(-666 -312)"><path d="M666 348C666 328.67 681.67 313 701 313 720.33 313 736 328.67 736 348 736 367.33 720.33 383 701 383 681.67 383 666 367.33 666 348Z" fill="#F2F2F2" fill-rule="evenodd"/><path d="M676 361.266 680.331 350.071 691.381 346.113 711.241 346 723.221 350.22 726 362 712.063 355.725 690.41 355.838 676 361.266Z" fill="#00AEEF" fill-rule="evenodd"/><path d="M676 362.491 676 360.453 690.349 354 712.203 354 726 361.132 726 361.132 726 363 712.203 355.698 690.68 355.698 676 362.491Z" fill="#004280" fill-rule="evenodd"/><rect x="687" y="330" width="24" height="12" fill="#00AEEF"/><rect x="0" y="0" width="21" height="1" fill="#FFFFFF" transform="matrix(-1 -8.74228e-08 -8.74228e-08 1 716 353)"/><path d="M0 3 2.47749 0 18.5225 0 21 3Z" fill="#004280" fill-rule="evenodd" transform="matrix(-1 -8.74228e-08 -8.74228e-08 1 716 350)"/><path d="M0 1 0.825831 0 9.17417 0 10 1Z" fill="#00AEEF" fill-rule="evenodd" transform="matrix(-1 -8.74228e-08 -8.74228e-08 1 711 352)"/><path d="M0 1 0.825827 0 15.1742 0 16 1Z" fill="#00AEEF" fill-rule="evenodd" transform="matrix(-1 -8.74228e-08 -8.74228e-08 1 714 351)"/><path d="M0 1 0.825827 0 15.1742 0 16 1Z" fill="#00AEEF" fill-rule="evenodd" transform="matrix(-1 -8.74228e-08 -8.74228e-08 1 714 351)"/><rect x="0" y="0" width="0.212178" height="2.12157" fill="#004280" transform="matrix(-0.866025 0.5 0.5 0.866025 712.705 350.458)"/><rect x="0" y="0" width="0.212178" height="1.57155" fill="#004280" transform="matrix(-0.939693 0.34202 0.34202 0.939693 711.743 350.417)"/><rect x="0" y="0" width="0.212178" height="1.57155" fill="#004280" transform="matrix(-0.939693 0.34202 0.34202 0.939693 710.648 350.417)"/><rect x="0" y="0" width="0.212178" height="1.57155" fill="#004280" transform="matrix(-0.965926 0.258819 0.258819 0.965926 709.622 350.405)"/><rect x="0" y="0" width="0.212178" height="1.57155" fill="#004280" transform="matrix(-0.965926 0.258819 0.258819 0.965926 708.528 350.405)"/><rect x="0" y="0" width="0.212178" height="1.57155" fill="#004280" transform="matrix(-0.984808 0.173648 0.173648 0.984808 707.503 350.399)"/><rect x="0" y="0" width="0.212178" height="1.57155" fill="#004280" transform="matrix(-0.984808 0.173648 0.173648 0.984808 706.409 350.399)"/><rect x="0" y="0" width="1" height="2" fill="#004280" transform="matrix(-1 -8.74228e-08 -8.74228e-08 1 706 350)"/><rect x="0" y="0" width="0.212178" height="1.57155" fill="#004280" transform="matrix(-0.984808 -0.173648 -0.173648 0.984808 704.494 350.436)"/><rect x="0" y="0" width="0.212178" height="1.57155" fill="#004280" transform="matrix(-0.984808 -0.173648 -0.173648 0.984808 703.399 350.436)"/><rect x="0" y="0" width="0.212178" height="1.57155" fill="#004280" transform="matrix(-0.939693 -0.34202 -0.34202 0.939693 699.15 350.489)"/><rect x="0" y="0" width="0.212178" height="1.57155" fill="#004280" transform="matrix(-0.965926 -0.258819 -0.258819 0.965926 702.37 350.46)"/><rect x="0" y="0" width="0.212178" height="1.57155" fill="#004280" transform="matrix(-0.965926 -0.258819 -0.258819 0.965926 701.276 350.46)"/><rect x="0" y="0" width="0.212178" height="1.57155" fill="#004280" transform="matrix(-0.939693 -0.34202 -0.34202 0.939693 700.245 350.489)"/><path d="M0 1.35339C-2.68675e-16 0.605932 0.605933 0 1.35339 0L1.35339 0C2.10085 0 2.70678 0.605932 2.70678 1.35339L2.70677 7.08799C2.70677 7.83544 2.10084 8.44137 1.35338 8.44137L1.35339 8.44136C0.605933 8.44136 0 7.83543 0 7.08798Z" fill="#004280" fill-rule="evenodd" transform="matrix(-0.834835 -0.5505 -0.5505 0.834835 710.067 352.466)"/><path d="M693 351.5C693 350.672 693.672 350 694.5 350L704.5 350C705.328 350 706 350.672 706 351.5L706 357.5C706 358.328 705.328 359 704.5 359L694.5 359C693.672 359 693 358.328 693 357.5Z" fill="#004280" fill-rule="evenodd"/><path d="M694 351.923C694 350.861 694.861 350 695.923 350L703.077 350C704.139 350 705 350.861 705 351.923L705 363.077C705 364.139 704.139 365 703.077 365L695.923 365C694.861 365 694 364.139 694 363.077Z" fill="#004280" fill-rule="evenodd"/><path d="M694 361.667C694 361.298 694.298 361 694.667 361L704.333 361C704.702 361 705 361.298 705 361.667L705 364.333C705 364.702 704.702 365 704.333 365L694.667 365C694.298 365 694 364.702 694 364.333Z" fill="#243A5E" fill-rule="evenodd"/><path d="M699.549 363.5 699.549 363.5 698.378 363.439 697.652 363.391 696.874 363.33 696.874 363.33 696.449 363.281 696.014 363.208 695.589 363.123 695.164 363.026 695.164 363.026 695.008 362.965 694.863 362.917 694.759 362.844 694.718 362.795 694.687 362.747 694.656 362.698 694.624 362.637 694.583 362.491 694.542 362.321 694.531 362.127 694.531 362.127 694.51 361.616 694.5 361.118 694.5 360.608 694.521 360.109 694.521 360.109 694.552 359.417 694.604 358.712 694.707 357.326 694.707 357.326 694.842 355.832 694.998 354.337 694.998 354.337 695.184 352.721 695.381 351.08 695.381 351.08 695.412 350.91 695.423 350.837 695.423 350.752 695.423 350.752 695.433 350.642 695.454 350.57 695.485 350.509 695.516 350.46 695.558 350.412 695.599 350.375 695.713 350.314 695.713 350.314 695.983 350.193 696.252 350.096 696.511 349.998 696.791 349.925 697.071 349.852 697.341 349.78 697.621 349.719 697.901 349.67 697.901 349.67 698.274 349.609 698.657 349.573 699.031 349.537 699.404 349.512 699.777 349.5 700.161 349.5 700.534 349.512 700.918 349.537 700.918 349.537 701.353 349.573 701.788 349.622 702.224 349.682 702.67 349.78 703.095 349.889 703.52 350.01 703.935 350.168 704.349 350.351 704.349 350.351 704.432 350.399 704.494 350.46 704.515 350.497 704.536 350.533 704.546 350.582 704.557 350.655 704.557 350.655 704.837 353.037 704.971 354.227 705.116 355.431 705.116 355.431 705.251 356.804 705.313 357.509 705.365 358.189 705.407 358.894 705.448 359.575 705.479 360.28 705.5 360.972 705.5 360.972 705.49 361.313 705.479 361.641 705.427 362.297 705.427 362.297 705.417 362.418 705.386 362.552 705.355 362.649 705.303 362.734 705.241 362.82 705.168 362.88 705.085 362.929 704.982 362.965 704.982 362.965 704.443 363.123 704.173 363.184 703.914 363.233 703.914 363.233 703.416 363.306 702.919 363.354 702.421 363.403 701.903 363.427 701.353 363.464 700.783 363.488 699.549 363.5 699.549 363.5Z" stroke="#FFFFFF" stroke-linejoin="round" stroke-miterlimit="10" fill="#00AEEF" fill-rule="evenodd"/><path d="M707 364.178 707 364.178 707.125 364.152 707.25 364.125 707.25 364.125 707.42 364.059 707.568 363.98 707.716 363.888 707.864 363.795 707.989 363.663 708.114 363.545 708.216 363.413 708.33 363.267 708.42 363.109 708.5 362.951 708.568 362.779 708.625 362.594 708.67 362.422 708.716 362.238 708.739 362.026 708.75 361.842 708.75 361.842 708.75 359.941 708.75 359.941 708.75 359.782 708.75 359.782 708.273 359.782 707.818 359.782 707.818 359.782 707.693 359.769 707.591 359.743 707.5 359.716 707.409 359.663 707.318 359.584 707.25 359.492 707.193 359.399 707.136 359.294 707.136 359.294 707.091 359.188 707.068 359.056 707.057 358.937 707.045 358.832 707.068 358.726 707.091 358.594 707.136 358.488 707.193 358.383 707.193 358.383 707.239 358.304 707.307 358.224 707.386 358.158 707.455 358.119 707.534 358.053 707.614 358.026 707.705 358.013 707.807 358 707.807 358 711.239 358 711.239 358 711.318 358.013 711.398 358.026 711.466 358.04 711.534 358.079 711.602 358.119 711.659 358.172 711.773 358.277 711.875 358.396 711.943 358.541 711.966 358.634 711.989 358.713 712 358.805 712 358.884 712 358.884 712 358.977 711.989 359.056 711.966 359.149 711.943 359.228 711.875 359.373 711.773 359.505 711.67 359.611 711.614 359.677 711.545 359.703 711.477 359.743 711.409 359.756 711.33 359.782 711.25 359.782 711.25 359.782 710.773 359.782 710.273 359.782 710.273 359.782 710.273 359.98 710.273 359.98 710.284 360.997 710.273 361.498 710.273 362 710.273 362 710.25 362.343 710.205 362.673 710.136 363.003 710.045 363.32 709.92 363.624 709.795 363.914 709.648 364.191 709.466 364.455 709.284 364.706 709.068 364.944 708.852 365.142 708.614 365.353 708.375 365.512 708.114 365.657 707.841 365.776 707.557 365.881 707.557 365.881 707.273 365.947 707 366 707 364.178Z" fill="#004280" fill-rule="evenodd"/><path d="M692 364.178 692 364.178 691.875 364.152 691.75 364.125 691.75 364.125 691.58 364.059 691.432 363.98 691.284 363.888 691.136 363.795 691.011 363.663 690.886 363.545 690.784 363.413 690.67 363.267 690.58 363.109 690.5 362.951 690.432 362.779 690.375 362.594 690.33 362.422 690.284 362.238 690.261 362.026 690.25 361.842 690.25 361.842 690.25 359.941 690.25 359.941 690.25 359.782 690.25 359.782 690.716 359.782 691.182 359.782 691.182 359.782 691.307 359.769 691.409 359.743 691.5 359.716 691.591 359.663 691.682 359.584 691.75 359.492 691.807 359.399 691.864 359.294 691.864 359.294 691.909 359.188 691.932 359.056 691.943 358.937 691.943 358.832 691.932 358.726 691.909 358.594 691.864 358.488 691.807 358.383 691.807 358.383 691.75 358.304 691.693 358.224 691.614 358.158 691.545 358.119 691.466 358.053 691.386 358.026 691.295 358.013 691.193 358 691.193 358 687.761 358 687.761 358 687.682 358.013 687.602 358.026 687.534 358.04 687.466 358.079 687.398 358.119 687.341 358.172 687.227 358.277 687.125 358.396 687.057 358.541 687.034 358.634 687.011 358.713 687 358.805 687 358.884 687 358.884 687 358.977 687.011 359.056 687.034 359.149 687.057 359.228 687.125 359.373 687.227 359.505 687.33 359.611 687.386 359.677 687.455 359.703 687.523 359.743 687.591 359.756 687.67 359.782 687.75 359.782 687.75 359.782 688.227 359.782 688.727 359.782 688.727 359.782 688.727 359.98 688.727 359.98 688.716 360.997 688.727 361.498 688.727 362 688.727 362 688.75 362.343 688.795 362.673 688.864 363.003 688.955 363.32 689.08 363.624 689.205 363.914 689.352 364.191 689.534 364.455 689.716 364.706 689.932 364.944 690.148 365.142 690.386 365.353 690.625 365.512 690.886 365.657 691.159 365.776 691.443 365.881 691.443 365.881 691.727 365.947 692 366 692 364.178Z" fill="#004280" fill-rule="evenodd"/><path d="M706.642 363.5 706.53 363.515 706.43 363.545 706.318 363.575 705.858 363.77 705.411 363.919 704.95 364.069 704.49 364.189 704.03 364.279 703.57 364.354 703.109 364.414 702.637 364.458 701.754 364.533 700.858 364.578 699.95 364.593 699.055 364.578 698.644 364.563 698.221 364.533 697.413 364.443 696.58 364.339 695.759 364.204 695.485 364.159 695.211 364.084 694.664 363.904 694.117 363.725 693.57 363.545 693.47 363.515 693.371 363.5 693.284 363.515 693.209 363.53 693.122 363.545 693.047 363.59 692.96 363.635 692.886 363.695 692.823 363.77 692.774 363.859 692.711 363.949 692.662 364.069 692.624 364.174 692.587 364.294 692.562 364.414 692.537 364.563 692.513 364.848 692.5 365.132 692.5 365.716 692.5 365.971 692.513 366.211 692.562 366.435 692.574 366.5 707.427 366.5 707.45 366.39 707.475 366.181 707.5 365.821 707.5 365.447 707.5 365.072 707.475 364.713 707.45 364.533 707.425 364.384 707.388 364.234 707.351 364.099 707.301 363.964 707.239 363.859 707.177 363.77 707.102 363.68 707.015 363.62 706.928 363.575 706.841 363.53 706.741 363.515Z" stroke="#FFFFFF" stroke-linejoin="round" stroke-miterlimit="10" fill="#00AEEF" fill-rule="evenodd"/><path d="M696 344.5C696 342.567 697.567 341 699.5 341 701.433 341 703 342.567 703 344.5 703 346.433 701.433 348 699.5 348 697.567 348 696 346.433 696 344.5Z" fill="#004280" fill-rule="evenodd"/><rect x="688" y="331" width="21" height="10" fill="#003C71"/></g></svg>