<svg width="71" height="71" xmlns="http://www.w3.org/2000/svg" xmlns:xlink="http://www.w3.org/1999/xlink" overflow="hidden"><defs><clipPath id="clip0"><path d="M422 312 493 312 493 383 422 383Z" fill-rule="evenodd" clip-rule="evenodd"/></clipPath></defs><g clip-path="url(#clip0)" transform="translate(-422 -312)"><path d="M422 348C422 328.67 437.67 313 457 313 476.33 313 492 328.67 492 348 492 367.33 476.33 383 457 383 437.67 383 422 367.33 422 348Z" fill="#F2F2F2" fill-rule="evenodd"/><path d="M470.614 349C443.193 349 443.193 349 443.193 349 443.193 349 443 349.184 443 349.369 443 367.631 443 367.631 443 367.631 443 367.816 443.193 368 443.579 368 470.421 368 470.421 368 470.421 368 470.807 368 471 367.816 471 367.631 471 349.369 471 349.369 471 349.369 471 349.184 470.807 349 470.614 349M458.641 358.408C458.641 358.592 458.641 358.592 458.641 358.777 458.641 363.019 458.641 363.019 458.641 363.019 458.641 363.204 458.448 363.388 458.255 363.388 455.552 363.388 455.552 363.388 455.552 363.388 455.359 363.388 455.359 363.204 455.359 363.019 455.359 358.777 455.359 358.777 455.359 358.777 455.359 358.592 455.166 358.592 455.166 358.408 454.586 358.039 454.2 357.301 454.2 356.379 454.2 355.087 455.552 353.796 456.903 353.796 458.641 353.796 459.8 354.903 459.8 356.379 459.8 357.301 459.414 358.039 458.641 358.408" fill="#003C71" fill-rule="evenodd"/><path d="M450.974 346C446.191 346 446.191 346 446.191 346 446 346 446 346 446 345.804 446 338.361 446 338.361 446 338.361 446 335.227 447.148 332.485 449.252 330.33 451.357 328.175 454.035 327 456.904 327 463.026 327.196 468 332.289 468 338.557 468 345.804 468 345.804 468 345.804 468 346 468 346 467.809 346 462.835 346 462.835 346 462.835 346 462.835 346 462.835 346 462.835 345.804 462.835 338.361 462.835 338.361 462.835 338.361 462.835 335.031 460.157 332.485 456.904 332.485 453.843 332.485 451.165 335.227 451.165 338.361 451.165 345.804 451.165 345.804 451.165 345.804 451.165 346 451.165 346 450.974 346" fill="#00AEEF" fill-rule="evenodd"/></g></svg>