<svg width="72" height="71" xmlns="http://www.w3.org/2000/svg" xmlns:xlink="http://www.w3.org/1999/xlink" overflow="hidden"><defs><clipPath id="clip0"><path d="M152 312 224 312 224 383 152 383Z" fill-rule="evenodd" clip-rule="evenodd"/></clipPath></defs><g clip-path="url(#clip0)" transform="translate(-152 -312)"><path d="M153 348C153 328.67 168.67 313 188 313 207.33 313 223 328.67 223 348 223 367.33 207.33 383 188 383 168.67 383 153 367.33 153 348Z" fill="#F2F2F2" fill-rule="evenodd"/><path d="M174.928 336.838C174.928 336.838 174.928 336.838 174.928 336.838 174.928 336.838 174.928 336.838 174.928 336.838 174.928 336.838 174.928 336.838 174.928 336.838M178.088 338.251C178.807 338.534 179.812 338.817 180.818 339.099 179.812 338.817 178.807 338.534 178.088 338.251M185.558 354.084C183.691 358.042 180.243 360.728 175.215 362 174.641 362 174.641 362 174.641 362 169.757 360.728 166.166 358.042 164.298 354.084 162 349.136 163.006 340.796 163.149 339.099 163.293 338.393 163.867 337.969 164.442 337.969 171.05 337.403 173.635 335.565 174.21 335.141 174.641 335 175.215 335 175.646 335.141 176.221 335.565 178.807 337.403 185.414 337.969 186.133 337.969 186.564 338.393 186.707 339.099 186.994 340.796 188 349.136 185.558 354.084M185.271 339.665C185.271 339.524 185.127 339.382 184.983 339.382 183.403 339.382 181.967 339.241 180.818 339.099 179.812 338.817 178.807 338.534 178.088 338.251 176.652 337.686 175.79 337.12 175.215 336.838 175.072 336.838 175.072 336.838 174.928 336.838 174.928 336.838 174.928 336.838 174.928 336.838 174.928 336.838 174.928 336.838 174.928 336.838 174.928 336.838 174.928 336.838 174.785 336.838 173.779 337.403 170.906 338.958 165.16 339.382 164.873 339.382 164.729 339.524 164.729 339.665 164.442 341.785 163.724 349.136 165.735 353.377 167.459 356.911 170.619 359.314 174.928 360.445 174.928 360.445 174.928 360.445 175.072 360.445 175.072 360.445 175.072 360.445 175.072 360.445 179.381 359.314 182.541 356.911 184.265 353.377 186.276 349.136 185.558 341.927 185.271 339.665M183.691 341.503C183.691 341.22 183.403 340.937 183.116 340.937 178.95 340.513 176.508 339.382 175.215 338.817 175.072 338.817 174.785 338.817 174.641 338.817 172.773 339.665 170.044 340.513 166.74 340.937 166.453 340.937 166.166 341.22 166.166 341.503 166.022 344.33 165.735 349.56 167.315 352.67 168.608 355.497 171.193 357.618 174.785 358.607 174.785 358.607 174.928 358.607 174.928 358.607 174.928 358.607 175.072 358.607 175.072 358.607 178.663 357.618 181.249 355.497 182.541 352.67 184.122 349.56 183.834 344.33 183.691 341.503" fill="#00AEEF" fill-rule="evenodd"/><path d="M205.558 328.584 205.558 328.584 205.544 328.223 205.461 327.861 205.337 327.51 205.144 327.189 204.937 326.867 204.688 326.586 204.398 326.305 204.067 326.034 203.694 325.813 203.335 325.602 202.921 325.432 202.479 325.281 202.009 325.151 201.54 325.08 201.056 325.02 200.532 325 200.532 325 200.035 325.02 199.579 325.06 199.109 325.151 198.64 325.261 198.226 325.392 197.811 325.562 197.452 325.773 197.079 325.984 196.776 326.225 196.458 326.486 196.223 326.777 195.988 327.078 195.809 327.4 195.657 327.711 195.56 328.052 195.505 328.414 195.091 328.414 195.091 328.414 194.884 328.434 194.677 328.474 194.497 328.544 194.304 328.645 194.18 328.775 194.069 328.906 194.028 329.056 194 329.207 194 329.207 194.028 329.378 194.069 329.508 194.18 329.659 194.304 329.769 194.497 329.869 194.677 329.94 194.884 329.98 195.091 330 204.923 330 204.923 330 205.13 329.98 205.337 329.94 205.517 329.869 205.669 329.769 205.82 329.659 205.903 329.508 205.986 329.378 206 329.207 206 329.207 205.986 329.016 205.876 328.845 205.751 328.715 205.558 328.584 205.558 328.584Z" fill="#003C71" fill-rule="evenodd"/><path d="M197.1 331 197.1 331 197.05 331.294 197 331.563 197 331.844 197 332.138 197 332.394 197.05 332.688 197.1 332.944 197.163 333.212 197.238 333.481 197.338 333.737 197.476 333.98 197.588 334.223 197.751 334.465 197.914 334.683 198.127 334.875 198.34 335.066 198.34 335.066 198.527 335.258 198.765 335.399 199.003 335.54 199.241 335.668 199.466 335.757 199.704 335.859 199.967 335.91 200.23 335.949 200.48 336 200.743 336 201.019 336 201.282 335.974 201.545 335.949 201.795 335.91 202.058 335.834 202.296 335.731 202.546 335.642 202.784 335.54 203.022 335.399 203.235 335.284 203.448 335.118 203.66 334.939 203.848 334.772 204.036 334.581 204.199 334.363 204.336 334.171 204.474 333.941 204.599 333.698 204.712 333.455 204.787 333.187 204.862 332.931 204.9 332.637 204.9 332.637 204.975 332.228 205 331.818 204.95 331.409 204.875 331 197.1 331Z" fill="#003C71" fill-rule="evenodd"/><path d="M189 347.392 189 341.934 189 341.934 189.125 341.221C189.253 341.013 189.378 340.802 189.506 340.594L189.884 339.967 190.518 339.432 190.518 339.432 191.149 338.983 191.908 338.538 192.667 338.267 193.552 338.089 193.552 338.089 194.311 338 195.07 338 204.93 338 204.93 338 205.689 338 206.448 338.089 206.448 338.089 207.333 338.267 208.092 338.538 208.851 338.983 209.482 339.432 209.482 339.432 209.988 339.967 210.494 340.594C210.622 340.802 210.747 341.013 210.875 341.221L211 341.934 211 347.313 207.385 346.963C207.198 345.765 207.014 344.564 206.827 343.366L206.827 343.366 206.827 343.188 206.827 343.188 206.07 343.188 206.07 343.188 206.07 343.455 206.07 343.455 206.07 367.69 206.07 367.69C206.028 368.258 205.984 368.822 205.942 369.39L205.942 369.39C205.9 369.568 205.859 369.749 205.817 369.927L205.311 370.373 205.311 370.373 204.805 370.733 204.173 370.911 203.54 371 202.908 371 202.908 371 202.149 370.822 201.39 370.551 201.137 370.373 200.884 370.106 200.759 369.838 200.631 369.568 200.631 369.568C200.59 369 200.548 368.436 200.506 367.868L200.506 367.868 200.506 354.097 199.494 354.097 199.494 354.097 199.494 367.868 199.494 367.868C199.452 368.436 199.41 369 199.369 369.568L199.369 369.568 199.241 369.838 199.116 370.106 198.863 370.373 198.482 370.551 197.851 370.822 197.092 371 197.092 371 196.333 371 195.701 370.911 195.195 370.733 194.564 370.373 194.564 370.373 194.183 369.927C194.141 369.749 194.1 369.568 194.058 369.39L194.058 369.39C194.016 368.822 193.972 368.258 193.93 367.69L193.93 367.69 193.93 343.455 193.93 343.455 193.93 343.188 193.93 343.188 193.173 343.188 193.173 343.188 193.173 343.366 193.173 347.392 189 347.392Z" fill="#003C71" fill-rule="evenodd"/><path d="M9.38173 5.41811 3.37742 0.42495 3.25233 0.42495 3.25233 0.42495 3.25233 0.42495 2.5018 0.106238 1.75126 0 1.12581 0.212475 0.750539 0.42495 0.500359 0.637425 0.500359 0.637425 0.25018 0.8499 0.12509 1.16861 0 1.80604 0.12509 2.44346 0.500359 2.97465 7.00503 8.39277 7.00503 8.39277 7.25521 8.499 8.00574 8.39277 8.38101 8.18029 8.75628 7.86158 9.13155 7.54286 9.38173 6.90544 9.38173 5.41811Z" fill="#003C71" fill-rule="evenodd" transform="matrix(0.707107 -0.707107 -0.707107 -0.707107 208.359 356.865)"/><path d="M9.71842 5.35507 3.49863 0.420005 3.36905 0.420005 3.36905 0.420005 3.36905 0.420005 2.59158 0.105001 1.81411 0 1.16621 0.210003 0.777474 0.420005 0.518316 0.630008 0.518316 0.630008 0.259158 0.84001 0.129579 1.15501 0 1.78502 0.129579 2.41503 0.518316 2.94004 7.25642 8.2951 7.25642 8.2951 7.51558 8.4001 8.29306 8.2951 8.68179 8.0851 9.07053 7.7701 9.45927 7.45509 9.71842 6.82509 9.71842 5.35507Z" fill="#003C71" fill-rule="evenodd" transform="matrix(0.550939 -0.834546 -0.834546 -0.550939 192.334 356.419)"/></g></svg>