<svg width="456" height="279" xmlns="http://www.w3.org/2000/svg" xmlns:xlink="http://www.w3.org/1999/xlink" overflow="hidden"><defs><clipPath id="clip0"><path d="M78 559 534 559 534 838 78 838Z" fill-rule="evenodd" clip-rule="evenodd"/></clipPath></defs><g clip-path="url(#clip0)" transform="translate(-78 -559)"><rect x="262.5" y="759.5" width="88" height="70" stroke="#BFBFBF" stroke-width="0.666667" stroke-linejoin="round" stroke-miterlimit="10" stroke-dasharray="2.66667 2" fill="none"/><text fill="#003C71" font-family="Calibri,Calibri_MSFontService,sans-serif" font-weight="400" font-size="15" transform="translate(279.16 807)">VMS + AI <tspan x="7.66669" y="17">Server</tspan></text><path d="M290.407 618.682C290.121 618.809 289.785 618.681 289.658 618.395L288.736 616.323C288.608 616.037 288.737 615.702 289.023 615.575L297.546 611.78C297.832 611.653 298.167 611.781 298.295 612.067L299.217 614.139C299.344 614.425 299.216 614.76 298.93 614.887Z" fill="#003C71" fill-rule="evenodd"/><path d="M0 0.566891C0 0.253806 0.253806 0 0.566892 0L2.83437 0C3.14745 -8.55564e-17 3.40126 0.253806 3.40126 0.566891L3.40126 10.1853C3.40126 10.4984 3.14745 10.7522 2.83437 10.7522L0.566892 10.7522C0.253806 10.7522 0 10.4984 0 10.1853Z" fill="#003C71" fill-rule="evenodd" transform="matrix(-0.406737 0.913545 0.913545 0.406737 312.402 611.432)"/><path d="M0 0.566891C-8.05224e-17 0.253806 0.253806 -1.61045e-16 0.566891 -1.61045e-16L2.83437 0C3.14745 -1.61045e-16 3.40126 0.253806 3.40126 0.566891L3.40126 9.55269C3.40126 9.86577 3.14745 10.1196 2.83437 10.1196L0.566891 10.1196C0.253806 10.1196 0 9.86577 0 9.55269Z" fill="#003C71" fill-rule="evenodd" transform="matrix(-0.406737 0.913545 0.913545 0.406737 290.357 603.353)"/><path d="M312.751 610.491C312.465 610.619 312.13 610.49 312.002 610.204L311.08 608.132C310.953 607.846 311.081 607.511 311.367 607.384L319.901 603.584C320.188 603.457 320.523 603.586 320.65 603.872L321.572 605.943C321.7 606.229 321.571 606.564 321.285 606.692Z" fill="#003C71" fill-rule="evenodd"/><path d="M288 614.5C288 613.672 288.672 613 289.5 613L289.5 613C290.328 613 291 613.672 291 614.5L291 617.5C291 618.328 290.328 619 289.5 619L289.5 619C288.672 619 288 618.328 288 617.5Z" fill="#003C71" fill-rule="evenodd"/><path d="M320 614.5C320 613.672 320.672 613 321.5 613L321.5 613C322.328 613 323 613.672 323 614.5L323 617.5C323 618.328 322.328 619 321.5 619L321.5 619C320.672 619 320 618.328 320 617.5Z" fill="#003C71" fill-rule="evenodd"/><path d="M318 603C318 601.895 318.895 601 320 601L320 601C321.105 601 322 601.895 322 603L322 605C322 606.105 321.105 607 320 607L320 607C318.895 607 318 606.105 318 605Z" fill="#003C71" fill-rule="evenodd"/><path d="M289 602.5C289 601.672 289.672 601 290.5 601L290.5 601C291.328 601 292 601.672 292 602.5L292 605.5C292 606.328 291.328 607 290.5 607L290.5 607C289.672 607 289 606.328 289 605.5Z" fill="#003C71" fill-rule="evenodd"/><path d="M0 0.811593C0 0.363357 0.181085 0 0.404472 0L2.0223 0C2.24569 0 2.42677 0.363357 2.42677 0.811593 2.295 2.48431 2.36089 2.35025 2.03146 5.82972 1.83381 7.11524 1.85038 7.56672 1.62699 7.56672L1.06333 7.52264C0.839947 7.52264 0.966322 7.29151 0.571001 5.82972 0.153725 2.62935 0 2.68994 0 0.811593Z" fill="#00AEEF" fill-rule="evenodd" transform="matrix(-0.104529 -0.994522 -0.994522 0.104529 321.522 615.514)"/><path d="M0 0.811593C0 0.363357 0.181085 0 0.404472 0L2.0223 0C2.24569 0 2.42677 0.363357 2.42677 0.811593 2.295 2.48431 2.36089 2.35025 2.03146 5.82972 1.83381 7.11524 1.85038 7.56672 1.62699 7.56672L1.06333 7.52264C0.839947 7.52264 0.966322 7.29151 0.571001 5.82972 0.153725 2.62935 0 2.68994 0 0.811593Z" fill="#00AEEF" fill-rule="evenodd" transform="matrix(0.104528 0.994522 0.994522 -0.104528 320.359 613.174)"/><path d="M289.458 612.86C289.903 612.914 290.242 613.138 290.215 613.36L290.017 614.966C289.99 615.187 289.607 615.323 289.163 615.268 287.518 614.934 287.643 615.015 284.23 614.264 282.978 613.911 282.528 613.873 282.555 613.651L282.668 613.097C282.695 612.875 282.909 613.029 284.408 612.815 287.635 612.791 287.594 612.631 289.458 612.86Z" fill="#00AEEF" fill-rule="evenodd"/><path d="M289.865 615.377C289.42 615.322 289.081 615.098 289.109 614.876L289.306 613.271C289.333 613.049 289.716 612.913 290.161 612.968 291.805 613.303 291.68 613.221 295.093 613.972 296.345 614.325 296.795 614.363 296.768 614.585L296.655 615.139C296.628 615.361 296.414 615.207 294.915 615.421 291.688 615.446 291.729 615.606 289.865 615.377Z" fill="#00AEEF" fill-rule="evenodd"/><path d="M289.478 601.624C289.877 601.412 290.284 601.399 290.388 601.594L291.142 603.011C291.246 603.207 291.007 603.537 290.608 603.749 289.057 604.426 289.207 604.42 285.956 605.779 284.719 606.214 284.325 606.442 284.221 606.247L283.998 605.732C283.894 605.537 284.159 605.538 285.276 604.5 287.931 602.619 287.805 602.513 289.478 601.624Z" fill="#00AEEF" fill-rule="evenodd"/><path d="M291.192 603.404C290.793 603.616 290.385 603.63 290.281 603.434L289.528 602.017C289.424 601.822 289.663 601.491 290.062 601.279 291.612 600.603 291.462 600.608 294.714 599.25 295.95 598.814 296.344 598.586 296.448 598.782L296.671 599.296C296.775 599.492 296.511 599.49 295.393 600.529 292.739 602.409 292.864 602.515 291.192 603.404Z" fill="#00AEEF" fill-rule="evenodd"/><path d="M0 0.818338C0 0.366376 0.179589 0 0.40113 0L2.00559 0C2.22713 0 2.40672 0.366376 2.40672 0.818338 2.27604 2.50495 2.34138 2.36979 2.01468 5.87817 1.81865 7.17437 1.83509 7.62961 1.61354 7.62961L1.05455 7.58517C0.833006 7.58517 0.958337 7.35211 0.566283 5.87817 0.152455 2.65121 0 2.71229 0 0.818338Z" fill="#00AEEF" fill-rule="evenodd" transform="matrix(0.515038 -0.857167 -0.857167 -0.515038 319.931 603.406)"/><path d="M0 0.818338C0 0.366376 0.179589 0 0.40113 0L2.00559 0C2.22713 0 2.40672 0.366376 2.40672 0.818338 2.27604 2.50495 2.34138 2.36979 2.01468 5.87817 1.81865 7.17437 1.83509 7.62961 1.61354 7.62961L1.05455 7.58517C0.833006 7.58517 0.958337 7.35211 0.566283 5.87817 0.152455 2.65121 0 2.71229 0 0.818338Z" fill="#00AEEF" fill-rule="evenodd" transform="matrix(-0.515038 0.857167 0.857167 0.515038 320.333 600.875)"/><path d="M305.5 622C305.776 622 306 622.224 306 622.5 306 622.776 305.776 623 305.5 623 305.224 623 305 622.776 305 622.5 305 622.465 305.004 622.432 305.01 622.399L305.029 622.34 305.086 622.425C305.139 622.479 305.213 622.512 305.294 622.512 305.457 622.512 305.588 622.38 305.588 622.217 305.588 622.136 305.555 622.063 305.502 622.009L305.49 622.001 305.5 622Z" fill="#003C71" fill-rule="evenodd"/><path d="M3 0.614475C3.68639 0.614475 4.24283 1.2348 4.24283 2 4.24283 2.7652 3.68639 3.38552 3 3.38552 2.31361 3.38552 1.75717 2.7652 1.75717 2 1.75717 1.2348 2.31361 0.614475 3 0.614475ZM3.00906 0 3 0.000444467 2.99094 0 2.99094 0.000885567 2.71733 0.0142566C1.19902 0.162234 0.0074694 1.36558 3.02038e-05 1.99068-0.00790434 2.65744 1.42666 4.01753 2.97747 3.99983L3 3.9979 3.02253 3.99983C4.57334 4.01753 6.0079 2.65744 5.99997 1.99068 5.99253 1.36558 4.80097 0.162234 3.28267 0.0142566L3.00906 0.000885567Z" fill="#003C71" fill-rule="evenodd" transform="matrix(-1 -8.74228e-08 -8.74228e-08 1 308 621)"/><path d="M301 623C301 620.791 302.791 619 305 619 307.209 619 309 620.791 309 623 309 625.209 307.209 627 305 627 302.791 627 301 625.209 301 623ZM301.843 623C301.843 624.744 303.256 626.157 305 626.157 306.744 626.157 308.157 624.744 308.157 623 308.157 621.256 306.744 619.843 305 619.843 303.256 619.843 301.843 621.256 301.843 623Z" fill="#00AEEF" fill-rule="evenodd"/><path d="M304 617.576C304 617.258 304.258 617 304.576 617L305.424 617C305.742 617 306 617.258 306 617.576L306 618.424C306 618.742 305.742 619 305.424 619L304.576 619C304.258 619 304 618.742 304 618.424Z" fill="#00AEEF" fill-rule="evenodd"/><path d="M303 614.153C303 613.516 303.516 613 304.153 613L305.847 613C306.484 613 307 613.516 307 614.153L307 615.847C307 616.484 306.484 617 305.847 617L304.153 617C303.516 617 303 616.484 303 615.847Z" fill="#00AEEF" fill-rule="evenodd"/><path d="M302.779 606 307.221 606C310.413 606 313 608.695 313 612.02L313 612.722 312.946 613 297.054 613 297 612.722 297 612.02C297 608.695 299.587 606 302.779 606Z" fill="#003C71" fill-rule="evenodd"/><path d="M295 766 307 766C308.657 766 310 767.343 310 769L310 790 292 790 292 769C292 767.343 293.343 766 295 766Z" fill="#003C71" fill-rule="evenodd"/><rect x="292" y="778" width="18" height="1" fill="#00AEEF"/><rect x="292" y="783" width="18" height="1" fill="#00AEEF"/><rect x="292" y="774" width="18" height="1" fill="#00AEEF"/><path d="M305 769 317 769C318.657 769 320 770.343 320 772L320 793 302 793 302 772C302 770.343 303.343 769 305 769Z" fill="#00AEEF" fill-rule="evenodd"/><rect x="302" y="781" width="18" height="1" fill="#003C71"/><rect x="302" y="786" width="18" height="1" fill="#003C71"/><rect x="302" y="777" width="18" height="1" fill="#003C71"/><path d="M290 666 293.284 649 317.716 649 321 666Z" fill="#003C71" fill-rule="evenodd"/><path d="M0 6 6.92601 0 24.074 0 31 6Z" fill="#00AEEF" fill-rule="evenodd" transform="matrix(1 0 0 -1 290 672)"/><path d="M0 1 1.04586 0 15.9541 0 17 1Z" fill="#003C71" fill-rule="evenodd" transform="matrix(1 0 0 -1 297 673)"/><rect x="301" y="670" width="9" height="2" fill="#003C71"/><rect x="301" y="664" width="9" height="2" fill="#00AEEF"/><path d="M0 2 0.5 0 8.5 0 9 2Z" fill="#003C71" fill-rule="evenodd" transform="matrix(1 0 0 -1 301 668)"/><path d="M298 655.5C298 653.015 301.358 651 305.5 651 309.642 651 313 653.015 313 655.5 313 657.985 309.642 660 305.5 660 301.358 660 298 657.985 298 655.5Z" fill="#00AEEF" fill-rule="evenodd"/><path d="M299 655C299 652.791 301.686 651 305 651 308.314 651 311 652.791 311 655 311 657.209 308.314 659 305 659 301.686 659 299 657.209 299 655Z" fill="#003C71" fill-rule="evenodd"/><path d="M305 648C307.901 648 310.321 650.548 310.88 653.936L311 655.406 310.418 656.026C309.031 657.246 307.116 658 305 658 302.884 658 300.969 657.246 299.582 656.026L299 655.405 299.12 653.936C299.679 650.548 302.099 648 305 648Z" fill="#00AEEF" fill-rule="evenodd"/><path d="M0 3 0 0 4 3Z" fill="#00AEEF" fill-rule="evenodd" transform="matrix(-1 -8.74228e-08 -8.74228e-08 1 300 660)"/><path d="M311 664 311 660 315 664Z" fill="#00AEEF" fill-rule="evenodd"/><path d="M0 3 0 0 3 3Z" fill="#00AEEF" fill-rule="evenodd" transform="matrix(-4.37114e-08 1 1 4.37114e-08 311 651)"/><path d="M0 3 0 0 3 3Z" fill="#00AEEF" fill-rule="evenodd" transform="matrix(1 -0 -0 -1 297 654)"/><rect x="303" y="664" width="2" height="2" fill="#00AEEF"/><rect x="306" y="664" width="3" height="2" fill="#00AEEF"/><path d="M319.08 665.212 317.6 657.762C317.579 657.659 317.646 657.559 317.75 657.538L318.684 657.352 320.238 665.176 319.304 665.361C319.201 665.382 319.1 665.315 319.08 665.212Z" fill="#00AEEF" fill-rule="evenodd"/><path d="M318.694 657.194 319.144 657.109 320.711 665.339 320.262 665.424Z" fill="#002D55" fill-rule="evenodd"/><path d="M304 649C304 648.448 304.448 648 305 648 305.552 648 306 648.448 306 649 306 649.552 305.552 650 305 650 304.448 650 304 649.552 304 649Z" fill="#003C71" fill-rule="evenodd"/><path d="M304 653C304 652.448 304.448 652 305 652 305.552 652 306 652.448 306 653 306 653.552 305.552 654 305 654 304.448 654 304 653.552 304 653Z" fill="#003C71" fill-rule="evenodd"/><path d="M306 651C306 650.448 306.448 650 307 650 307.552 650 308 650.448 308 651 308 651.552 307.552 652 307 652 306.448 652 306 651.552 306 651Z" fill="#003C71" fill-rule="evenodd"/><path d="M303 651C303 650.448 303.448 650 304 650 304.552 650 305 650.448 305 651 305 651.552 304.552 652 304 652 303.448 652 303 651.552 303 651Z" fill="#003C71" fill-rule="evenodd"/><path d="M292.843 657.625 291.447 665.091C291.427 665.195 291.328 665.263 291.224 665.243L290.288 665.068 291.755 657.228 292.691 657.403C292.795 657.423 292.863 657.522 292.843 657.625Z" fill="#00AEEF" fill-rule="evenodd"/><path d="M290.22 665.211 289.771 665.123 291.377 656.901 291.825 656.989Z" fill="#002D55" fill-rule="evenodd"/><path d="M314 697C316.209 697 318 699.013 318 701.496L318 715 317.221 715C317.221 710.524 317.221 706.049 317.221 701.573 317.221 699.573 315.779 697.952 314 697.952 312.221 697.952 310.779 699.573 310.779 701.573L310.779 715 310 715 310 701.496C310 699.013 311.791 697 314 697Z" fill="#003C71" fill-rule="evenodd"/><path d="M313.5 699C315.433 699 317 700.789 317 702.997L317 715 316.319 715C316.319 711.022 316.319 707.043 316.319 703.065 316.319 701.287 315.057 699.846 313.5 699.846 311.943 699.846 310.681 701.287 310.681 703.065L310.681 715 310 715 310 702.997C310 700.789 311.567 699 313.5 699Z" fill="#00AEEF" fill-rule="evenodd"/><path d="M300.891 724.183C299.722 721.08 301.289 717.617 304.392 716.447L309.656 714.463C312.759 713.294 316.222 714.861 317.391 717.963L317.391 717.963C318.561 721.066 316.994 724.529 313.891 725.699L308.627 727.683C305.524 728.852 302.061 727.285 300.891 724.183Z" fill="#003C71" fill-rule="evenodd"/><path d="M300.694 724.3C299.633 721.262 300.372 718.242 302.343 717.554 304.315 716.866 306.772 718.77 307.832 721.808 308.893 724.846 308.154 727.866 306.183 728.554 304.212 729.243 301.754 727.338 300.694 724.3Z" fill="#00AEEF" fill-rule="evenodd"/><path d="M300.881 722.235C300.47 720.044 301.342 718.042 302.829 717.763 304.315 717.484 305.854 719.034 306.265 721.224 306.676 723.415 305.804 725.417 304.317 725.696 302.831 725.975 301.292 724.425 300.881 722.235Z" fill="#003C71" fill-rule="evenodd"/><path d="M311.827 719.829C310.93 717.447 312.133 714.788 314.515 713.891L315.521 713.511C317.903 712.613 320.562 713.816 321.459 716.198L321.459 716.198C322.357 718.58 321.154 721.239 318.772 722.136L317.766 722.516C315.384 723.414 312.725 722.211 311.827 719.829Z" fill="#003C71" fill-rule="evenodd"/><path d="M313.573 718.679C313.217 717.733 313.694 716.678 314.64 716.322L320.848 713.982C321.794 713.625 322.849 714.103 323.205 715.048L323.205 715.048C323.562 715.994 323.084 717.049 322.139 717.405L315.93 719.745C314.985 720.102 313.93 719.624 313.573 718.679Z" fill="#003C71" fill-rule="evenodd"/><path d="M0 0.220787C-4.09533e-17 0.0988499 0.0988495 0 0.220787 0L10.0728 0C10.1947 -4.09534e-17 10.2935 0.0988499 10.2935 0.220787L10.2935 0.220787C10.2935 0.342725 10.1947 0.441575 10.0728 0.441575L0.220787 0.441575C0.0988495 0.441575 0 0.342725 0 0.220787Z" fill="#003C71" fill-rule="evenodd" transform="matrix(-0.955351 0.295473 0.295473 0.955351 324.361 714.32)"/><path d="M307.744 709.195 310.976 708.919C312.211 708.814 313.297 709.729 313.403 710.965L313.997 717.933 306.293 718.589 305.698 711.622C305.593 710.386 306.509 709.3 307.744 709.195Z" fill="#003C71" fill-rule="evenodd"/><path d="M312.5 704C313.881 704 315 705.23 315 706.748L315 715 314.513 715C314.513 712.265 314.513 709.53 314.513 706.795 314.513 705.573 313.612 704.582 312.5 704.582 311.388 704.582 310.487 705.573 310.487 706.795L310.487 715 310 715 310 706.748C310 705.23 311.119 704 312.5 704Z" fill="#003C71" fill-rule="evenodd"/><path d="M286 699.975C286 698.884 286.884 698 287.975 698L290.025 698C291.116 698 292 698.884 292 699.975L292 717.025C292 718.116 291.116 719 290.025 719L287.975 719C286.884 719 286 718.116 286 717.025Z" fill="#003C71" fill-rule="evenodd"/><path d="M286.876 689.233C286.773 688.632 287.177 688.061 287.778 687.958L287.778 687.958C288.378 687.855 288.949 688.259 289.052 688.859L289.812 693.286C289.915 693.887 289.511 694.458 288.911 694.561L288.911 694.561C288.31 694.664 287.739 694.261 287.636 693.66Z" fill="#003C71" fill-rule="evenodd"/><path d="M287.909 691.234C287.854 690.914 288.069 690.61 288.389 690.555L288.389 690.555C288.709 690.501 289.013 690.715 289.068 691.035L290.307 698.262C290.362 698.582 290.148 698.885 289.828 698.94L289.828 698.94C289.508 698.995 289.204 698.78 289.149 698.46Z" fill="#003C71" fill-rule="evenodd"/><path d="M290 701.772C294.044 693.639 297.766 697.083 295.101 703.322 292.435 709.561 297.49 714.092 294.825 714.767 292.16 715.443 292.527 714.449 291.379 714.29L290 701.772Z" stroke="#003C71" stroke-width="1.66667" stroke-linejoin="round" stroke-miterlimit="10" fill="none" fill-rule="evenodd"/><rect x="295" y="704" width="16" height="1" fill="#003C71"/><rect x="295" y="707" width="16" height="1" fill="#003C71"/><rect x="286" y="703" width="6" height="10" fill="#00AEEF"/><rect x="113" y="722" width="14" height="46" fill="#003C71"/><path d="M113 722 115.761 715 124.239 715 127 722Z" fill="#003C71" fill-rule="evenodd"/><rect x="116" y="629" width="8" height="86" fill="#003C71"/><path d="M79.2191 626.816 117.563 618 211.89 623.027C211.927 624.454 211.963 625.88 212 627.306L79 630 79.2191 626.816Z" fill="#003C71" fill-rule="evenodd"/><path d="M118.917 597 117 600.238C117.083 606.27 117.167 612.303 117.25 618.336L122 619 121.417 599.823 118.917 597Z" fill="#003C71" fill-rule="evenodd"/><rect x="84" y="625" width="4" height="14" fill="#003C71"/><rect x="81" y="626" width="2" height="13" fill="#003C71"/><path d="M79 627 116.777 600.111 121.28 600 211 623.778 202.874 623 120.511 602 117.546 602 81.1963 626.778 79 627Z" fill="#003C71" fill-rule="evenodd"/><rect x="110" y="768" width="20" height="4" fill="#003C71"/><rect x="105" y="772" width="30" height="6" fill="#003C71"/><rect x="105" y="770" width="30" height="1" fill="#003C71"/><rect x="106" y="771" width="1" height="3" fill="#003C71"/><rect x="109" y="771" width="1" height="3" fill="#003C71"/><rect x="130" y="771" width="1" height="3" fill="#003C71"/><rect x="133" y="771" width="1" height="3" fill="#003C71"/><rect x="0" y="0" width="1" height="117" fill="#003C71" transform="matrix(-1 -8.74228e-08 -8.74228e-08 1 133 640)"/><rect x="0" y="0" width="1" height="117" fill="#003C71" transform="matrix(-1 -8.74228e-08 -8.74228e-08 1 130 640)"/><rect x="129" y="756" width="3" height="6" fill="#003C71"/><path d="M130.994 762.791 131.4 762 129.6 762 130.055 763.026 130.752 763.543C130.987 763.716 130.987 763.998 130.752 764.172 130.518 764.345 130.138 764.345 129.904 764.172L129.07 763.553C129.024 763.659 129 763.772 129 763.888 129 764.502 129.671 765 130.5 765 131.329 765 132 764.502 132 763.888 132 763.735 131.986 763.589 131.883 763.457 131.826 763.362 130.994 762.791 130.994 762.791Z" fill="#00AEEF" fill-rule="evenodd"/><rect x="115" y="620" width="2" height="9" fill="#00AEEF"/><rect x="122" y="619" width="1" height="10" fill="#00AEEF"/><rect x="109" y="621" width="1" height="8" fill="#00AEEF"/><rect x="102" y="623" width="2" height="6" fill="#00AEEF"/><rect x="95" y="624" width="2" height="5" fill="#00AEEF"/><rect x="129" y="620" width="1" height="9" fill="#00AEEF"/><rect x="136" y="621" width="1" height="7" fill="#00AEEF"/><rect x="142" y="621" width="2" height="7" fill="#00AEEF"/><rect x="149" y="621" width="2" height="7" fill="#00AEEF"/><rect x="155" y="621" width="2" height="7" fill="#00AEEF"/><rect x="162" y="621" width="2" height="7" fill="#00AEEF"/><rect x="169" y="621" width="1" height="7" fill="#00AEEF"/><rect x="175" y="622" width="2" height="6" fill="#00AEEF"/><rect x="182" y="622" width="1" height="6" fill="#00AEEF"/><rect x="188" y="622" width="2" height="6" fill="#00AEEF"/><rect x="195" y="623" width="1" height="4" fill="#00AEEF"/><rect x="201" y="623" width="2" height="5" fill="#00AEEF"/><rect x="89" y="625" width="1" height="4" fill="#00AEEF"/><rect x="116" y="637" width="8" height="2" fill="#00AEEF"/><rect x="116" y="647" width="8" height="1" fill="#00AEEF"/><rect x="116" y="657" width="8" height="1" fill="#00AEEF"/><rect x="116" y="675" width="8" height="2" fill="#00AEEF"/><rect x="116" y="685" width="8" height="2" fill="#00AEEF"/><rect x="116" y="695" width="8" height="1" fill="#00AEEF"/><rect x="116" y="704" width="8" height="1" fill="#00AEEF"/><rect x="116" y="713" width="8" height="2" fill="#00AEEF"/><rect x="113" y="722" width="14" height="2" fill="#00AEEF"/><rect x="113" y="727" width="14" height="2" fill="#00AEEF"/><rect x="113" y="737" width="14" height="2" fill="#00AEEF"/><rect x="113" y="747" width="14" height="2" fill="#00AEEF"/><rect x="113" y="756" width="14" height="2" fill="#00AEEF"/><path d="M114.051 737.583 126.437 747.513 125.842 748.256 113.455 738.326Z" fill="#00AEEF" fill-rule="evenodd"/><rect x="0" y="0" width="15.8753" height="0.952546" fill="#00AEEF" transform="matrix(0.780213 -0.625514 -0.625514 -0.780213 114.051 748.256)"/><path d="M114.051 727.743 126.438 737.673 125.842 738.417 113.456 728.486Z" fill="#00AEEF" fill-rule="evenodd"/><rect x="0" y="0" width="15.8753" height="0.952546" fill="#00AEEF" transform="matrix(0.780213 -0.625514 -0.625514 -0.780213 114.051 738.417)"/><rect x="0" y="0" width="9.0463" height="0.952546" fill="#00AEEF" transform="matrix(0.780213 0.625514 0.625514 -0.780213 115.853 723.279)"/><path d="M123.557 722.866 116.499 728.524 115.904 727.781 122.962 722.123Z" fill="#00AEEF" fill-rule="evenodd"/><rect x="0" y="0" width="12.3718" height="0.952546" fill="#00AEEF" transform="matrix(0.747476 0.664288 0.664288 -0.747476 116.559 714.8)"/><path d="M113.493 722.306 122.741 714.088 123.374 714.8 114.126 723.018Z" fill="#00AEEF" fill-rule="evenodd"/><path d="M117.015 713.306 121.284 704.791 122.135 705.218 117.867 713.733Z" fill="#00AEEF" fill-rule="evenodd"/><rect x="0" y="0" width="9.52514" height="0.952546" fill="#00AEEF" transform="matrix(-0.44811 -0.893978 -0.893978 0.44811 122.796 713.306)"/><path d="M117.015 704.128 121.284 695.613 122.135 696.04 117.867 704.555Z" fill="#00AEEF" fill-rule="evenodd"/><rect x="0" y="0" width="9.52514" height="0.952546" fill="#00AEEF" transform="matrix(-0.44811 -0.893978 -0.893978 0.44811 122.796 704.128)"/><path d="M117.015 694.785 121.284 686.27 122.135 686.696 117.867 695.212Z" fill="#00AEEF" fill-rule="evenodd"/><rect x="0" y="0" width="9.52514" height="0.952546" fill="#00AEEF" transform="matrix(-0.44811 -0.893978 -0.893978 0.44811 122.796 694.785)"/><path d="M117.015 685.111 121.284 676.596 122.135 677.022 117.867 685.538Z" fill="#00AEEF" fill-rule="evenodd"/><rect x="0" y="0" width="9.52514" height="0.952546" fill="#00AEEF" transform="matrix(-0.44811 -0.893978 -0.893978 0.44811 122.796 685.111)"/><path d="M117.015 675.685 121.284 667.17 122.135 667.596 117.867 676.112Z" fill="#00AEEF" fill-rule="evenodd"/><rect x="0" y="0" width="9.52514" height="0.952546" fill="#00AEEF" transform="matrix(-0.44811 -0.893978 -0.893978 0.44811 122.796 675.685)"/><rect x="116" y="666" width="8" height="2" fill="#00AEEF"/><path d="M117.015 666.259 121.284 657.744 122.135 658.17 117.867 666.686Z" fill="#00AEEF" fill-rule="evenodd"/><rect x="0" y="0" width="9.52514" height="0.952546" fill="#00AEEF" transform="matrix(-0.44811 -0.893978 -0.893978 0.44811 122.796 666.259)"/><path d="M117.015 656.502 121.284 647.987 122.135 648.414 117.867 656.929Z" fill="#00AEEF" fill-rule="evenodd"/><rect x="0" y="0" width="9.52514" height="0.952546" fill="#00AEEF" transform="matrix(-0.44811 -0.893978 -0.893978 0.44811 122.796 656.502)"/><path d="M117.015 646.828 121.284 638.313 122.135 638.74 117.867 647.255Z" fill="#00AEEF" fill-rule="evenodd"/><rect x="0" y="0" width="9.52514" height="0.952546" fill="#00AEEF" transform="matrix(-0.44811 -0.893978 -0.893978 0.44811 122.796 646.828)"/><path d="M117.015 637.485 121.284 628.97 122.135 629.397 117.867 637.912Z" fill="#00AEEF" fill-rule="evenodd"/><rect x="0" y="0" width="9.52514" height="0.952546" fill="#00AEEF" transform="matrix(-0.44811 -0.893978 -0.893978 0.44811 122.796 637.485)"/><rect x="116" y="629" width="8" height="2" fill="#00AEEF"/><rect x="0" y="0" width="7.77669" height="0.952546" fill="#00AEEF" transform="matrix(-0.761968 -0.647615 -0.647615 0.761968 109.488 627.727)"/><path d="M109.488 623.072 103.562 628.109 102.945 627.383 108.871 622.346Z" fill="#00AEEF" fill-rule="evenodd"/><rect x="0" y="0" width="7.77669" height="0.952546" fill="#00AEEF" transform="matrix(-0.761968 -0.647615 -0.647615 0.761968 116.088 627.046)"/><path d="M116.088 622.391 110.162 627.428 109.545 626.702 115.471 621.666Z" fill="#00AEEF" fill-rule="evenodd"/><rect x="0" y="0" width="7.77669" height="0.952546" fill="#00AEEF" transform="matrix(-0.761968 -0.647615 -0.647615 0.761968 122.773 626.376)"/><path d="M122.773 621.721 116.848 626.758 116.231 626.032 122.156 620.995Z" fill="#00AEEF" fill-rule="evenodd"/><rect x="0" y="0" width="7.77669" height="0.952546" fill="#00AEEF" transform="matrix(-0.761968 -0.647615 -0.647615 0.761968 129.305 626.376)"/><path d="M129.305 621.721 123.38 626.758 122.763 626.032 128.688 620.995Z" fill="#00AEEF" fill-rule="evenodd"/><rect x="0" y="0" width="7.77669" height="0.952546" fill="#00AEEF" transform="matrix(-0.761968 -0.647615 -0.647615 0.761968 136.168 626.376)"/><path d="M136.168 621.721 130.242 626.758 129.626 626.032 135.551 620.995Z" fill="#00AEEF" fill-rule="evenodd"/><rect x="0" y="0" width="7.77669" height="0.952546" fill="#00AEEF" transform="matrix(-0.761968 -0.647615 -0.647615 0.761968 143.196 626.376)"/><path d="M143.196 621.721 137.271 626.758 136.654 626.032 142.579 620.995Z" fill="#00AEEF" fill-rule="evenodd"/><rect x="0" y="0" width="7.77669" height="0.952546" fill="#00AEEF" transform="matrix(-0.761968 -0.647615 -0.647615 0.761968 149.811 626.376)"/><path d="M149.811 621.721 143.885 626.758 143.268 626.032 149.194 620.995Z" fill="#00AEEF" fill-rule="evenodd"/><rect x="0" y="0" width="7.77669" height="0.952546" fill="#00AEEF" transform="matrix(-0.761968 -0.647615 -0.647615 0.761968 156.343 626.376)"/><path d="M156.343 621.721 150.417 626.758 149.8 626.032 155.726 620.996Z" fill="#00AEEF" fill-rule="evenodd"/><rect x="0" y="0" width="7.77669" height="0.952546" fill="#00AEEF" transform="matrix(-0.761968 -0.647615 -0.647615 0.761968 162.771 626.721)"/><path d="M162.771 622.066 156.846 627.102 156.229 626.376 162.155 621.34Z" fill="#00AEEF" fill-rule="evenodd"/><rect x="0" y="0" width="7.77669" height="0.952546" fill="#00AEEF" transform="matrix(-0.761968 -0.647615 -0.647615 0.761968 169.534 626.954)"/><path d="M169.534 622.3 163.609 627.336 162.992 626.61 168.918 621.574Z" fill="#00AEEF" fill-rule="evenodd"/><rect x="0" y="0" width="7.77669" height="0.952546" fill="#00AEEF" transform="matrix(-0.792977 -0.609251 -0.609251 0.792977 176.138 626.745)"/><path d="M176.138 622.633 169.686 626.975 169.154 626.184 175.606 621.843Z" fill="#00AEEF" fill-rule="evenodd"/><rect x="0" y="0" width="7.77669" height="0.952546" fill="#00AEEF" transform="matrix(-0.792977 -0.609251 -0.609251 0.792977 182.696 627.071)"/><path d="M182.696 622.96 176.244 627.302 175.712 626.511 182.164 622.17Z" fill="#00AEEF" fill-rule="evenodd"/><rect x="0" y="0" width="7.77669" height="0.952546" fill="#00AEEF" transform="matrix(-0.825262 -0.56475 -0.56475 0.825262 189.497 626.883)"/><path d="M189.447 623.235 182.862 627.373 182.356 626.567 188.94 622.429Z" fill="#00AEEF" fill-rule="evenodd"/><path d="M195.567 623.545 189.768 627.447 189.236 626.657 195.036 622.755Z" fill="#00AEEF" fill-rule="evenodd"/><rect x="0" y="0" width="6.99024" height="0.952546" fill="#00AEEF" transform="matrix(-0.829651 -0.558282 -0.558282 0.829651 195.382 626.657)"/><path d="M202.099 623.545 196.3 627.447 195.768 626.657 201.567 622.755Z" fill="#00AEEF" fill-rule="evenodd"/><rect x="0" y="0" width="6.99024" height="0.952546" fill="#00AEEF" transform="matrix(-0.829651 -0.558282 -0.558282 0.829651 201.914 626.657)"/><path d="M207.434 624.101 202.584 627.365 202.052 626.574 206.902 623.311Z" fill="#00AEEF" fill-rule="evenodd"/><rect x="0" y="0" width="5.84567" height="0.952546" fill="#00AEEF" transform="matrix(-0.829651 -0.558282 -0.558282 0.829651 207.434 626.574)"/><path d="M96.4968 625.02 89.7779 628.503 89.3395 627.657 96.0584 624.174Z" fill="#00AEEF" fill-rule="evenodd"/><rect x="0" y="0" width="7.56798" height="0.952546" fill="#00AEEF" transform="matrix(-0.967265 -0.253768 -0.253768 0.967265 97.0323 627.353)"/><path d="M103.191 624.186 96.4724 627.669 96.034 626.824 102.753 623.341Z" fill="#00AEEF" fill-rule="evenodd"/><rect x="0" y="0" width="7.56798" height="0.952546" fill="#00AEEF" transform="matrix(-0.967265 -0.253768 -0.253768 0.967265 103.727 626.52)"/><path d="M120.897 614.527 118.292 617.777 117.797 617.38 120.402 614.13Z" fill="#00AEEF" fill-rule="evenodd"/><rect x="0" y="0" width="4.16525" height="0.635066" fill="#00AEEF" transform="matrix(-0.625407 -0.780298 -0.780298 0.625407 120.98 617.38)"/><path d="M120.897 610.724 118.292 613.974 117.797 613.577 120.402 610.327Z" fill="#00AEEF" fill-rule="evenodd"/><rect x="0" y="0" width="4.16525" height="0.635066" fill="#00AEEF" transform="matrix(-0.625407 -0.780298 -0.780298 0.625407 120.98 613.577)"/><path d="M120.897 606.92 118.292 610.17 117.797 609.773 120.402 606.523Z" fill="#00AEEF" fill-rule="evenodd"/><rect x="0" y="0" width="4.16525" height="0.635066" fill="#00AEEF" transform="matrix(-0.625407 -0.780298 -0.780298 0.625407 120.98 609.773)"/><path d="M120.897 603.117 118.292 606.367 117.797 605.97 120.402 602.72Z" fill="#00AEEF" fill-rule="evenodd"/><rect x="0" y="0" width="4.16525" height="0.635066" fill="#00AEEF" transform="matrix(-0.625407 -0.780298 -0.780298 0.625407 120.98 605.97)"/><rect x="0" y="0" width="5" height="1" fill="#00AEEF" transform="matrix(-1 -8.74228e-08 -8.74228e-08 1 122 614)"/><rect x="0" y="0" width="5" height="1" fill="#00AEEF" transform="matrix(-1 -8.74228e-08 -8.74228e-08 1 122 610)"/><rect x="0" y="0" width="5" height="1" fill="#00AEEF" transform="matrix(-1 -8.74228e-08 -8.74228e-08 1 122 606)"/><rect x="0" y="0" width="5" height="1" fill="#00AEEF" transform="matrix(-1 -8.74228e-08 -8.74228e-08 1 122 617)"/><rect x="0" y="0" width="6" height="19" fill="#00AEEF" transform="matrix(-1 -8.74228e-08 -8.74228e-08 1 123 749)"/><rect x="0" y="0" width="41" height="1" fill="#00AEEF" transform="matrix(-4.37114e-08 -1 -1 4.37114e-08 124 756)"/><rect x="0" y="0" width="41" height="1" fill="#00AEEF" transform="matrix(-4.37114e-08 -1 -1 4.37114e-08 117 756)"/><rect x="207" y="624" width="5" height="3" fill="#00AEEF"/><rect x="0" y="0" width="4" height="1" fill="#00AEEF" transform="matrix(-1 -8.74228e-08 -8.74228e-08 1 121 603)"/><rect x="95" y="620" width="8" height="7" fill="#003C71"/><rect x="127" y="625" width="6" height="15" fill="#003C71"/><rect x="0" y="0" width="14" height="2" fill="#00AEEF" transform="matrix(-1 -8.74228e-08 -8.74228e-08 1 127 762)"/><path d="M93 645C108 645 108 645 108 645 108 645 108 645 108 645 108 646.077 107.28 647 106.44 647 94.44 647 94.44 647 94.44 647 93.6 647 93 646.077 93 645 93 645 93 645 93 645Z" fill="#00AEEF" fill-rule="evenodd"/><path d="M100 650C100 649.448 100.224 649 100.5 649 100.776 649 101 649.448 101 650 101 650.552 100.776 651 100.5 651 100.224 651 100 650.552 100 650Z" fill="#1A3E6F" fill-rule="evenodd"/><path d="M93 643 108 643 108 645 93 645 93 643 93 643Z" fill="#003C71" fill-rule="evenodd"/><path d="M94 647C94.3679 650.429 97.066 653 100.5 653 103.934 653 106.755 650.429 107 647 94 647 94 647 94 647 94 647 94 647 94 647ZM100.5 652.02C99.2736 652.02 98.2924 651.041 98.2924 649.816 98.2924 648.592 99.2736 647.49 100.5 647.49 101.726 647.49 102.708 648.592 102.708 649.816 102.708 651.041 101.726 652.02 100.5 652.02Z" fill="#00AEEF" fill-rule="evenodd"/><path d="M101 631C104.383 631 107.205 634.771 107.858 639.783L108 642 94 642 94.1422 639.783C94.7949 634.771 97.6173 631 101 631Z" fill="#003C71" fill-rule="evenodd"/><rect x="99" y="629" width="3" height="5" fill="#003C71"/><rect x="0" y="0" width="14" height="46" fill="#003C71" transform="matrix(-1 -8.74228e-08 -8.74228e-08 1 499 722)"/><path d="M0 7 2.76108 0 10.2389 0 13 7Z" fill="#003C71" fill-rule="evenodd" transform="matrix(-1 -8.74228e-08 -8.74228e-08 1 498 715)"/><rect x="0" y="0" width="8" height="86" fill="#003C71" transform="matrix(-1 -8.74228e-08 -8.74228e-08 1 496 629)"/><path d="M0.220758 8.81633 38.8534 0 133.89 5.02747C133.926 6.4537 133.963 7.87989 134 9.30612L0 12 0.220758 8.81633Z" fill="#003C71" fill-rule="evenodd" transform="matrix(-1 -8.74228e-08 -8.74228e-08 1 533 618)"/><path d="M1.91668 0 0 3.23771C0.0833246 9.27044 0.166684 15.3031 0.250009 21.3358L5 22 4.41666 2.82263 1.91668 0Z" fill="#003C71" fill-rule="evenodd" transform="matrix(-1 -8.74228e-08 -8.74228e-08 1 495 597)"/><rect x="0" y="0" width="4" height="14" fill="#003C71" transform="matrix(-1 -8.74228e-08 -8.74228e-08 1 528 625)"/><rect x="0" y="0" width="3" height="13" fill="#003C71" transform="matrix(-1 -8.74228e-08 -8.74228e-08 1 531 626)"/><path d="M0 27 38.0632 0.111111 42.5998 0 133 23.7778 124.812 23 41.8253 2 38.8378 2 2.21298 26.7778 0 27Z" fill="#003C71" fill-rule="evenodd" transform="matrix(-1 -8.74228e-08 -8.74228e-08 1 533 600)"/><rect x="0" y="0" width="20" height="4" fill="#003C71" transform="matrix(-1 -8.74228e-08 -8.74228e-08 1 502 768)"/><rect x="0" y="0" width="30" height="6" fill="#003C71" transform="matrix(-1 -8.74228e-08 -8.74228e-08 1 507 772)"/><rect x="0" y="0" width="30" height="1" fill="#003C71" transform="matrix(-1 -8.74228e-08 -8.74228e-08 1 507 770)"/><rect x="0" y="0" width="1" height="3" fill="#003C71" transform="matrix(-1 -8.74228e-08 -8.74228e-08 1 506 771)"/><rect x="0" y="0" width="1" height="3" fill="#003C71" transform="matrix(-1 -8.74228e-08 -8.74228e-08 1 503 771)"/><rect x="0" y="0" width="1" height="3" fill="#003C71" transform="matrix(-1 -8.74228e-08 -8.74228e-08 1 481 771)"/><rect x="0" y="0" width="1" height="3" fill="#003C71" transform="matrix(-1 -8.74228e-08 -8.74228e-08 1 479 771)"/><rect x="479" y="640" width="1" height="117" fill="#003C71"/><rect x="482" y="640" width="1" height="117" fill="#003C71"/><rect x="0" y="0" width="3" height="6" fill="#003C71" transform="matrix(-1 -8.74228e-08 -8.74228e-08 1 483 756)"/><path d="M1.99369 0.791198 2.40016 0 0.600117 0 1.05537 1.02637 1.7523 1.54268C1.98658 1.71651 1.98658 1.99807 1.7523 2.17185 1.51805 2.34486 1.13814 2.34486 0.903653 2.17185L0.0695131 1.5533C0.0244154 1.65903 0 1.77153 0 1.88833 0 2.50214 0.671483 3 1.5 3 2.32854 3 3.00001 2.50214 3.00001 1.88833 3.00001 1.73535 2.98595 1.58909 2.88274 1.45735 2.82566 1.36178 1.99369 0.791198 1.99369 0.791198Z" fill="#00AEEF" fill-rule="evenodd" transform="matrix(-1 -8.74228e-08 -8.74228e-08 1 483 762)"/><rect x="0" y="0" width="1" height="9" fill="#00AEEF" transform="matrix(-1 -8.74228e-08 -8.74228e-08 1 496 620)"/><rect x="0" y="0" width="2" height="10" fill="#00AEEF" transform="matrix(-1 -8.74228e-08 -8.74228e-08 1 490 619)"/><rect x="0" y="0" width="2" height="8" fill="#00AEEF" transform="matrix(-1 -8.74228e-08 -8.74228e-08 1 503 621)"/><rect x="0" y="0" width="2" height="6" fill="#00AEEF" transform="matrix(-1 -8.74228e-08 -8.74228e-08 1 510 623)"/><rect x="0" y="0" width="1" height="5" fill="#00AEEF" transform="matrix(-1 -8.74228e-08 -8.74228e-08 1 516 624)"/><rect x="0" y="0" width="2" height="9" fill="#00AEEF" transform="matrix(-1 -8.74228e-08 -8.74228e-08 1 483 620)"/><rect x="0" y="0" width="2" height="7" fill="#00AEEF" transform="matrix(-1 -8.74228e-08 -8.74228e-08 1 476 621)"/><rect x="0" y="0" width="1" height="7" fill="#00AEEF" transform="matrix(-1 -8.74228e-08 -8.74228e-08 1 469 621)"/><rect x="0" y="0" width="2" height="7" fill="#00AEEF" transform="matrix(-1 -8.74228e-08 -8.74228e-08 1 463 621)"/><rect x="0" y="0" width="1" height="7" fill="#00AEEF" transform="matrix(-1 -8.74228e-08 -8.74228e-08 1 456 621)"/><rect x="0" y="0" width="2" height="7" fill="#00AEEF" transform="matrix(-1 -8.74228e-08 -8.74228e-08 1 450 621)"/><rect x="0" y="0" width="1" height="7" fill="#00AEEF" transform="matrix(-1 -8.74228e-08 -8.74228e-08 1 443 621)"/><rect x="0" y="0" width="2" height="6" fill="#00AEEF" transform="matrix(-1 -8.74228e-08 -8.74228e-08 1 437 622)"/><rect x="0" y="0" width="2" height="6" fill="#00AEEF" transform="matrix(-1 -8.74228e-08 -8.74228e-08 1 430 622)"/><rect x="0" y="0" width="1" height="6" fill="#00AEEF" transform="matrix(-1 -8.74228e-08 -8.74228e-08 1 423 622)"/><rect x="0" y="0" width="2" height="4" fill="#00AEEF" transform="matrix(-1 -8.74228e-08 -8.74228e-08 1 417 623)"/><rect x="0" y="0" width="2" height="5" fill="#00AEEF" transform="matrix(-1 -8.74228e-08 -8.74228e-08 1 411 623)"/><rect x="0" y="0" width="2" height="4" fill="#00AEEF" transform="matrix(-1 -8.74228e-08 -8.74228e-08 1 523 625)"/><rect x="0" y="0" width="8" height="2" fill="#00AEEF" transform="matrix(-1 -8.74228e-08 -8.74228e-08 1 496 637)"/><rect x="0" y="0" width="8" height="1" fill="#00AEEF" transform="matrix(-1 -8.74228e-08 -8.74228e-08 1 496 647)"/><rect x="0" y="0" width="8" height="1" fill="#00AEEF" transform="matrix(-1 -8.74228e-08 -8.74228e-08 1 496 657)"/><rect x="0" y="0" width="8" height="2" fill="#00AEEF" transform="matrix(-1 -8.74228e-08 -8.74228e-08 1 496 675)"/><rect x="0" y="0" width="8" height="2" fill="#00AEEF" transform="matrix(-1 -8.74228e-08 -8.74228e-08 1 496 685)"/><rect x="0" y="0" width="8" height="1" fill="#00AEEF" transform="matrix(-1 -8.74228e-08 -8.74228e-08 1 496 695)"/><rect x="0" y="0" width="8" height="1" fill="#00AEEF" transform="matrix(-1 -8.74228e-08 -8.74228e-08 1 496 704)"/><rect x="0" y="0" width="8" height="2" fill="#00AEEF" transform="matrix(-1 -8.74228e-08 -8.74228e-08 1 496 713)"/><rect x="0" y="0" width="13" height="2" fill="#00AEEF" transform="matrix(-1 -8.74228e-08 -8.74228e-08 1 498 722)"/><rect x="0" y="0" width="13" height="2" fill="#00AEEF" transform="matrix(-1 -8.74228e-08 -8.74228e-08 1 498 727)"/><rect x="0" y="0" width="13" height="2" fill="#00AEEF" transform="matrix(-1 -8.74228e-08 -8.74228e-08 1 498 737)"/><rect x="0" y="0" width="13" height="2" fill="#00AEEF" transform="matrix(-1 -8.74228e-08 -8.74228e-08 1 498 747)"/><rect x="0" y="0" width="13" height="2" fill="#00AEEF" transform="matrix(-1 -8.74228e-08 -8.74228e-08 1 498 756)"/><rect x="0" y="0" width="15.8753" height="0.952546" fill="#00AEEF" transform="matrix(-0.780213 0.625514 0.625514 0.780213 497.627 737.583)"/><path d="M497.627 748.256 485.241 738.326 485.837 737.583 498.223 747.513Z" fill="#00AEEF" fill-rule="evenodd"/><rect x="0" y="0" width="15.8753" height="0.952546" fill="#00AEEF" transform="matrix(-0.780213 0.625514 0.625514 0.780213 497.627 727.743)"/><path d="M497.627 738.417 485.241 728.486 485.837 727.743 498.223 737.673Z" fill="#00AEEF" fill-rule="evenodd"/><path d="M495.826 723.279 488.768 728.938 488.172 728.195 495.23 722.536Z" fill="#00AEEF" fill-rule="evenodd"/><rect x="0" y="0" width="9.0463" height="0.952546" fill="#00AEEF" transform="matrix(0.780213 0.625514 0.625514 -0.780213 488.121 722.866)"/><path d="M495.119 714.8 485.872 723.018 485.239 722.306 494.486 714.088Z" fill="#00AEEF" fill-rule="evenodd"/><rect x="0" y="0" width="12.3718" height="0.952546" fill="#00AEEF" transform="matrix(-0.747477 -0.664288 -0.664288 0.747477 498.185 722.306)"/><rect x="0" y="0" width="9.52514" height="0.952546" fill="#00AEEF" transform="matrix(-0.44811 -0.893978 -0.893978 0.44811 494.663 713.306)"/><path d="M488.882 713.306 493.15 704.791 494.002 705.218 489.734 713.733Z" fill="#00AEEF" fill-rule="evenodd"/><rect x="0" y="0" width="9.52514" height="0.952546" fill="#00AEEF" transform="matrix(-0.44811 -0.893978 -0.893978 0.44811 494.663 704.128)"/><path d="M488.882 704.128 493.15 695.613 494.002 696.04 489.734 704.555Z" fill="#00AEEF" fill-rule="evenodd"/><rect x="0" y="0" width="9.52514" height="0.952546" fill="#00AEEF" transform="matrix(-0.44811 -0.893978 -0.893978 0.44811 494.663 694.785)"/><path d="M488.882 694.785 493.15 686.27 494.002 686.696 489.734 695.212Z" fill="#00AEEF" fill-rule="evenodd"/><rect x="0" y="0" width="9.52514" height="0.952546" fill="#00AEEF" transform="matrix(-0.44811 -0.893978 -0.893978 0.44811 494.663 685.111)"/><path d="M488.882 685.111 493.15 676.596 494.002 677.022 489.734 685.538Z" fill="#00AEEF" fill-rule="evenodd"/><rect x="0" y="0" width="9.52514" height="0.952546" fill="#00AEEF" transform="matrix(-0.44811 -0.893978 -0.893978 0.44811 494.663 675.685)"/><path d="M488.882 675.685 493.15 667.17 494.002 667.596 489.734 676.112Z" fill="#00AEEF" fill-rule="evenodd"/><rect x="0" y="0" width="8" height="2" fill="#00AEEF" transform="matrix(-1 -8.74228e-08 -8.74228e-08 1 496 666)"/><rect x="0" y="0" width="9.52514" height="0.952546" fill="#00AEEF" transform="matrix(-0.44811 -0.893978 -0.893978 0.44811 494.663 666.259)"/><path d="M488.882 666.259 493.15 657.744 494.002 658.17 489.734 666.686Z" fill="#00AEEF" fill-rule="evenodd"/><rect x="0" y="0" width="9.52514" height="0.952546" fill="#00AEEF" transform="matrix(-0.44811 -0.893978 -0.893978 0.44811 494.663 656.502)"/><path d="M488.882 656.502 493.15 647.987 494.002 648.414 489.734 656.929Z" fill="#00AEEF" fill-rule="evenodd"/><rect x="0" y="0" width="9.52514" height="0.952546" fill="#00AEEF" transform="matrix(-0.44811 -0.893978 -0.893978 0.44811 494.663 646.828)"/><path d="M488.882 646.828 493.15 638.313 494.002 638.74 489.734 647.255Z" fill="#00AEEF" fill-rule="evenodd"/><rect x="0" y="0" width="9.52514" height="0.952546" fill="#00AEEF" transform="matrix(-0.44811 -0.893978 -0.893978 0.44811 494.663 637.485)"/><path d="M488.882 637.485 493.15 628.97 494.002 629.397 489.734 637.912Z" fill="#00AEEF" fill-rule="evenodd"/><rect x="0" y="0" width="8" height="2" fill="#00AEEF" transform="matrix(-1 -8.74228e-08 -8.74228e-08 1 496 629)"/><path d="M502.191 627.727 508.116 622.691 508.733 623.417 502.808 628.453Z" fill="#00AEEF" fill-rule="evenodd"/><rect x="0" y="0" width="7.77669" height="0.952546" fill="#00AEEF" transform="matrix(0.761968 0.647615 0.647615 -0.761968 502.191 623.072)"/><path d="M495.591 627.046 501.516 622.01 502.133 622.736 496.208 627.772Z" fill="#00AEEF" fill-rule="evenodd"/><rect x="0" y="0" width="7.77669" height="0.952546" fill="#00AEEF" transform="matrix(0.761968 0.647615 0.647615 -0.761968 495.591 622.391)"/><path d="M488.905 626.376 494.831 621.34 495.448 622.066 489.522 627.102Z" fill="#00AEEF" fill-rule="evenodd"/><rect x="0" y="0" width="7.77669" height="0.952546" fill="#00AEEF" transform="matrix(0.761968 0.647615 0.647615 -0.761968 488.905 621.721)"/><path d="M482.373 626.376 488.299 621.34 488.916 622.066 482.99 627.102Z" fill="#00AEEF" fill-rule="evenodd"/><rect x="0" y="0" width="7.77669" height="0.952546" fill="#00AEEF" transform="matrix(0.761968 0.647615 0.647615 -0.761968 482.373 621.721)"/><path d="M475.51 626.376 481.436 621.34 482.053 622.066 476.127 627.102Z" fill="#00AEEF" fill-rule="evenodd"/><rect x="0" y="0" width="7.77669" height="0.952546" fill="#00AEEF" transform="matrix(0.761968 0.647615 0.647615 -0.761968 475.51 621.721)"/><path d="M468.482 626.376 474.408 621.34 475.025 622.066 469.099 627.102Z" fill="#00AEEF" fill-rule="evenodd"/><rect x="0" y="0" width="7.77669" height="0.952546" fill="#00AEEF" transform="matrix(0.761968 0.647615 0.647615 -0.761968 468.482 621.721)"/><path d="M461.868 626.376 467.793 621.34 468.41 622.066 462.484 627.102Z" fill="#00AEEF" fill-rule="evenodd"/><rect x="0" y="0" width="7.77669" height="0.952546" fill="#00AEEF" transform="matrix(0.761968 0.647615 0.647615 -0.761968 461.868 621.721)"/><path d="M455.336 626.376 461.261 621.34 461.878 622.066 455.953 627.102Z" fill="#00AEEF" fill-rule="evenodd"/><rect x="0" y="0" width="7.77669" height="0.952546" fill="#00AEEF" transform="matrix(0.761968 0.647615 0.647615 -0.761968 455.336 621.721)"/><path d="M448.907 626.721 454.832 621.684 455.449 622.41 449.524 627.446Z" fill="#00AEEF" fill-rule="evenodd"/><rect x="0" y="0" width="7.77669" height="0.952546" fill="#00AEEF" transform="matrix(0.761968 0.647615 0.647615 -0.761968 448.907 622.066)"/><path d="M442.144 626.954 448.07 621.918 448.686 622.644 442.761 627.68Z" fill="#00AEEF" fill-rule="evenodd"/><rect x="0" y="0" width="7.77669" height="0.952546" fill="#00AEEF" transform="matrix(0.761968 0.647615 0.647615 -0.761968 442.144 622.3)"/><path d="M435.541 626.745 441.708 622.007 442.288 622.762 436.121 627.5Z" fill="#00AEEF" fill-rule="evenodd"/><rect x="0" y="0" width="7.77669" height="0.952546" fill="#00AEEF" transform="matrix(0.829651 0.558282 0.558282 -0.829651 435.541 622.633)"/><path d="M428.983 627.071 435.149 622.333 435.73 623.089 429.563 627.827Z" fill="#00AEEF" fill-rule="evenodd"/><rect x="0" y="0" width="7.77669" height="0.952546" fill="#00AEEF" transform="matrix(0.829651 0.558282 0.558282 -0.829651 428.983 622.96)"/><path d="M422.181 626.883 428.599 622.491 429.137 623.277 422.719 627.669Z" fill="#00AEEF" fill-rule="evenodd"/><rect x="0" y="0" width="7.77669" height="0.952546" fill="#00AEEF" transform="matrix(0.846694 0.53208 0.53208 -0.846694 422.232 623.235)"/><rect x="0" y="0" width="6.99024" height="0.952546" fill="#00AEEF" transform="matrix(0.829651 0.558282 0.558282 -0.829651 416.111 623.545)"/><path d="M416.296 626.657 422.096 622.755 422.627 623.545 416.828 627.447Z" fill="#00AEEF" fill-rule="evenodd"/><rect x="0" y="0" width="6.99024" height="0.952546" fill="#00AEEF" transform="matrix(0.829651 0.558282 0.558282 -0.829651 409.579 623.545)"/><path d="M409.764 626.657 415.564 622.755 416.095 623.545 410.296 627.447Z" fill="#00AEEF" fill-rule="evenodd"/><rect x="0" y="0" width="5.84567" height="0.952546" fill="#00AEEF" transform="matrix(0.829651 0.558282 0.558282 -0.829651 404.245 624.101)"/><path d="M404.245 626.574 409.095 623.311 409.626 624.101 404.777 627.365Z" fill="#00AEEF" fill-rule="evenodd"/><rect x="0" y="0" width="7.56798" height="0.952546" fill="#00AEEF" transform="matrix(0.887808 0.460214 0.460214 -0.887808 515.182 625.02)"/><path d="M514.646 627.353 521.966 625.433 522.208 626.354 514.888 628.275Z" fill="#00AEEF" fill-rule="evenodd"/><rect x="0" y="0" width="7.56798" height="0.952546" fill="#00AEEF" transform="matrix(0.887808 0.460214 0.460214 -0.887808 508.487 624.186)"/><path d="M507.952 626.52 515.272 624.599 515.514 625.52 508.193 627.441Z" fill="#00AEEF" fill-rule="evenodd"/><rect x="0" y="0" width="4.16525" height="0.635066" fill="#00AEEF" transform="matrix(0.625407 0.780298 0.780298 -0.625407 490.781 614.527)"/><path d="M490.698 617.38 493.303 614.13 493.799 614.527 491.194 617.777Z" fill="#00AEEF" fill-rule="evenodd"/><rect x="0" y="0" width="4.16525" height="0.635066" fill="#00AEEF" transform="matrix(0.625407 0.780298 0.780298 -0.625407 490.781 610.724)"/><path d="M490.698 613.577 493.303 610.327 493.799 610.724 491.194 613.974Z" fill="#00AEEF" fill-rule="evenodd"/><rect x="0" y="0" width="4.16525" height="0.635066" fill="#00AEEF" transform="matrix(0.625407 0.780298 0.780298 -0.625407 490.781 606.92)"/><path d="M490.698 609.773 493.303 606.523 493.799 606.92 491.194 610.17Z" fill="#00AEEF" fill-rule="evenodd"/><rect x="0" y="0" width="4.16525" height="0.635066" fill="#00AEEF" transform="matrix(0.625407 0.780298 0.780298 -0.625407 490.781 603.117)"/><path d="M490.698 605.97 493.303 602.72 493.799 603.117 491.194 606.367Z" fill="#00AEEF" fill-rule="evenodd"/><rect x="490" y="614" width="5" height="1" fill="#00AEEF"/><rect x="490" y="610" width="5" height="1" fill="#00AEEF"/><rect x="490" y="606" width="5" height="1" fill="#00AEEF"/><rect x="490" y="617" width="5" height="1" fill="#00AEEF"/><rect x="488" y="749" width="7" height="19" fill="#00AEEF"/><rect x="488" y="715" width="1" height="41" fill="#00AEEF"/><rect x="495" y="715" width="1" height="41" fill="#00AEEF"/><rect x="0" y="0" width="5" height="3" fill="#00AEEF" transform="matrix(-1 -8.74228e-08 -8.74228e-08 1 405 624)"/><rect x="490" y="603" width="5" height="1" fill="#00AEEF"/><rect x="0" y="0" width="8" height="7" fill="#003C71" transform="matrix(-1 -8.74228e-08 -8.74228e-08 1 517 620)"/><rect x="0" y="0" width="6" height="15" fill="#003C71" transform="matrix(-1 -8.74228e-08 -8.74228e-08 1 485 625)"/><rect x="485" y="762" width="13" height="2" fill="#00AEEF"/><path d="M0 0C14 0 14 0 14 0 14 0 14 0 14 0 14 1.07692 13.328 2 12.544 2 1.344 2 1.344 2 1.344 2 0.56 2 0 1.07692 0 0 0 0 0 0 0 0Z" fill="#00AEEF" fill-rule="evenodd" transform="matrix(-1 -8.74228e-08 -8.74228e-08 1 518 645)"/><path d="M0 1C-2.54627e-16 0.447715 0.447715 0 1 0 1.55228 -2.54627e-16 2 0.447715 2 1 2 1.55228 1.55228 2 1 2 0.447715 2 -3.8194e-16 1.55228 0 1Z" fill="#1A3E6F" fill-rule="evenodd" transform="matrix(-1 -8.74228e-08 -8.74228e-08 1 512 649)"/><path d="M0 0 14 0 14 2 0 2 0 0 0 0Z" fill="#003C71" fill-rule="evenodd" transform="matrix(-1 -8.74228e-08 -8.74228e-08 1 518 643)"/><path d="M0 0C0.339623 3.42857 2.83019 6 6 6 9.16981 6 11.7736 3.42857 12 0 0 0 0 0 0 0 0 0 0 0 0 0ZM6 5.02041C4.86792 5.02041 3.96226 4.04082 3.96226 2.81633 3.96226 1.59184 4.86792 0.489796 6 0.489796 7.13207 0.489796 8.03774 1.59184 8.03774 2.81633 8.03774 4.04082 7.13207 5.02041 6 5.02041Z" fill="#00AEEF" fill-rule="evenodd" transform="matrix(-1 -8.74228e-08 -8.74228e-08 1 517 647)"/><path d="M7 0C10.3827 0 13.2051 3.77062 13.8578 8.78315L14 11 0 11 0.142218 8.78315C0.794948 3.77062 3.61728 0 7 0Z" fill="#003C71" fill-rule="evenodd" transform="matrix(-1 -8.74228e-08 -8.74228e-08 1 518 631)"/><rect x="0" y="0" width="4" height="5" fill="#003C71" transform="matrix(-1 -8.74228e-08 -8.74228e-08 1 513 629)"/><path d="M148 678C148.032 709.378 148.065 740.756 148.097 772.133L155.165 777C155.133 747.767 155.1 718.534 155.068 689.301L162 686.215 148 678Z" fill="#003C71" fill-rule="evenodd"/><path d="M154.019 689 172 697.306C171.935 728.624 171.752 759.682 171.687 791L154.019 781.395C154.084 749.947 153.954 720.448 154.019 689Z" fill="#003C71" fill-rule="evenodd"/><path d="M172.377 697.333 178 694C177.908 725.321 177.817 756.642 177.725 787.963L172 791C172.051 759.484 172.326 728.849 172.377 697.333Z" fill="#00AEEF" fill-rule="evenodd"/><path d="M177.762 694 189 700.461 189 796 177 788.56 177.762 694Z" fill="#003C71" fill-rule="evenodd"/><path d="M193.281 697.604 188 694.86 201 688 200.594 782.864 193.688 786 193.281 697.604Z" fill="#003C71" fill-rule="evenodd"/><path d="M200.247 688 206 691.339 206 787 200 783.333C200.062 751.643 200 720.083 200.247 688Z" fill="#003C71" fill-rule="evenodd"/><path d="M216.054 684.424 211 681.427 224.434 674 230 677.518C229.851 708.911 229.318 740.304 229.168 771.697L224.051 768.602 216.374 773C216.203 743.768 216.224 713.656 216.054 684.424Z" fill="#003C71" fill-rule="evenodd"/><path d="M229.033 678.34 236 675 236 769.488 229 772C229.011 740.78 229.022 709.56 229.033 678.34Z" fill="#003C71" fill-rule="evenodd"/><path d="M148 677.498 153.845 675.148 161.224 679.011 172.261 671.929 166.253 669.096 177.747 663.301 183.951 666.199 196.033 659.052 190.416 655.575 194.857 653 236 674.633 230.384 677.981 224.898 674.633 211.086 682.037 216.473 684.966 206.22 690.986 200.735 688.025 188.457 694.721 193.355 697.843 189.11 700 177.616 694.206 171.869 697.038 154.302 688.604 161.355 685.256 148 677.498Z" fill="#00AEEF" fill-rule="evenodd"/><path d="M166.125 669C166.083 671.333 166.042 673.667 166 676L172 672.096 166.125 669Z" fill="#003C71" fill-rule="evenodd"/><path d="M190 655 190.316 662 196 658.652 190 655Z" fill="#003C71" fill-rule="evenodd"/><path d="M189 700.015 189 700.015 193.679 698C193.872 729.735 193.808 760.948 194 792.683L189.192 796C189.128 764.005 189.064 732.01 189 700.015Z" fill="#00AEEF" fill-rule="evenodd"/><path d="M176 675.375 188.044 669 194 672.5 181.691 679 176 675.375Z" fill="#003C71" fill-rule="evenodd"/><path d="M186 682.013 198.044 675 204 678.85 191.691 686 186 682.013Z" fill="#003C71" fill-rule="evenodd"/><path d="M216 688.273 222.725 685 228 687.909 216 694 216 688.273Z" fill="#00AEEF" fill-rule="evenodd"/><path d="M216 704.75 222.725 701 228 704.333 216 711 216 704.75Z" fill="#00AEEF" fill-rule="evenodd"/><path d="M216 721.375 222.725 718 228 721 216 727 216 721.375Z" fill="#00AEEF" fill-rule="evenodd"/><path d="M216 737.75 222.725 734 228 737.333 216 744 216 737.75Z" fill="#00AEEF" fill-rule="evenodd"/><path d="M216 754.375 222.725 751 228 754 216 760 216 754.375Z" fill="#00AEEF" fill-rule="evenodd"/><path d="M0 12 6.55968 0 13 0 6.44032 12Z" fill="#002D55" fill-rule="evenodd" transform="matrix(-4.37114e-08 -1 -1 4.37114e-08 228 701)"/><path d="M0 12 6.06515 0 14 0 7.93485 12Z" fill="#002D55" fill-rule="evenodd" transform="matrix(-4.37114e-08 -1 -1 4.37114e-08 228 718)"/><path d="M0 12 6.06516 0 13 0 6.93484 12Z" fill="#002D55" fill-rule="evenodd" transform="matrix(-4.37114e-08 -1 -1 4.37114e-08 228 734)"/><path d="M0 12 6.06515 0 14 0 7.93485 12Z" fill="#002D55" fill-rule="evenodd" transform="matrix(-4.37114e-08 -1 -1 4.37114e-08 228 751)"/><path d="M0 12 6.06516 0 13 0 6.93484 12Z" fill="#002D55" fill-rule="evenodd" transform="matrix(-4.37114e-08 -1 -1 4.37114e-08 228 767)"/><path d="M206 691.461 215.818 685C215.879 716.781 215.939 748.562 216 780.344L206.364 787 206 691.461Z" fill="#00AEEF" fill-rule="evenodd"/><path d="M148.098 677.261C148.054 679.07 148.043 680.846 148 682.654L155.92 687.11 153.867 688.079 153.867 692.729 172.64 702.804 178.507 699.704 189.067 705 194.282 702.578C194.238 700.899 193.999 699.155 193.956 697.476L192.391 696.475 200.963 691.47 206.21 694.602 216.413 688.951C216.445 687.476 216.575 685.905 216.608 684.43L214.815 683.429 224.723 678.101 230.101 680.975 235.967 678.23C235.978 676.702 235.989 675.948 236 674.42L230.166 676.842 224.658 674 210.546 681.782 215.89 684.559 206.276 690.404 200.67 687.433 187.763 694.764 192.75 697.347 188.773 699.51 177.594 693.892 171.89 696.83 155.594 688.531 162.667 685.496 148.098 677.261Z" fill="#002D55" fill-rule="evenodd"/><path d="M159.958 703.389 156.623 701.463 156.75 699.126 160.084 701.052Z" fill="#00AEEF" fill-rule="evenodd"/><path d="M164.811 705.938 161.476 704.012 161.603 701.675 164.938 703.601Z" fill="#00AEEF" fill-rule="evenodd"/><path d="M169.671 708.598 166.336 706.672 166.463 704.334 169.797 706.26Z" fill="#00AEEF" fill-rule="evenodd"/><path d="M159.958 713.701 156.623 711.774 156.75 709.437 160.084 711.363Z" fill="#00AEEF" fill-rule="evenodd"/><path d="M164.811 716.25 161.476 714.323 161.603 711.986 164.938 713.912Z" fill="#00AEEF" fill-rule="evenodd"/><path d="M169.671 718.909 166.336 716.983 166.463 714.646 169.797 716.572Z" fill="#00AEEF" fill-rule="evenodd"/><path d="M159.958 724.012 156.623 722.086 156.75 719.748 160.084 721.675Z" fill="#00AEEF" fill-rule="evenodd"/><path d="M164.811 726.561 161.476 724.635 161.603 722.297 164.938 724.224Z" fill="#00AEEF" fill-rule="evenodd"/><path d="M169.671 729.221 166.336 727.294 166.463 724.957 169.797 726.883Z" fill="#00AEEF" fill-rule="evenodd"/><path d="M159.958 734.323 156.623 732.397 156.75 730.06 160.084 731.986Z" fill="#00AEEF" fill-rule="evenodd"/><path d="M164.811 736.872 161.476 734.946 161.603 732.609 164.938 734.535Z" fill="#00AEEF" fill-rule="evenodd"/><path d="M169.671 739.532 166.336 737.606 166.463 735.268 169.797 737.195Z" fill="#00AEEF" fill-rule="evenodd"/><path d="M159.958 744.635 156.623 742.708 156.75 740.371 160.084 742.297Z" fill="#00AEEF" fill-rule="evenodd"/><path d="M164.811 747.184 161.476 745.257 161.603 742.92 164.938 744.846Z" fill="#00AEEF" fill-rule="evenodd"/><path d="M169.671 749.843 166.336 747.917 166.463 745.58 169.797 747.506Z" fill="#00AEEF" fill-rule="evenodd"/><path d="M159.958 754.946 156.623 753.02 156.75 750.682 160.084 752.609Z" fill="#00AEEF" fill-rule="evenodd"/><path d="M164.811 757.495 161.476 755.569 161.603 753.231 164.938 755.158Z" fill="#00AEEF" fill-rule="evenodd"/><path d="M169.671 760.155 166.336 758.228 166.463 755.891 169.797 757.817Z" fill="#00AEEF" fill-rule="evenodd"/><path d="M159.958 765.257 156.623 763.331 156.75 760.994 160.084 762.92Z" fill="#00AEEF" fill-rule="evenodd"/><path d="M164.811 767.806 161.476 765.88 161.603 763.543 164.938 765.469Z" fill="#00AEEF" fill-rule="evenodd"/><path d="M169.671 770.466 166.336 768.54 166.463 766.202 169.797 768.129Z" fill="#00AEEF" fill-rule="evenodd"/><path d="M159.958 775.569 156.623 773.643 156.75 771.305 160.084 773.231Z" fill="#00AEEF" fill-rule="evenodd"/><path d="M164.811 778.118 161.476 776.192 161.603 773.854 164.938 775.78Z" fill="#00AEEF" fill-rule="evenodd"/><path d="M169.671 780.777 166.336 778.851 166.463 776.514 169.797 778.44Z" fill="#00AEEF" fill-rule="evenodd"/><path d="M220.079 743.097C220.48 740.902 221.836 739.31 223.107 739.542 224.379 739.774 225.085 741.742 224.684 743.938 224.283 746.134 222.927 747.725 221.656 747.493 220.384 747.261 219.678 745.293 220.079 743.097Z" fill="#003C71" fill-rule="evenodd"/><path d="M222.26 743.032 226.598 744.1 226.202 745.708 221.864 744.64Z" fill="#003C71" fill-rule="evenodd"/><path d="M4.69705 8.86119C5.87132 5.7478 5.87132 5.7478 5.87132 5.7478 8.21984 4.78983 8.21984 4.78983 8.21984 4.78983 7.98499 4.07136 7.98499 4.07136 7.98499 4.07136 6.34102 0.718475 6.34102 0.718475 6.34102 0.718475 6.10617 0.239492 6.10617 0.239492 6.10617 0.239492 3.75764 1.19746 3.75764 1.19746 3.75764 1.19746 0.469705 0 0.469705 0 0.469705 0 0.469705 0 0 0.239492 0.234853 0.478983 4.22735 8.86119 4.22735 8.86119 4.22735 8.86119 4.22735 9.10068 4.69705 9.10068 4.69705 8.86119Z" fill="#003C71" fill-rule="evenodd" transform="matrix(-0.974993 0.222237 0.222237 0.974993 256.068 745.687)"/><path d="M18.5833 0.474961C0.940925 8.54929 0.940925 8.54929 0.940925 8.54929 0.235231 9.02425 0 9.73669 0.235231 10.4491 3.99893 18.5235 3.99893 18.5235 3.99893 18.5235 4.46939 19.2359 5.17509 19.4734 5.88078 19.2359 23.5231 10.9241 23.5231 10.9241 23.5231 10.9241 24.2288 10.4491 24.464 9.73669 24.2288 9.02425 20.2299 0.949921 20.2299 0.949921 20.2299 0.949921 19.9946 0.23748 19.0537 0 18.5833 0.474961ZM18.5833 3.79969C3.29324 10.9241 3.29324 10.9241 3.29324 10.9241 3.05801 11.1616 2.82277 10.9241 2.58754 10.6866 2.58754 10.4491 2.58754 9.97417 2.82277 9.97417 18.1128 2.61228 18.1128 2.61228 18.1128 2.61228 18.5833 2.61228 18.8185 2.61228 19.0537 2.84976 19.0537 3.32472 19.0537 3.5622 18.5833 3.79969Z" fill="#2AACE2" fill-rule="evenodd" transform="matrix(-0.974993 0.222237 0.222237 0.974993 246.539 734.711)"/><path d="M364 678C364.032 709.378 364.065 740.756 364.097 772.133L371.165 777C371.133 747.767 371.1 718.534 371.068 689.301L378 686.215 364 678Z" fill="#003C71" fill-rule="evenodd"/><path d="M371.008 689 390 697.306C389.934 728.624 389.244 759.682 389.178 791L371.26 781.644C371.325 750.196 370.942 720.448 371.008 689Z" fill="#003C71" fill-rule="evenodd"/><path d="M389.135 696.825 395 694C394.904 725.241 394.809 756.481 394.713 787.722L389 791C389.053 759.565 389.081 728.26 389.135 696.825Z" fill="#00AEEF" fill-rule="evenodd"/><path d="M393.825 694 406 700.461 406 796 393 788.56 393.825 694Z" fill="#003C71" fill-rule="evenodd"/><path d="M409.875 697.604 405 694.86 417 688 416.625 782.864 410.25 786 409.875 697.604Z" fill="#003C71" fill-rule="evenodd"/><path d="M417.247 688 423 691.339 423 787 417 783.333C417.062 751.643 417 720.083 417.247 688Z" fill="#003C71" fill-rule="evenodd"/><path d="M432.32 684.424 427 681.427 441.141 674 447 677.518C446.843 708.911 446.282 740.304 446.125 771.697L440.737 768.602 432.657 773C432.477 743.768 432.499 713.656 432.32 684.424Z" fill="#003C71" fill-rule="evenodd"/><path d="M446.046 678.349 452 675 452 769.731 446.016 772C445.949 740.534 446.114 709.815 446.046 678.349Z" fill="#003C71" fill-rule="evenodd"/><path d="M364 677.498 369.845 675.148 377.224 679.011 388.261 671.929 382.253 669.096 393.747 663.301 399.951 666.199 412.033 659.052 406.416 655.575 410.857 653 452 674.633 446.384 677.981 440.898 674.633 427.086 682.037 432.473 684.966 422.22 690.986 416.735 688.025 404.457 694.721 409.355 697.843 405.11 700 393.616 694.206 387.869 697.038 370.302 688.604 377.355 685.256 364 677.498Z" fill="#00AEEF" fill-rule="evenodd"/><path d="M383.125 669C383.083 671.333 383.042 673.667 383 676L389 672.096 383.125 669Z" fill="#003C71" fill-rule="evenodd"/><path d="M407 655 407.263 662 412 658.652 407 655Z" fill="#003C71" fill-rule="evenodd"/><path d="M405 700.015 405 700.015 409.679 698C409.872 729.735 409.808 760.948 410 792.683L405.192 796C405.128 764.005 405.064 732.01 405 700.015Z" fill="#00AEEF" fill-rule="evenodd"/><path d="M393 675.375 405.044 669 411 672.5 398.691 679 393 675.375Z" fill="#003C71" fill-rule="evenodd"/><path d="M403 682.013 415.044 675 421 678.85 408.691 686 403 682.013Z" fill="#003C71" fill-rule="evenodd"/><path d="M432 688.273 438.725 685 444 687.909 432 694 432 688.273Z" fill="#00AEEF" fill-rule="evenodd"/><path d="M433 704.75 439.165 701 444 704.333 433 711 433 704.75Z" fill="#00AEEF" fill-rule="evenodd"/><path d="M433 721.375 439.165 718 444 721 433 727 433 721.375Z" fill="#00AEEF" fill-rule="evenodd"/><path d="M433 737.75 439.165 734 444 737.333 433 744 433 737.75Z" fill="#00AEEF" fill-rule="evenodd"/><path d="M433 754.375 439.165 751 444 754 433 760 433 754.375Z" fill="#00AEEF" fill-rule="evenodd"/><path d="M0 12 6.55968 0 13 0 6.44032 12Z" fill="#002D55" fill-rule="evenodd" transform="matrix(-4.37114e-08 -1 -1 4.37114e-08 444 701)"/><path d="M0 11 5.55973 0 14 0 8.44027 11Z" fill="#002D55" fill-rule="evenodd" transform="matrix(-4.37114e-08 -1 -1 4.37114e-08 444 718)"/><path d="M0 11 5.55973 0 13 0 7.44027 11Z" fill="#002D55" fill-rule="evenodd" transform="matrix(-4.37114e-08 -1 -1 4.37114e-08 444 734)"/><path d="M0 11 5.55973 0 14 0 8.44027 11Z" fill="#002D55" fill-rule="evenodd" transform="matrix(-4.37114e-08 -1 -1 4.37114e-08 444 751)"/><path d="M0 11 5.55973 0 13 0 7.44027 11Z" fill="#002D55" fill-rule="evenodd" transform="matrix(-4.37114e-08 -1 -1 4.37114e-08 444 767)"/><path d="M423 691.461 432.818 685C432.879 716.781 432.939 748.562 433 780.344L423.364 787 423 691.461Z" fill="#00AEEF" fill-rule="evenodd"/><path d="M364.098 677.261C364.054 679.07 364.043 680.846 364 682.654L371.92 687.11 369.867 688.079 369.867 692.729 388.64 702.804 394.507 699.704 405.067 705 410.282 702.578C410.238 700.899 409.999 699.155 409.956 697.476L408.391 696.475 416.963 691.47 422.21 694.602 432.413 688.951C432.445 687.476 432.575 685.905 432.608 684.43L430.815 683.429 440.723 678.101 446.101 680.975 451.967 678.23C451.978 676.702 451.989 675.948 452 674.42L446.166 676.842 440.658 674 426.546 681.782 431.89 684.559 422.276 690.404 416.67 687.433 403.763 694.764 408.75 697.347 404.773 699.51 393.594 693.892 387.89 696.83 371.594 688.531 378.667 685.496 364.098 677.261Z" fill="#002D55" fill-rule="evenodd"/><path d="M376.528 703.389 373.194 701.463 373.32 699.126 376.655 701.052Z" fill="#00AEEF" fill-rule="evenodd"/><path d="M381.381 705.938 378.047 704.012 378.173 701.675 381.508 703.601Z" fill="#00AEEF" fill-rule="evenodd"/><path d="M386.241 708.598 382.907 706.672 383.033 704.334 386.368 706.26Z" fill="#00AEEF" fill-rule="evenodd"/><path d="M376.528 713.701 373.194 711.774 373.32 709.437 376.655 711.363Z" fill="#00AEEF" fill-rule="evenodd"/><path d="M381.381 716.25 378.047 714.323 378.173 711.986 381.508 713.912Z" fill="#00AEEF" fill-rule="evenodd"/><path d="M386.241 718.909 382.907 716.983 383.033 714.646 386.368 716.572Z" fill="#00AEEF" fill-rule="evenodd"/><path d="M376.528 724.012 373.194 722.086 373.32 719.748 376.655 721.675Z" fill="#00AEEF" fill-rule="evenodd"/><path d="M381.381 726.561 378.047 724.635 378.173 722.297 381.508 724.224Z" fill="#00AEEF" fill-rule="evenodd"/><path d="M386.241 729.221 382.907 727.294 383.033 724.957 386.368 726.883Z" fill="#00AEEF" fill-rule="evenodd"/><path d="M376.528 734.323 373.194 732.397 373.32 730.06 376.655 731.986Z" fill="#00AEEF" fill-rule="evenodd"/><path d="M381.381 736.872 378.047 734.946 378.173 732.609 381.508 734.535Z" fill="#00AEEF" fill-rule="evenodd"/><path d="M386.241 739.532 382.907 737.606 383.033 735.268 386.368 737.195Z" fill="#00AEEF" fill-rule="evenodd"/><path d="M376.528 744.635 373.194 742.708 373.32 740.371 376.655 742.297Z" fill="#00AEEF" fill-rule="evenodd"/><path d="M381.382 747.184 378.047 745.257 378.174 742.92 381.508 744.846Z" fill="#00AEEF" fill-rule="evenodd"/><path d="M386.241 749.843 382.907 747.917 383.033 745.58 386.368 747.506Z" fill="#00AEEF" fill-rule="evenodd"/><path d="M376.528 754.946 373.194 753.02 373.32 750.682 376.655 752.609Z" fill="#00AEEF" fill-rule="evenodd"/><path d="M381.382 757.495 378.047 755.569 378.174 753.231 381.508 755.158Z" fill="#00AEEF" fill-rule="evenodd"/><path d="M386.241 760.155 382.907 758.228 383.033 755.891 386.368 757.817Z" fill="#00AEEF" fill-rule="evenodd"/><path d="M376.528 765.257 373.194 763.331 373.32 760.994 376.655 762.92Z" fill="#00AEEF" fill-rule="evenodd"/><path d="M381.382 767.806 378.047 765.88 378.174 763.543 381.508 765.469Z" fill="#00AEEF" fill-rule="evenodd"/><path d="M386.241 770.466 382.907 768.54 383.033 766.202 386.368 768.129Z" fill="#00AEEF" fill-rule="evenodd"/><path d="M376.528 775.569 373.194 773.643 373.32 771.305 376.655 773.231Z" fill="#00AEEF" fill-rule="evenodd"/><path d="M381.382 778.118 378.047 776.192 378.174 773.854 381.508 775.78Z" fill="#00AEEF" fill-rule="evenodd"/><path d="M386.241 780.777 382.907 778.851 383.033 776.514 386.368 778.44Z" fill="#00AEEF" fill-rule="evenodd"/><path d="M436.65 743.097C437.051 740.902 438.406 739.31 439.678 739.542 440.949 739.774 441.655 741.742 441.254 743.938 440.854 746.134 439.498 747.725 438.226 747.493 436.955 747.261 436.249 745.293 436.65 743.097Z" fill="#003C71" fill-rule="evenodd"/><path d="M438.83 743.032 443.168 744.1 442.773 745.708 438.435 744.64Z" fill="#003C71" fill-rule="evenodd"/><path d="M4.69705 8.86119C5.87132 5.7478 5.87132 5.7478 5.87132 5.7478 8.21984 4.78983 8.21984 4.78983 8.21984 4.78983 7.98499 4.07136 7.98499 4.07136 7.98499 4.07136 6.34102 0.718475 6.34102 0.718475 6.34102 0.718475 6.10617 0.239492 6.10617 0.239492 6.10617 0.239492 3.75764 1.19746 3.75764 1.19746 3.75764 1.19746 0.469705 0 0.469705 0 0.469705 0 0.469705 0 0 0.239492 0.234853 0.478983 4.22735 8.86119 4.22735 8.86119 4.22735 8.86119 4.22735 9.10068 4.69705 9.10068 4.69705 8.86119Z" fill="#003C71" fill-rule="evenodd" transform="matrix(-0.974993 0.222237 0.222237 0.974993 472.638 745.687)"/><path d="M18.5833 0.474961C0.940925 8.54929 0.940925 8.54929 0.940925 8.54929 0.235231 9.02425 0 9.73669 0.235231 10.4491 3.99893 18.5235 3.99893 18.5235 3.99893 18.5235 4.46939 19.2359 5.17509 19.4734 5.88078 19.2359 23.5231 10.9241 23.5231 10.9241 23.5231 10.9241 24.2288 10.4491 24.464 9.73669 24.2288 9.02425 20.2299 0.949921 20.2299 0.949921 20.2299 0.949921 19.9946 0.23748 19.0537 0 18.5833 0.474961ZM18.5833 3.79969C3.29324 10.9241 3.29324 10.9241 3.29324 10.9241 3.05801 11.1616 2.82277 10.9241 2.58754 10.6866 2.58754 10.4491 2.58754 9.97417 2.82277 9.97417 18.1128 2.61228 18.1128 2.61228 18.1128 2.61228 18.5833 2.61228 18.8185 2.61228 19.0537 2.84976 19.0537 3.32472 19.0537 3.5622 18.5833 3.79969Z" fill="#2AACE2" fill-rule="evenodd" transform="matrix(-0.974993 0.222237 0.222237 0.974993 463.11 734.711)"/><rect x="229" y="560" width="152" height="28" fill="#F2F2F2"/><text fill="#003C71" font-family="Calibri,Calibri_MSFontService,sans-serif" font-weight="700" font-size="15" transform="translate(247.968 579)">IP camera network</text><path d="M512.833 653.5 512.833 817.5C512.833 817.684 512.684 817.833 512.5 817.833L355.5 817.833 355.5 817.167 512.5 817.167 512.167 817.5 512.167 653.5ZM356.833 821.5 351.5 817.5 356.833 813.5Z" fill="#00AEEF"/><path d="M161.333 0 161.333 164C161.333 164.184 161.184 164.333 161 164.333L3.99993 164.333 3.99993 163.667 161 163.667 160.667 164 160.667 0ZM5.33333 168 0 164 5.33333 160Z" fill="#00AEEF" transform="matrix(-1 -8.74228e-08 -8.74228e-08 1 262.5 653.5)"/><path d="M462.833 755.5 462.833 799.5C462.833 799.684 462.684 799.833 462.5 799.833L355.5 799.833 355.5 799.167 462.5 799.167 462.167 799.5 462.167 755.5ZM356.833 803.5 351.5 799.5 356.833 795.5Z" fill="#00AEEF"/><path d="M20.3333 0 20.3333 46C20.3333 46.1841 20.1841 46.3333 20 46.3333L4 46.3333 4 45.6667 20 45.6667 19.6667 46 19.6667 0ZM5.33333 50 0 46 5.33333 42Z" fill="#00AEEF" transform="matrix(-1 -8.74228e-08 -8.74228e-08 1 262.5 753.5)"/><path d="M319.5 611.167 346.5 611.167C346.684 611.167 346.833 611.316 346.833 611.5L346.833 755.5 346.167 755.5 346.167 611.5 346.5 611.833 319.5 611.833ZM350.5 754.167 346.5 759.5 342.5 754.167Z" fill="#00AEEF"/><path d="M99.3333 0 99.3333 17C99.3333 17.1841 99.1841 17.3333 99 17.3333L3.99998 17.3333 3.99998 16.6667 99 16.6667 98.6667 17 98.6667 0ZM5.33333 21 0 17 5.33333 13Z" fill="#00AEEF" transform="matrix(-4.37114e-08 -1 -1 4.37114e-08 289.5 759.5)"/><path d="M38.3333 0 38.3333 6C38.3333 6.18409 38.1841 6.33333 38 6.33333L4 6.33333 4 5.66667 38 5.66667 37.6667 6 37.6667 0ZM5.33333 10 0 6 5.33333 2Z" fill="#00AEEF" transform="matrix(-4.37114e-08 -1 -1 4.37114e-08 298.5 759.5)"/></g></svg>