<svg xmlns="http://www.w3.org/2000/svg" width="24.966" height="18.999" viewBox="0 0 24.966 18.999">
    <defs>
        <style>
            .cls-1{fill:#fff}
        </style>
    </defs>
    <g id="envelope" transform="translate(0 -57.75)">
        <g id="Group_134" data-name="Group 134" transform="translate(0 57.75)">
            <path id="Path_180" d="M21.918 57.75H3.053A3.056 3.056 0 0 0 0 60.8v12.9a3.056 3.056 0 0 0 3.053 3.053h18.86a3.056 3.056 0 0 0 3.053-3.053V60.808a3.052 3.052 0 0 0-3.048-3.058zm1.658 15.95a1.66 1.66 0 0 1-1.658 1.658H3.053A1.66 1.66 0 0 1 1.395 73.7V60.808a1.66 1.66 0 0 1 1.658-1.658h18.86a1.66 1.66 0 0 1 1.658 1.658V73.7z" class="cls-1" data-name="Path 180" transform="translate(0 -57.75)"/>
            <path id="Path_181" d="M68.617 115.6l6.106-5.476a.7.7 0 0 0-.935-1.038l-8.42 7.557-1.643-1.467c-.005-.005-.01-.01-.01-.016a1.035 1.035 0 0 0-.114-.1l-6.684-5.982a.7.7 0 0 0-.93 1.043l6.178 5.522-6.152 5.76a.7.7 0 0 0-.031.987.713.713 0 0 0 .511.222.7.7 0 0 0 .475-.186l6.245-5.842 1.694 1.514a.7.7 0 0 0 .93-.005l1.741-1.56 6.209 5.9a.7.7 0 0 0 .987-.026.7.7 0 0 0-.026-.987z" class="cls-1" data-name="Path 181" transform="translate(-52.872 -106.26)"/>
        </g>
    </g>
</svg>
