<svg xmlns="http://www.w3.org/2000/svg" width="724.892" height="619.758" viewBox="0 0 724.892 619.758"><g transform="translate(-6.108 -48)" opacity="0.051"><path d="M487.855,56.309c-44.628,27.876-82.823,62.318-110.3,99.307-23.051,31.092-38.2,61.782-46.37,94.081-4.423,17.422-4.825,20.773-5.361,41.546-.536,21.309,1.072,32.03,7.371,52.267,7.371,23.453,9.247,30.422,12.6,46.906a331.026,331.026,0,0,1,6.031,39.535c1.072,9.515.8,55.885-.4,62.988-.268,1.876-.938,6.165-1.34,9.381-5.093,36.855-20.907,77.6-41.144,105.74L300.9,619.184l7.773-4.289c10.453-5.763,24.123-15.01,29.886-20.1,22.247-19.567,35.247-35.783,46.1-57.36,8.443-16.752,16.618-41.546,18.9-57.36.536-2.814,1.072-6.165,1.34-7.237s.938-5.629,1.34-10.051,1.072-10.185,1.474-12.732c.8-5.495.8-52.133,0-58.968-.268-2.546-.938-9.515-1.474-15.412s-1.34-14.34-2.01-18.763-1.474-10.721-1.876-14.072-1.072-7.505-1.34-9.381-.938-5.763-1.474-8.711-2.278-14.072-4.289-24.793c-5.495-31.092-5.227-62.452,1.072-90.462,7.907-35.113,29.484-77.328,57.092-111.771,10.319-12.732,34.309-37.659,43.958-45.432,2.948-2.412,4.959-4.289,4.557-4.289S495.226,51.753,487.855,56.309Z" transform="translate(100.282)" fill="#4ac7e9"/><path d="M314.385,118.734c-14.474,10.855-36.587,33.907-45.968,47.978-13.4,20.1-23.453,44.226-26.268,62.586-.4,2.948-1.206,8.175-1.742,11.928-1.206,8.041-1.072,27.742.4,38.865.536,4.423,1.072,9.247,1.34,10.721,1.474,14.608,13.134,55.483,20.773,73.71.938,2.144,2.412,5.763,3.35,8.041,6.433,15.948,21.845,47.04,29.752,60.04l4.691,7.639,2.948-4.289c1.608-2.412,12.464-17.824,23.989-34.175s21.041-30.154,21.041-30.69c0-.8-11.526-15.01-13.536-16.618-2.68-2.144-23.051-30.422-27.608-38.329-14.608-24.927-21.041-50.927-21.041-83.627.134-11.66.67-17.824,2.546-26.8.268-1.876.938-5.227,1.474-7.371,3.618-17.958,15.412-49.721,26.67-71.432,4.021-7.907,7.1-14.474,6.835-14.608S319.477,114.982,314.385,118.734Z" transform="translate(79.426 21.872)" fill="#4ac7e9"/><path d="M40.441,271.548a24.887,24.887,0,0,0-13.536,12.6c-2.412,5.495-2.68,16.752-.536,24.391,2.68,10.185,24.123,42.886,46.1,70.359,14.876,18.628,49.989,53.741,62.452,62.452a39.556,39.556,0,0,1,5.361,4.155c1.608,2.144,24.659,16.216,35.515,21.711,12.6,6.165,30.154,13,33.773,13,1.206,0-.536-2.412-4.423-5.763A474.714,474.714,0,0,1,168.7,437.462c-3.485-4.021-7.371-8.711-8.845-10.185s-8.309-10.587-15.546-20.1A626.822,626.822,0,0,1,82.657,306.527c-9.917-19.835-16.35-28.01-25.866-32.968C50.492,270.342,45.668,269.806,40.441,271.548Z" transform="translate(6.398 75.714)" fill="#4ac7e9"/><path d="M387.846,272.874c-1.608.268-2.68.938-2.412,1.474a82.416,82.416,0,0,1,2.144,10.319c.8,5.093,1.742,10.721,2.01,12.464,4.155,23.587,2.814,71.432-2.546,100.916l-1.742,8.979,5.093-5.227c5.361-5.629,13.536-9.917,22.381-11.794,5.495-1.34,26.268-1.072,30.69.268,1.34.4,4.423,1.072,6.835,1.474s9.917,2.546,16.484,4.691l12.2,4.021,3.887-3.216c3.484-3.082,11.392-6.165,15.412-6.165,2.68,0,.67-27.34-2.948-41.546-3.082-11.928-6.165-20.371-9.649-26.8-14.608-26.536-36.721-42.082-68.617-48.112C408.887,273.008,392.671,272.07,387.846,272.874Z" transform="translate(128.993 76.398)" fill="#4ac7e9"/><path d="M425.9,314.85c-1.206,1.876-6.031,9.917-10.721,18.092s-8.979,15.278-9.515,16.082-3.35,4.691-6.031,8.711c-16.082,24.257-43.556,54.009-64.061,69.287-41.948,31.36-91,52.535-134.018,57.762-10.185,1.206-42.082,1.206-51.061-.134A239.45,239.45,0,0,1,35.371,434.8C31.35,431.446,28,429.168,28,429.57c0,1.876,9.113,18.092,15.948,28.01,33.907,50.123,78.669,87.648,127.719,107.08,9.783,3.887,31.226,9.783,38.6,10.721,2.546.268,6.835.938,9.381,1.474,11.526,2.144,45.164,1.474,60.04-1.34,2.01-.4,5.495-.938,7.639-1.34,22.917-4.289,49.855-15.412,68.751-28.412,19.7-13.4,41.277-39.4,52.8-63.39,4.825-10.051,12.6-30.958,13.67-36.587.268-1.608,1.206-5.361,2.01-8.309,2.412-9.113,5.361-28.144,6.433-41.143,1.876-23.855.938-64.061-2.01-79.473l-1.072-5.361Z" transform="translate(7.447 89.637)" fill="#4ac7e9"/><path d="M9.85,332.952c-4.021,4.021-4.155,4.557-3.35,11.794,2.412,20.371,33.638,60.576,65.535,84.163,29.484,21.845,62.184,33.906,100.781,37.391l9.381.8-16.216-9.247c-30.422-17.556-63.122-42.35-84.3-64.061-19.031-19.7-25.463-27.072-38.463-44.36-11.66-15.278-15.948-18.9-23.721-19.969C14.674,328.8,13.6,329.2,9.85,332.952Z" transform="translate(0 95.659)" fill="#4ac7e9"/><path d="M563.9,333.254c-5.763,2.814-8.577,7.1-9.247,14.206-.268,3.082-2.412,9.515-4.691,14.34l-4.021,8.711-1.608-6.031a55.147,55.147,0,0,0-3.753-9.917l-2.01-3.886-4.825,4.959a27.085,27.085,0,0,0-6.165,9.649c-1.474,5.093.268,13.268,3.484,16.752,1.742,2.01,1.474,2.546-1.876,4.959-4.021,2.814-11.794,6.969-13.134,6.969-.4,0,.134-1.742,1.34-4.021,3.216-6.165,2.144-20.371-1.876-26.8-1.072-1.608-2.144-1.206-6.433,2.144-9.515,7.773-12.6,18.092-8.041,27.206,2.278,4.423,2.412,4.289-5.763,4.691-6.969.268-8.309-.67-14.072-11.66-4.155-8.041-5.629-9.917-7.237-9.113-1.206.67-5.093,2.546-8.711,4.155l-6.567,2.948,6.567,3.618c10.587,5.763,19.3,12.2,19.3,14.206a3.686,3.686,0,0,0,1.474,2.814c2.546,1.474,19.3.536,26.133-1.474,6.3-1.876,6.567-1.876,9.917,1.206a38.858,38.858,0,0,0,6.567,4.825c4.691,2.412,15.412,1.876,22.247-1.206,5.361-2.412,6.031-3.082,4.825-5.361-1.876-3.484-8.309-8.711-13.268-10.721l-4.154-1.742,5.227-5.227,5.227-5.227,6.031,1.608c5.227,1.34,6.835,1.34,10.721-.67,5.093-2.412,11.526-7.505,11.526-9.247,0-2.01-8.443-5.361-14.072-5.361s-5.763-.268-4.557-3.484c.67-1.876,3.753-5.495,6.835-8.309,5.361-4.691,5.629-5.361,6.165-13.8C572.079,329.9,571.543,329.5,563.9,333.254Z" transform="translate(153.962 96.295)" fill="#4ac7e9"/></g></svg>