<svg xmlns="http://www.w3.org/2000/svg" width="94.22" height="43" viewBox="0 0 94.22 43"><defs><style>.a{isolation:isolate;}.b{fill:#333c4e;}.c{fill:#31e217;}.d{fill:#00afde;}.e{fill:#1f4b8e;}.f{fill:#fff;}.g{fill:#121212;}.h{fill:#972372;}</style></defs><title>tc_logo</title><g class="a"><g class="a"><path class="b" d="M39.12,34.94H37v-1h5.35v1H40.3v5.31H39.12Z"/><path class="b" d="M42.27,37.85a2.56,2.56,0,1,1,2.56,2.47A2.42,2.42,0,0,1,42.27,37.85Zm4,0a1.43,1.43,0,1,0-1.43,1.5A1.4,1.4,0,0,0,46.25,37.85Z"/><path class="b" d="M53.12,35.44v4.81H52v-.61a2,2,0,0,1-1.55.68,1.9,1.9,0,0,1-2.07-2.12V35.44h1.13V38c0,.87.41,1.29,1.13,1.29A1.27,1.27,0,0,0,52,37.87V35.44Z"/><path class="b" d="M54.2,37.85a2.43,2.43,0,0,1,2.6-2.46,2.16,2.16,0,0,1,2.05,1.12L58,37a1.36,1.36,0,0,0-1.2-.67,1.5,1.5,0,0,0,0,3,1.36,1.36,0,0,0,1.2-.67l.86.5a2.19,2.19,0,0,1-2.05,1.13A2.44,2.44,0,0,1,54.2,37.85Z"/><path class="b" d="M64.51,37.5v2.75H63.39V37.64c0-.86-.42-1.27-1.14-1.27a1.28,1.28,0,0,0-1.34,1.45v2.43H59.78V33.57h1.13V36a2.14,2.14,0,0,1,1.6-.61A1.88,1.88,0,0,1,64.51,37.5Z"/><path class="b" d="M68.09,37.1A3.41,3.41,0,0,1,74,34.91l-.76.71a2.21,2.21,0,0,0-1.68-.74,2.21,2.21,0,1,0,0,4.43,2.19,2.19,0,0,0,1.68-.75l.76.72a3.41,3.41,0,0,1-5.87-2.19Z"/><path class="b" d="M75,33.57H76.1v6.68H75Z"/><path class="b" d="M77.18,37.85a2.56,2.56,0,1,1,2.56,2.47A2.42,2.42,0,0,1,77.18,37.85Zm4,0a1.43,1.43,0,1,0-1.43,1.5A1.4,1.4,0,0,0,81.16,37.85Z"/><path class="b" d="M88,35.44v4.81H87v-.61a2,2,0,0,1-1.55.68,1.9,1.9,0,0,1-2.07-2.12V35.44h1.13V38c0,.87.41,1.29,1.13,1.29a1.27,1.27,0,0,0,1.31-1.45V35.44Z"/><path class="b" d="M94.22,33.57v6.68H93.13v-.62a2,2,0,0,1-1.59.68,2.46,2.46,0,0,1,0-4.92,2,2,0,0,1,1.55.65V33.57Zm-1.11,4.28a1.43,1.43,0,1,0-1.43,1.5A1.41,1.41,0,0,0,93.11,37.85Z"/></g></g><path class="c" d="M48.68,28.87a4.9,4.9,0,0,0,.31-.75c.36-.1,1-.48.75-1.8,0,0-1.24.23-1.12,1.32a4.39,4.39,0,0,1-.67,1.52,2.29,2.29,0,0,0-.45-1.39A1.47,1.47,0,0,0,47.12,30a4.15,4.15,0,0,1-1.37.73c.37-.35.69-1,.11-2.3a1.65,1.65,0,0,0-.79,2.45,3.92,3.92,0,0,1-1.14,0l.27.53a4.43,4.43,0,0,0,2-.29c.23.39.92,1.19,2.57.3a2,2,0,0,0-1.36-1,4.8,4.8,0,0,0,.83-.85c.25.21,1,.64,1.95-.5A1.4,1.4,0,0,0,48.68,28.87Z"/><path class="d" d="M41.35,0C31.54,5.63,27.52,14.43,29.53,20.35c4.22,12.47-2.19,19.25-2.19,19.25,9.62-4.92,7.6-15.88,6.43-22.66C32.05,7.05,41.35,0,41.35,0Z"/><path class="d" d="M29.22,23.95c-2.69-3.15-4.1-4.86-4.35-9s2.68-9,2.68-9-5.34,3.13-5.86,9.21,4.17,13.5,4.17,13.5Z"/><path class="e" d="M29.7,24.52c-1.8,3.13-4.28,8.08-11.81,11A15.38,15.38,0,0,1,2,32.62c.57,1.58,7.26,12.76,18.67,9.92C32.49,39.6,29.7,24.52,29.7,24.52Z"/><path class="e" d="M14.7,35.29s-5.26-4-9.43-13c-.14-.3-1.41-2.19-2.75-1.39S2,23.77,2,23.77,7.24,33.42,14.7,35.29Z"/><path class="d" d="M12.17,35.69A27.38,27.38,0,0,1,2.12,27s-.84-1.14-1.65-.76S.28,28.13.28,28.13,3.79,35.46,12.17,35.69Z"/><path class="e" d="M43.06,29.12c.08-9.13-7.88-8.18-7.88-8.18a23.75,23.75,0,0,1,0,9.3c1.6-2.66,6.5-.44,6.5-.44C42,29.1,43.06,29.12,43.06,29.12Zm-1.42-2.5A1.43,1.43,0,0,1,40,27.77h0a1.43,1.43,0,0,1-1.15-1.67h0a1.43,1.43,0,1,1,2.82.52h0Z"/><path class="f" d="M40.49,25A1.43,1.43,0,0,0,40,27.78h0a1.43,1.43,0,0,0,1.67-1.15h0A1.43,1.43,0,0,0,40.49,25Zm.44,1.54a.72.72,0,1,1-.58-.83.72.72,0,0,1,.58.83Z"/><path class="g" d="M40.36,25.67a.72.72,0,1,0,.57.83A.72.72,0,0,0,40.36,25.67Z"/><path class="h" d="M43.16,29.43,42,30a12.71,12.71,0,0,1,1.79,1.15,3.73,3.73,0,0,1,.33.3l.12.14-.07-.14-.27-.53Z"/></svg>